{
.appVersion = "3151";
.formatVersion = 3;
customParameters = (
{
name = trademark;
value = "Sedan is a trademark of Sebastian Salazar.";
}
);
date = "2023-03-27 12:24:39 +0000";
familyName = Sedan;
featurePrefixes = (
{
automatic = 1;
code = "languagesystem DFLT dflt;

languagesystem latn dflt;
";
name = Languagesystems;
}
);
features = (
{
automatic = 1;
code = "feature sups;
feature frac;
feature ordn;
";
tag = aalt;
},
{
automatic = 1;
code = "lookup ccmp_latn_1 {
	sub fi by f i;
	sub fl by f l;
} ccmp_latn_1;

script latn;
lookup ccmp_latn_1;
";
tag = ccmp;
},
{
automatic = 1;
code = "sub one by onesuperior;
sub two by twosuperior;
sub three by threesuperior;
";
tag = sups;
},
{
automatic = 1;
code = "sub one slash four by onequarter;
sub one slash two by onehalf;
sub three slash four by threequarters;
";
tag = frac;
},
{
automatic = 1;
code = "sub [zero one two three four five six seven eight nine] [A a]' by ordfeminine;
sub [zero one two three four five six seven eight nine] [O o]' by ordmasculine;
";
tag = ordn;
},
{
automatic = 1;
code = "lookupflag IgnoreMarks;
sub f i by fi;
sub f l by fl;
";
tag = liga;
}
);
fontMaster = (
{
customParameters = (
{
name = typoAscender;
value = 750;
},
{
name = typoDescender;
value = -250;
},
{
name = typoLineGap;
value = 0;
},
{
name = winAscent;
value = 978;
},
{
name = winDescent;
value = 407;
},
{
name = underlineThickness;
value = 50;
},
{
name = underlinePosition;
value = -75;
},
{
name = strikeoutPosition;
value = 250;
},
{
name = strikeoutSize;
value = 50;
},
{
name = subscriptXOffset;
value = 0;
},
{
name = subscriptXSize;
value = 700;
},
{
name = subscriptYOffset;
value = 140;
},
{
name = subscriptYSize;
value = 650;
},
{
name = superscriptXOffset;
value = 0;
},
{
name = superscriptXSize;
value = 700;
},
{
name = superscriptYOffset;
value = 477;
},
{
name = superscriptYSize;
value = 650;
},
{
name = hheaAscender;
value = 978;
},
{
name = hheaDescender;
value = -407;
},
{
name = hheaLineGap;
value = 0;
},
{

glyphs = (
{
glyphname = A;
lastChange = "2023-03-28 14:57:38 +0000";
layers = (
{
anchors = (
{
name = bottom;
pos = (328,0);
},
{
name = ogonek;
pos = (624,2);
},
{
name = top;
pos = (327,675);
}
);
hints = (
{
horizontal = 1;
place = (-2, 34);
place = (-2, 34);
type = Stem;
},
{
horizontal = 1;
place = (0, 21);
target = up;
type = BottomGhost;
},
{
horizontal = 1;
place = (309, 40);
place = (309, 40);
type = Stem;
},
{
horizontal = 1;
place = (706, -20);
target = down;
type = TopGhost;
}
);
layerId = "8832323D-7B51-42FA-AB4B-A01DBB0D4C02";
shapes = (
{
closed = 1;
nodes = (
(487,44,o),
(483,32,o),
(463,32,cs),
(406,32,ls),
(401,32,o),
(397,25,o),
(397,16,cs),
(397,4,o),
(401,-2,o),
(406,-2,cs),
(446,-2,o),
(498,1,o),
(533,1,cs),
(569,1,o),
(608,0,o),
(660,0,cs,{
name = .hr02;
}),
(666,0,o),
(668,9,o),
(668,18,cs),
(668,27,o),
(664,33,o),
(658,33,cs),
(622,33,ls),
(612,33,o),
(598,56,o),
(569,133,cs),
(368,676,ls),
(363,691,o),
(359,706,o),
(354,706,cs),
(334,706,o),
(343,661,o),
(286,661,cs),
(280,661,o),
(276,657,o),
(276,653,cs),
(276,648,o),
(284,640,o),
(284,628,cs),
(284,620,o),
(279,609,o),
(275,599,cs),
(182,367,o),
(142,218,o),
(66,54,cs),
(58,38,o),
(49,32,o),
(33,32,cs,{
name = .hr03;
}),
(-17,32,ls),
(-21,32,o),
(-26,25,o),
(-26,15,cs),
(-26,4,o),
(-22,-2,o),
(-17,-2,cs),
(20,-2,o),
(55,1,o),
(94,1,cs),
(128,1,o),
(191,0,o),
(223,0,cs,{
name = .hr04;
}),
(233,0,o),
(236,11,o),
(236,17,cs),
(236,23,o),
(233,33,o),
(225,33,cs),
(153,33,ls),
(149,33,o),
(147,38,o),
(147,48,cs),
(147,59,o),
(149,75,o),
(155,96,cs),
(175,168,o),
(196,239,o),
(218,309,c),
(399,309,l),
(427,225,o),
(455,144,o),
(481,63,cs,{
name = .hr01;
})
);
},
{
closed = 1;
nodes = (
(313,569,l),
(337,492,o),
(362,419,o),
(385,349,c),
(231,349,l),
(256,423,o),
(281,496,o),
(309,569,c)
);
}
);
width = 645;
}
);
unicode = 65;
},
{
color = 4;
glyphname = Aacute;
lastChange = "2023-03-28 14:57:38 +0000";
layers = (
{
background = {
shapes = (
{
closed = 1;
nodes = (
(424,842,o),
(464,870,o),
(464,907,cs),
(464,926,o),
(449,939,o),
(429,939,cs),
(367,939,o),
(376,887,o),
(255,752,cs),
(252,749,o),
(251,747,o),
(251,745,cs),
(251,740,o),
(257,736,o),
(264,736,cs),
(267,736,o),
(271,737,o),
(274,739,cs,{
name = .hr01;
})
);
},
{
closed = 1;
nodes = (
(487,44,o),
(483,32,o),
(463,32,cs),
(406,32,ls),
(401,32,o),
(397,25,o),
(397,16,cs),
(397,4,o),
(401,-2,o),
(406,-2,cs),
(446,-2,o),
(498,1,o),
(533,1,cs),
(569,1,o),
(608,0,o),
(660,0,cs,{
name = .hr02;
}),
(666,0,o),
(668,9,o),
(668,18,cs),
(668,27,o),
(664,33,o),
(658,33,cs),
(622,33,ls),
(612,33,o),
(598,56,o),
(569,133,cs),
(368,676,ls),
(363,691,o),
(359,706,o),
(354,706,cs),
(334,706,o),
(343,661,o),
(286,661,cs),
(280,661,o),
(276,657,o),
(276,653,cs),
(276,648,o),
(284,640,o),
(284,628,cs),
(284,620,o),
(279,609,o),
(275,599,cs),
(182,367,o),
(142,218,o),
(66,54,cs),
(58,38,o),
(49,32,o),
(33,32,cs,{
name = .hr03;
}),
(-17,32,ls),
(-21,32,o),
(-26,25,o),
(-26,15,cs),
(-26,4,o),
(-22,-2,o),
(-17,-2,cs),
(20,-2,o),
(55,1,o),
(94,1,cs),
(128,1,o),
(191,0,o),
(223,0,cs,{
name = .hr04;
}),
(233,0,o),
(236,11,o),
(236,17,cs),
(236,23,o),
(233,33,o),
(225,33,cs),
(153,33,ls),
(149,33,o),
(147,38,o),
(147,48,cs),
(147,59,o),
(149,75,o),
(155,96,cs),
(175,168,o),
(196,239,o),
(218,309,c),
(399,309,l),
(427,225,o),
(455,144,o),
(481,63,cs)
);
},
{
closed = 1;
nodes = (
(313,569,l),
(337,492,o),
(362,419,o),
(385,349,c),
(231,349,l),
(256,423,o),
(281,496,o),
(309,569,c)
);
}
);
};
hints = (
{
horizontal = 1;
place = (-2, 34);
place = (-2, 34);
type = Stem;
},
{
horizontal = 1;
place = (0, 21);
target = up;
type = BottomGhost;
},
{
horizontal = 1;
place = (309, 40);
place = (309, 40);
type = Stem;
},
{
horizontal = 1;
place = (939, -20);
target = down;
type = TopGhost;
}
);
layerId = "8832323D-7B51-42FA-AB4B-A01DBB0D4C02";
shapes = (
{
ref = A;
},
{
pos = (165,237);
ref = acute.case;
}
);
width = 645;
}
);
unicode = 193;
},
{
color = 4;
glyphname = Acircumflex;
lastChange = "2023-03-28 14:57:38 +0000";
layers = (
{
background = {
shapes = (
{
closed = 1;
nodes = (
(487,44,o),
(483,32,o),
(463,32,cs),
(406,32,ls),
(401,32,o),
(397,25,o),
(397,16,cs),
(397,4,o),
(401,-2,o),
(406,-2,cs),
(446,-2,o),
(498,1,o),
(533,1,cs),
(569,1,o),
(608,0,o),
(660,0,cs,{
name = .hr02;
}),
(666,0,o),
(668,9,o),
(668,18,cs),
(668,27,o),
(664,33,o),
(658,33,cs),
(622,33,ls),
(612,33,o),
(598,56,o),
(569,133,cs),
(368,676,ls),
(363,691,o),
(359,706,o),
(354,706,cs),
(334,706,o),
(343,661,o),
(286,661,cs),
(280,661,o),
(276,657,o),
(276,653,cs),
(276,648,o),
(284,640,o),
(284,628,cs),
(284,620,o),
(279,609,o),
(275,599,cs),
(182,367,o),
(142,218,o),
(66,54,cs),
(58,38,o),
(49,32,o),
(33,32,cs,{
name = .hr03;
}),
(-17,32,ls),
(-21,32,o),
(-26,25,o),
(-26,15,cs),
(-26,4,o),
(-22,-2,o),
(-17,-2,cs),
(20,-2,o),
(55,1,o),
(94,1,cs),
(128,1,o),
(191,0,o),
(223,0,cs,{
name = .hr04;
}),
(233,0,o),
(236,11,o),
(236,17,cs),
(236,23,o),
(233,33,o),
(225,33,cs),
(153,33,ls),
(149,33,o),
(147,38,o),
(147,48,cs),
(147,59,o),
(149,75,o),
(155,96,cs),
(175,168,o),
(196,239,o),
(218,309,c),
(399,309,l),
(427,225,o),
(455,144,o),
(481,63,cs,{
name = .hr01;
})
);
},
{
closed = 1;
nodes = (
(313,569,l),
(337,492,o),
(362,419,o),
(385,349,c),
(231,349,l),
(256,423,o),
(281,496,o),
(309,569,c)
);
},
{
closed = 1;
nodes = (
(436,764,ls),
(443,758,o),
(448,757,o),
(453,757,cs),
(462,757,o),
(467,764,o),
(467,764,c),
(357,911,l),
(348,920,o),
(338,925,o),
(328,925,cs),
(319,925,o),
(309,920,o),
(302,911,cs),
(188,764,l),
(190,759,o),
(193,756,o),
(199,756,cs),
(204,756,o),
(211,758,o),
(218,764,cs),
(329,854,l)
);
}
);
};
hints = (
{
horizontal = 1;
place = (-2, 34);
place = (-2, 34);
type = Stem;
},
{
horizontal = 1;
place = (0, 21);
target = up;
type = BottomGhost;
},
{
horizontal = 1;
place = (309, 40);
place = (309, 40);
type = Stem;
},
{
horizontal = 1;
place = (925, -20);
target = down;
type = TopGhost;
}
);
layerId = "8832323D-7B51-42FA-AB4B-A01DBB0D4C02";
shapes = (
{
ref = A;
},
{
pos = (120,237);
ref = circumflex.case;
}
);
width = 645;
}
);
unicode = 194;
},
{
color = 4;
glyphname = Adieresis;
lastChange = "2023-03-28 14:57:38 +0000";
layers = (
{
background = {
shapes = (
{
closed = 1;
nodes = (
(487,44,o),
(483,32,o),
(463,32,cs),
(406,32,ls),
(401,32,o),
(397,25,o),
(397,16,cs),
(397,4,o),
(401,-2,o),
(406,-2,cs),
(446,-2,o),
(498,1,o),
(533,1,cs),
(569,1,o),
(608,0,o),
(660,0,cs,{
name = .hr02;
}),
(666,0,o),
(668,9,o),
(668,18,cs),
(668,27,o),
(664,33,o),
(658,33,cs),
(622,33,ls),
(612,33,o),
(598,56,o),
(569,133,cs),
(368,676,ls),
(363,691,o),
(359,706,o),
(354,706,cs),
(334,706,o),
(343,661,o),
(286,661,cs),
(280,661,o),
(276,657,o),
(276,653,cs),
(276,648,o),
(284,640,o),
(284,628,cs),
(284,620,o),
(279,609,o),
(275,599,cs),
(182,367,o),
(142,218,o),
(66,54,cs),
(58,38,o),
(49,32,o),
(33,32,cs,{
name = .hr03;
}),
(-17,32,ls),
(-21,32,o),
(-26,25,o),
(-26,15,cs),
(-26,4,o),
(-22,-2,o),
(-17,-2,cs),
(20,-2,o),
(55,1,o),
(94,1,cs),
(128,1,o),
(191,0,o),
(223,0,cs,{
name = .hr04;
}),
(233,0,o),
(236,11,o),
(236,17,cs),
(236,23,o),
(233,33,o),
(225,33,cs),
(153,33,ls),
(149,33,o),
(147,38,o),
(147,48,cs),
(147,59,o),
(149,75,o),
(155,96,cs),
(175,168,o),
(196,239,o),
(218,309,c),
(399,309,l),
(427,225,o),
(455,144,o),
(481,63,cs,{
name = .hr01;
})
);
},
{
closed = 1;
nodes = (
(313,569,l),
(337,492,o),
(362,419,o),
(385,349,c),
(231,349,l),
(256,423,o),
(281,496,o),
(309,569,c)
);
},
{
closed = 1;
nodes = (
(273,789,o),
(295,813,o),
(295,842,cs),
(295,869,o),
(270,891,o),
(244,891,cs),
(217,891,o),
(193,870,o),
(193,842,cs),
(193,813,o),
(214,789,o),
(244,789,cs)
);
},
{
closed = 1;
nodes = (
(441,789,o),
(462,813,o),
(462,842,cs),
(462,869,o),
(438,891,o),
(411,891,cs),
(385,891,o),
(360,870,o),
(360,842,cs),
(360,813,o),
(382,789,o),
(411,789,cs)
);
}
);
};
hints = (
{
horizontal = 1;
place = (-2, 34);
place = (-2, 34);
type = Stem;
},
{
horizontal = 1;
place = (0, 21);
target = up;
type = BottomGhost;
},
{
horizontal = 1;
place = (309, 40);
place = (309, 40);
type = Stem;
},
{
horizontal = 1;
place = (789, 102);
place = (789, 102);
type = Stem;
},
{
place = (193, 102);
place = (193, 102);
type = Stem;
},
{
place = (360, 102);
place = (360, 102);
type = Stem;
}
);
layerId = "8832323D-7B51-42FA-AB4B-A01DBB0D4C02";
shapes = (
{
ref = A;
},
{
pos = (127,237);
ref = dieresis.case;
}
);
width = 645;
}
);
unicode = 196;
},
{
color = 4;
glyphname = Agrave;
lastChange = "2023-03-28 14:57:38 +0000";
layers = (
{
background = {
shapes = (
{
closed = 1;
nodes = (
(487,44,o),
(483,32,o),
(463,32,cs),
(406,32,ls),
(401,32,o),
(397,25,o),
(397,16,cs),
(397,4,o),
(401,-2,o),
(406,-2,cs),
(446,-2,o),
(498,1,o),
(533,1,cs),
(569,1,o),
(608,0,o),
(660,0,cs,{
name = .hr02;
}),
(666,0,o),
(668,9,o),
(668,18,cs),
(668,27,o),
(664,33,o),
(658,33,cs),
(622,33,ls),
(612,33,o),
(598,56,o),
(569,133,cs),
(368,676,ls),
(363,691,o),
(359,706,o),
(354,706,cs),
(334,706,o),
(343,661,o),
(286,661,cs),
(280,661,o),
(276,657,o),
(276,653,cs),
(276,648,o),
(284,640,o),
(284,628,cs),
(284,620,o),
(279,609,o),
(275,599,cs),
(182,367,o),
(142,218,o),
(66,54,cs),
(58,38,o),
(49,32,o),
(33,32,cs,{
name = .hr03;
}),
(-17,32,ls),
(-21,32,o),
(-26,25,o),
(-26,15,cs),
(-26,4,o),
(-22,-2,o),
(-17,-2,cs),
(20,-2,o),
(55,1,o),
(94,1,cs),
(128,1,o),
(191,0,o),
(223,0,cs,{
name = .hr04;
}),
(233,0,o),
(236,11,o),
(236,17,cs),
(236,23,o),
(233,33,o),
(225,33,cs),
(153,33,ls),
(149,33,o),
(147,38,o),
(147,48,cs),
(147,59,o),
(149,75,o),
(155,96,cs),
(175,168,o),
(196,239,o),
(218,309,c),
(399,309,l),
(427,225,o),
(455,144,o),
(481,63,cs,{
name = .hr01;
})
);
},
{
closed = 1;
nodes = (
(313,569,l),
(337,492,o),
(362,419,o),
(385,349,c),
(231,349,l),
(256,423,o),
(281,496,o),
(309,569,c)
);
},
{
closed = 1;
nodes = (
(419,737,o),
(423,736,o),
(426,736,cs),
(433,736,o),
(439,740,o),
(439,745,cs),
(439,747,o),
(438,749,o),
(435,752,cs),
(314,887,o),
(323,939,o),
(261,939,cs),
(241,939,o),
(226,926,o),
(226,907,cs),
(226,870,o),
(266,842,o),
(416,739,cs)
);
}
);
};
hints = (
{
horizontal = 1;
place = (-2, 34);
place = (-2, 34);
type = Stem;
},
{
horizontal = 1;
place = (0, 21);
target = up;
type = BottomGhost;
},
{
horizontal = 1;
place = (309, 40);
place = (309, 40);
type = Stem;
},
{
horizontal = 1;
place = (939, -20);
target = down;
type = TopGhost;
}
);
layerId = "8832323D-7B51-42FA-AB4B-A01DBB0D4C02";
shapes = (
{
ref = A;
},
{
pos = (125,237);
ref = grave.case;
}
);
width = 645;
}
);
unicode = 192;
},
{
color = 4;
glyphname = Aring;
lastChange = "2023-03-28 14:57:38 +0000";
layers = (
{
background = {
shapes = (
{
closed = 1;
nodes = (
(487,44,o),
(483,32,o),
(463,32,cs),
(406,32,ls),
(401,32,o),
(397,25,o),
(397,16,cs),
(397,4,o),
(401,-2,o),
(406,-2,cs),
(446,-2,o),
(498,1,o),
(533,1,cs),
(569,1,o),
(608,0,o),
(660,0,cs,{
name = .hr02;
}),
(666,0,o),
(668,9,o),
(668,18,cs),
(668,27,o),
(664,33,o),
(658,33,cs),
(622,33,ls),
(612,33,o),
(598,56,o),
(569,133,cs),
(368,676,ls),
(363,691,o),
(359,706,o),
(354,706,cs),
(334,706,o),
(343,661,o),
(286,661,cs),
(280,661,o),
(276,657,o),
(276,653,cs),
(276,648,o),
(284,640,o),
(284,628,cs),
(284,620,o),
(279,609,o),
(275,599,cs),
(182,367,o),
(142,218,o),
(66,54,cs),
(58,38,o),
(49,32,o),
(33,32,cs,{
name = .hr03;
}),
(-17,32,ls),
(-21,32,o),
(-26,25,o),
(-26,15,cs),
(-26,4,o),
(-22,-2,o),
(-17,-2,cs),
(20,-2,o),
(55,1,o),
(94,1,cs),
(128,1,o),
(191,0,o),
(223,0,cs,{
name = .hr04;
}),
(233,0,o),
(236,11,o),
(236,17,cs),
(236,23,o),
(233,33,o),
(225,33,cs),
(153,33,ls),
(149,33,o),
(147,38,o),
(147,48,cs),
(147,59,o),
(149,75,o),
(155,96,cs),
(175,168,o),
(196,239,o),
(218,309,c),
(399,309,l),
(427,225,o),
(455,144,o),
(481,63,cs,{
name = .hr01;
})
);
},
{
closed = 1;
nodes = (
(313,569,l),
(337,492,o),
(362,419,o),
(385,349,c),
(231,349,l),
(256,423,o),
(281,496,o),
(309,569,c)
);
},
{
closed = 1;
nodes = (
(390,759,o),
(431,798,o),
(431,852,cs),
(431,902,o),
(385,940,o),
(336,940,cs),
(287,940,o),
(244,900,o),
(244,850,cs),
(244,800,o),
(287,759,o),
(337,759,cs)
);
},
{
closed = 1;
nodes = (
(305,788,o),
(278,816,o),
(278,850,cs),
(278,882,o),
(302,912,o),
(336,912,cs),
(371,912,o),
(397,883,o),
(397,849,cs),
(397,817,o),
(371,788,o),
(339,788,cs)
);
}
);
};
hints = (
{
horizontal = 1;
place = (-2, 34);
place = (-2, 34);
type = Stem;
},
{
horizontal = 1;
place = (0, 21);
target = up;
type = BottomGhost;
},
{
horizontal = 1;
place = (309, 40);
place = (309, 40);
type = Stem;
},
{
horizontal = 1;
place = (759, 29);
place = (759, 29);
type = Stem;
},
{
horizontal = 1;
place = (912, 28);
place = (912, 28);
type = Stem;
},
{
place = (244, 34);
place = (244, 34);
type = Stem;
},
{
place = (397, 34);
place = (397, 34);
type = Stem;
}
);
layerId = "8832323D-7B51-42FA-AB4B-A01DBB0D4C02";
shapes = (
{
ref = A;
},
{
pos = (168,237);
ref = ring.case;
}
);
width = 645;
}
);
unicode = 197;
},
{
color = 4;
glyphname = Atilde;
lastChange = "2023-03-28 14:57:38 +0000";
layers = (
{
background = {
shapes = (
{
closed = 1;
nodes = (
(487,44,o),
(483,32,o),
(463,32,cs),
(406,32,ls),
(401,32,o),
(397,25,o),
(397,16,cs),
(397,4,o),
(401,-2,o),
(406,-2,cs),
(446,-2,o),
(498,1,o),
(533,1,cs),
(569,1,o),
(608,0,o),
(660,0,cs,{
name = .hr02;
}),
(666,0,o),
(668,9,o),
(668,18,cs),
(668,27,o),
(664,33,o),
(658,33,cs),
(622,33,ls),
(612,33,o),
(598,56,o),
(569,133,cs),
(368,676,ls),
(363,691,o),
(359,706,o),
(354,706,cs),
(334,706,o),
(343,661,o),
(286,661,cs),
(280,661,o),
(276,657,o),
(276,653,cs),
(276,648,o),
(284,640,o),
(284,628,cs),
(284,620,o),
(279,609,o),
(275,599,cs),
(182,367,o),
(142,218,o),
(66,54,cs),
(58,38,o),
(49,32,o),
(33,32,cs,{
name = .hr03;
}),
(-17,32,ls),
(-21,32,o),
(-26,25,o),
(-26,15,cs),
(-26,4,o),
(-22,-2,o),
(-17,-2,cs),
(20,-2,o),
(55,1,o),
(94,1,cs),
(128,1,o),
(191,0,o),
(223,0,cs,{
name = .hr04;
}),
(233,0,o),
(236,11,o),
(236,17,cs),
(236,23,o),
(233,33,o),
(225,33,cs),
(153,33,ls),
(149,33,o),
(147,38,o),
(147,48,cs),
(147,59,o),
(149,75,o),
(155,96,cs),
(175,168,o),
(196,239,o),
(218,309,c),
(399,309,l),
(427,225,o),
(455,144,o),
(481,63,cs,{
name = .hr01;
})
);
},
{
closed = 1;
nodes = (
(313,569,l),
(337,492,o),
(362,419,o),
(385,349,c),
(231,349,l),
(256,423,o),
(281,496,o),
(309,569,c)
);
},
{
closed = 1;
nodes = (
(199,830,o),
(241,837,o),
(279,837,cs),
(320,837,o),
(349,824,o),
(389,824,cs,{
name = .hr05;
}),
(433,824,o),
(489,852,o),
(493,955,cs),
(494,967,o),
(486,973,o),
(478,973,cs),
(473,973,o),
(468,971,o),
(467,965,cs),
(455,898,o),
(416,895,o),
(373,895,cs),
(336,895,o),
(307,908,o),
(264,908,cs,{
name = .hr06;
}),
(224,908,o),
(164,878,o),
(160,779,c),
(160,767,o),
(169,760,o),
(177,760,cs),
(182,760,o),
(186,763,o),
(187,768,cs)
);
}
);
};
hints = (
{
horizontal = 1;
place = (-2, 34);
place = (-2, 34);
type = Stem;
},
{
horizontal = 1;
place = (0, 21);
target = up;
type = BottomGhost;
},
{
horizontal = 1;
place = (309, 40);
place = (309, 40);
type = Stem;
},
{
horizontal = 1;
place = (824, 71);
place = (824, 71);
type = Stem;
},
{
horizontal = 1;
place = (837, 58);
place = (837, 58);
type = Stem;
},
{
horizontal = 1;
place = (837, 71);
place = (837, 71);
type = Stem;
},
{
horizontal = 1;
place = (973, -20);
target = down;
type = TopGhost;
}
);
layerId = "8832323D-7B51-42FA-AB4B-A01DBB0D4C02";
shapes = (
{
ref = A;
},
{
pos = (125,237);
ref = tilde.case;
}
);
width = 645;
}
);
unicode = 195;
},
{
glyphname = AE;
lastChange = "2023-03-28 14:40:20 +0000";
layers = (
{
hints = (
{
horizontal = 1;
place = (-29, 21);
target = up;
type = BottomGhost;
},
{
horizontal = 1;
place = (-2, 34);
place = (-2, 34);
type = Stem;
},
{
horizontal = 1;
place = (0, 21);
target = up;
type = BottomGhost;
},
{
horizontal = 1;
place = (320, 32);
place = (320, 32);
type = Stem;
},
{
horizontal = 1;
place = (634, 37);
place = (634, 37);
type = Stem;
},
{
horizontal = 1;
place = (701, -20);
target = down;
type = TopGhost;
},
{
place = (323, 190);
place = (323, 190);
type = Stem;
},
{
place = (410, 103);
place = (410, 103);
type = Stem;
}
);
layerId = "8832323D-7B51-42FA-AB4B-A01DBB0D4C02";
shapes = (
{
closed = 1;
nodes = (
(230,318,l,{
name = .hr01;
}),
(230,318,o),
(361,320,o),
(433,320,c),
(433,352,l),
(380,352,o),
(230,357,o),
(230,357,c)
);
},
{
closed = 1;
nodes = (
(384,650,l),
(287,480,o),
(84,32,o),
(12,32,cs),
(-26,32,ls),
(-30,32,o),
(-35,25,o),
(-35,15,cs),
(-35,4,o),
(-31,-2,o),
(-26,-2,cs),
(11,-2,o),
(34,1,o),
(73,1,cs),
(107,1,o),
(151,0,o),
(183,0,cs,{
name = .hr02;
}),
(193,0,o),
(196,11,o),
(196,17,cs),
(196,23,o),
(193,33,o),
(185,33,cs),
(132,33,ls),
(100,33,o),
(326,465,o),
(418,620,c)
);
},
{
closed = 1;
nodes = (
(513,588,ls),
(513,620,o),
(519,632,o),
(546,634,c),
(632,633,o),
(681,626,o),
(716,613,c),
(739,602,o),
(747,568,o),
(754,540,cs),
(755,535,o),
(764,532,o),
(772,532,cs),
(780,532,o),
(788,535,o),
(786,540,c),
(778,582,o),
(776,642,o),
(776,692,cs),
(776,698,o),
(769,701,o),
(762,701,cs),
(755,701,o),
(747,698,o),
(747,692,cs),
(747,671,l),
(457,671,ls),
(406,671,o),
(366,673,o),
(331,673,cs),
(324,673,o),
(323,665,o),
(323,659,cs),
(323,647,o),
(326,640,o),
(331,640,cs),
(389,640,l),
(410,612,l,{
name = .hr03;
}),
(410,78,ls),
(410,43,o),
(403,32,o),
(369,32,cs),
(329,32,ls),
(324,32,o),
(321,23,o),
(321,14,cs),
(321,6,o),
(323,-2,o),
(329,-2,cs),
(358,-2,o),
(379,0,o),
(550,0,cs,{
name = .hr04;
}),
(797,0,l),
(797,-22,ls),
(797,-27,o),
(805,-29,o),
(813,-29,cs),
(821,-29,o),
(828,-27,o),
(828,-22,cs),
(828,29,o),
(830,87,o),
(837,137,cs),
(838,143,o),
(831,145,o),
(823,145,cs),
(814,145,o),
(805,142,o),
(804,137,cs),
(797,82,l),
(760,56,o),
(672,41,o),
(585,40,c),
(534,40,ls),
(525,40,o),
(509,51,o),
(513,128,c),
(513,320,l),
(603,318,o),
(690,309,o),
(697,305,c),
(708,245,l),
(708,241,o),
(714,239,o),
(721,239,cs),
(730,239,o),
(740,242,o),
(739,247,cs),
(735,278,o),
(734,310,o),
(734,339,cs),
(734,369,o),
(735,392,o),
(739,423,cs),
(740,429,o),
(732,432,o),
(724,432,cs),
(716,432,o),
(709,430,o),
(708,425,cs),
(698,366,l),
(692,362,o),
(600,354,o),
(513,352,c)
);
}
);
width = 881;
}
);
unicode = 198;
},
{
glyphname = B;
lastChange = "2023-03-28 14:40:20 +0000";
layers = (
{
hints = (
{
horizontal = 1;
place = (0, 40);
place = (0, 40);
type = Stem;
},
{
horizontal = 1;
place = (-2, 21);
target = up;
type = BottomGhost;
},
{
horizontal = 1;
place = (331, 36);
place = (331, 36);
type = Stem;
},
{
horizontal = 1;
place = (631, 40);
place = (631, 40);
type = Stem;
},
{
horizontal = 1;
place = (673, -20);
target = down;
type = TopGhost;
},
{
place = (143, 103);
place = (143, 103);
type = Stem;
},
{
place = (453, 108);
place = (453, 108);
type = Stem;
},
{
place = (490, 71);
place = (490, 71);
type = Stem;
},
{
place = (490, 121);
place = (490, 121);
type = Stem;
}
);
layerId = "8832323D-7B51-42FA-AB4B-A01DBB0D4C02";
shapes = (
{
closed = 1;
nodes = (
(561,587,o),
(488,671,o),
(305,671,cs),
(190,671,ls),
(150,671,o),
(101,673,o),
(59,673,cs,{
name = .hr02;
}),
(52,673,o),
(51,664,o),
(51,658,cs),
(51,646,o),
(54,639,o),
(59,639,cs),
(122,639,ls),
(131,639,o),
(143,628,o),
(143,551,cs),
(143,78,ls),
(143,43,o),
(136,32,o),
(102,32,cs),
(59,32,ls),
(54,32,o),
(51,23,o),
(51,14,cs),
(51,6,o),
(53,-2,o),
(59,-2,cs),
(91,-2,o),
(144,0,o),
(229,0,cs,{
name = .hr03;
}),
(326,0,ls),
(508,0,o),
(611,83,o),
(611,175,cs),
(611,254,o),
(539,326,o),
(417,348,c),
(417,352,l),
(498,368,o),
(561,428,o),
(561,500,cs,{
name = .hr01;
})
);
},
{
closed = 1;
nodes = (
(246,331,l),
(449,323,o),
(490,257,o),
(490,175,cs),
(490,97,o),
(433,40,o),
(319,40,cs),
(268,40,ls),
(256,40,o),
(246,55,o),
(246,128,cs)
);
},
{
closed = 1;
nodes = (
(246,585,ls),
(246,618,o),
(255,631,o),
(275,631,cs),
(404,631,o),
(453,561,o),
(453,492,cs,{
name = .hr05;
}),
(453,427,o),
(402,367,o),
(299,367,cs),
(281,367,o),
(264,368,o),
(246,371,c)
);
}
);
width = 664;
}
);
unicode = 66;
},
{
glyphname = C;
lastChange = "2023-03-28 14:40:20 +0000";
layers = (
{
anchors = (
{
name = bottom;
pos = (443,0);
},
{
name = top;
pos = (458,675);
}
);
hints = (
{
horizontal = 1;
place = (-13, 45);
place = (-13, 45);
type = Stem;
},
{
horizontal = 1;
place = (-6, 21);
target = up;
type = BottomGhost;
},
{
horizontal = 1;
place = (639, 45);
place = (639, 45);
type = Stem;
},
{
place = (46, 124);
place = (46, 124);
type = Stem;
}
);
layerId = "8832323D-7B51-42FA-AB4B-A01DBB0D4C02";
shapes = (
{
closed = 1;
nodes = (
(46,101,o),
(226,-13,o),
(446,-13,cs),
(510,-13,o),
(573,0,o),
(638,26,c),
(638,2,ls),
(638,-4,o),
(646,-6,o),
(654,-6,cs,{
name = .hr02;
}),
(662,-6,o),
(669,-4,o),
(669,2,cs),
(669,52,o),
(670,104,o),
(677,139,cs),
(678,146,o),
(670,150,o),
(662,150,cs),
(653,150,o),
(645,146,o),
(644,139,cs),
(638,92,l),
(578,51,o),
(519,32,o),
(452,32,cs,{
name = .hr03;
}),
(300,32,o),
(170,131,o),
(170,336,cs),
(170,537,o),
(293,639,o),
(436,639,cs),
(503,639,o),
(562,618,o),
(617,567,c),
(625,520,ls),
(626,513,o),
(634,510,o),
(642,510,cs),
(651,510,o),
(659,513,o),
(658,520,cs),
(651,567,o),
(648,618,o),
(648,668,cs),
(648,675,o),
(642,677,o),
(635,677,cs),
(627,677,o),
(619,674,o),
(619,668,cs),
(619,645,l),
(576,667,o),
(520,684,o),
(458,684,cs),
(248,684,o),
(46,553,o),
(46,313,cs,{
name = .hr01;
})
);
}
);
width = 727;
}
);
unicode = 67;
},
{
glyphname = D;
lastChange = "2023-03-28 14:40:20 +0000";
layers = (
{
anchors = (
{
name = bottom;
pos = (321,0);
},
{
name = center;
pos = (381,351);
},
{
name = top;
pos = (321,675);
}
);
hints = (
{
horizontal = 1;
place = (0, 41);
place = (0, 41);
type = Stem;
},
{
horizontal = 1;
place = (-2, 21);
target = up;
type = BottomGhost;
},
{
horizontal = 1;
place = (631, 40);
place = (631, 40);
type = Stem;
},
{
horizontal = 1;
place = (673, -20);
target = down;
type = TopGhost;
},
{
place = (51, 196);
place = (51, 196);
type = Stem;
},
{
place = (144, 103);
place = (144, 103);
type = Stem;
},
{
place = (621, 114);
place = (621, 114);
type = Stem;
}
);
layerId = "8832323D-7B51-42FA-AB4B-A01DBB0D4C02";
shapes = (
{
closed = 1;
nodes = (
(192,671,ls),
(150,671,o),
(83,673,o),
(60,673,cs,{
name = .hr02;
}),
(54,673,o),
(51,662,o),
(51,654,cs),
(51,646,o),
(54,639,o),
(60,639,cs),
(123,639,ls),
(132,639,o),
(144,631,o),
(144,554,cs,{
name = .hr03;
}),
(144,78,ls),
(144,43,o),
(137,32,o),
(103,32,cs),
(60,32,ls),
(55,32,o),
(52,23,o),
(52,14,cs),
(52,6,o),
(54,-2,o),
(60,-2,cs),
(92,-2,o),
(145,0,o),
(230,0,cs,{
name = .hr04;
}),
(347,0,ls),
(565,0,o),
(735,126,o),
(735,335,cs),
(735,534,o),
(578,671,o),
(328,671,c,{
name = .hr01;
})
);
},
{
closed = 1;
nodes = (
(268,40,ls),
(259,40,o),
(247,51,o),
(247,128,cs),
(247,590,ls),
(247,621,o),
(261,632,o),
(285,631,cs),
(526,616,o),
(621,489,o),
(621,310,cs),
(621,146,o),
(514,43,o),
(350,41,cs)
);
}
);
width = 761;
}
);
unicode = 68;
},
{
glyphname = Eth;
lastChange = "2023-03-28 14:40:20 +0000";
layers = (
{
hints = (
{
horizontal = 1;
place = (0, 41);
place = (0, 41);
type = Stem;
},
{
horizontal = 1;
place = (-2, 21);
target = up;
type = BottomGhost;
},
{
horizontal = 1;
place = (334, 46);
place = (334, 46);
type = Stem;
},
{
horizontal = 1;
place = (631, 40);
place = (631, 40);
type = Stem;
},
{
horizontal = 1;
place = (673, -20);
target = down;
type = TopGhost;
},
{
place = (50, 196);
place = (50, 196);
type = Stem;
},
{
place = (143, 103);
place = (143, 103);
type = Stem;
},
{
place = (620, 114);
place = (620, 114);
type = Stem;
}
);
layerId = "8832323D-7B51-42FA-AB4B-A01DBB0D4C02";
shapes = (
{
closed = 1;
nodes = (
(191,671,ls),
(149,671,o),
(82,673,o),
(59,673,cs,{
name = .hr02;
}),
(53,673,o),
(50,662,o),
(50,654,cs),
(50,646,o),
(53,639,o),
(59,639,cs),
(122,639,ls),
(131,639,o),
(143,631,o),
(143,554,cs,{
name = .hr03;
}),
(143,379,l),
(68,379,l),
(68,379,o),
(67,335,o),
(105,335,cs),
(143,335,l),
(143,78,ls),
(143,43,o),
(136,32,o),
(102,32,cs),
(59,32,ls),
(54,32,o),
(51,23,o),
(51,14,cs),
(51,6,o),
(53,-2,o),
(59,-2,cs),
(91,-2,o),
(144,0,o),
(229,0,cs,{
name = .hr04;
}),
(346,0,ls),
(564,0,o),
(734,126,o),
(734,335,cs),
(734,534,o),
(577,671,o),
(327,671,c,{
name = .hr01;
})
);
},
{
closed = 1;
nodes = (
(375,383,o),
(315,381,o),
(246,380,c),
(246,590,ls),
(246,621,o),
(260,632,o),
(284,631,cs),
(525,616,o),
(620,489,o),
(620,310,cs),
(620,146,o),
(513,43,o),
(349,41,cs),
(267,40,ls),
(258,40,o),
(246,51,o),
(246,128,cs),
(246,334,l),
(422,334,l),
(425,368,o),
(410,383,o),
(375,383,c)
);
}
);
width = 780;
}
);
unicode = 208;
},
{
glyphname = E;
lastChange = "2023-03-28 14:40:20 +0000";
layers = (
{
anchors = (
{
name = bottom;
pos = (307,0);
},
{
name = ogonek;
pos = (500,0);
},
{
name = top;
pos = (307,675);
},
{
name = topleft;
pos = (20,675);
}
);
hints = (
{
horizontal = 1;
place = (-29, 21);
target = up;
type = BottomGhost;
},
{
horizontal = 1;
place = (0, 40);
place = (0, 40);
type = Stem;
},
{
horizontal = 1;
place = (-2, 21);
target = up;
type = BottomGhost;
},
{
horizontal = 1;
place = (320, 32);
place = (320, 32);
type = Stem;
},
{
horizontal = 1;
place = (634, 37);
place = (634, 37);
type = Stem;
},
{
horizontal = 1;
place = (701, -20);
target = down;
type = TopGhost;
},
{
place = (56, 190);
place = (56, 190);
type = Stem;
},
{
place = (143, 103);
place = (143, 103);
type = Stem;
}
);
layerId = "8832323D-7B51-42FA-AB4B-A01DBB0D4C02";
shapes = (
{
closed = 1;
nodes = (
(246,588,ls,{
name = .hr01;
}),
(246,620,o),
(252,632,o),
(279,634,c),
(365,633,o),
(414,626,o),
(449,613,c),
(472,602,o),
(480,568,o),
(487,540,cs),
(488,535,o),
(497,532,o),
(505,532,cs),
(513,532,o),
(521,535,o),
(519,540,c),
(511,582,o),
(509,642,o),
(509,692,cs),
(509,698,o),
(502,701,o),
(495,701,cs),
(488,701,o),
(480,698,o),
(480,692,cs),
(480,671,l),
(190,671,ls),
(139,671,o),
(99,673,o),
(64,673,cs),
(57,673,o),
(56,665,o),
(56,659,cs),
(56,647,o),
(59,640,o),
(64,640,cs),
(122,640,ls),
(131,640,o),
(143,629,o),
(143,552,cs,{
name = .hr02;
}),
(143,78,ls),
(143,43,o),
(136,32,o),
(102,32,cs),
(59,32,ls),
(54,32,o),
(51,23,o),
(51,14,cs),
(51,6,o),
(53,-2,o),
(59,-2,cs),
(88,-2,o),
(112,0,o),
(283,0,cs,{
name = .hr03;
}),
(530,0,l),
(530,-22,ls),
(530,-27,o),
(538,-29,o),
(546,-29,cs),
(554,-29,o),
(561,-27,o),
(561,-22,cs),
(561,29,o),
(563,87,o),
(570,137,cs),
(571,143,o),
(564,145,o),
(556,145,cs),
(547,145,o),
(538,142,o),
(537,137,cs),
(530,82,l),
(493,56,o),
(405,41,o),
(318,40,c),
(267,40,ls),
(258,40,o),
(246,51,o),
(246,128,cs),
(246,320,l),
(336,318,o),
(423,309,o),
(430,305,c),
(441,245,l),
(441,241,o),
(447,239,o),
(454,239,cs),
(463,239,o),
(473,242,o),
(472,247,cs),
(468,278,o),
(467,310,o),
(467,339,cs),
(467,369,o),
(468,392,o),
(472,423,cs),
(473,429,o),
(465,432,o),
(457,432,cs),
(449,432,o),
(442,430,o),
(441,425,cs),
(431,366,l),
(425,362,o),
(333,354,o),
(246,352,c)
);
}
);
width = 614;
}
);
unicode = 69;
},
{
glyphname = F;
lastChange = "2023-03-28 14:40:20 +0000";
layers = (
{
hints = (
{
horizontal = 1;
place = (1, 31);
place = (1, 31);
type = Stem;
},
{
horizontal = 1;
place = (-2, 21);
target = up;
type = BottomGhost;
},
{
horizontal = 1;
place = (0, 21);
target = up;
type = BottomGhost;
},
{
horizontal = 1;
place = (316, 32);
place = (316, 32);
type = Stem;
},
{
horizontal = 1;
place = (634, 37);
place = (634, 37);
type = Stem;
},
{
horizontal = 1;
place = (701, -20);
target = down;
type = TopGhost;
},
{
place = (56, 190);
place = (56, 190);
type = Stem;
},
{
place = (143, 103);
place = (143, 103);
type = Stem;
}
);
layerId = "8832323D-7B51-42FA-AB4B-A01DBB0D4C02";
shapes = (
{
closed = 1;
nodes = (
(246,316,l,{
name = .hr01;
}),
(336,314,o),
(429,305,o),
(436,301,c),
(447,241,l),
(447,237,o),
(453,235,o),
(460,235,cs),
(469,235,o),
(479,238,o),
(478,243,cs),
(474,274,o),
(473,306,o),
(473,335,cs),
(473,365,o),
(474,388,o),
(478,419,cs),
(479,425,o),
(471,428,o),
(463,428,cs),
(455,428,o),
(448,426,o),
(447,421,cs),
(437,362,l),
(431,358,o),
(333,350,o),
(246,348,c),
(246,588,ls),
(246,624,o),
(255,632,o),
(279,634,c),
(366,633,o),
(420,626,o),
(455,613,c),
(478,602,o),
(486,568,o),
(493,540,cs),
(494,535,o),
(503,532,o),
(511,532,cs),
(519,532,o),
(527,535,o),
(525,540,c),
(517,582,o),
(515,642,o),
(515,692,cs),
(515,698,o),
(508,701,o),
(501,701,cs),
(494,701,o),
(486,698,o),
(486,692,cs),
(486,671,l),
(190,671,ls),
(143,671,o),
(102,673,o),
(64,673,cs),
(57,673,o),
(56,665,o),
(56,659,cs),
(56,647,o),
(59,640,o),
(64,640,cs),
(122,640,ls),
(131,640,o),
(143,629,o),
(143,552,cs,{
name = .hr02;
}),
(143,78,ls),
(143,43,o),
(136,32,o),
(102,32,cs),
(59,32,ls),
(54,32,o),
(51,23,o),
(51,14,cs),
(51,6,o),
(53,-2,o),
(59,-2,cs,{
name = .hr03;
}),
(91,-2,o),
(114,1,o),
(199,1,cs,{
name = .hr04;
}),
(239,1,o),
(283,0,o),
(325,0,cs,{
name = .hr05;
}),
(332,0,o),
(333,8,o),
(333,14,cs),
(333,26,o),
(330,40,o),
(325,40,cs),
(267,40,ls),
(258,40,o),
(246,51,o),
(246,128,cs)
);
}
);
width = 551;
}
);
unicode = 70;
},
{
glyphname = G;
lastChange = "2023-03-28 14:40:20 +0000";
layers = (
{
anchors = (
{
name = bottom;
pos = (441,0);
},
{
name = top;
pos = (444,675);
}
);
hints = (
{
horizontal = 1;
place = (-47, 21);
target = up;
type = BottomGhost;
},
{
horizontal = 1;
place = (-13, 45);
place = (-13, 45);
type = Stem;
},
{
horizontal = 1;
place = (254, 32);
place = (254, 32);
type = Stem;
},
{
horizontal = 1;
place = (639, 44);
place = (639, 44);
type = Stem;
},
{
place = (46, 124);
place = (46, 124);
type = Stem;
},
{
place = (571, 115);
place = (571, 115);
type = Stem;
}
);
layerId = "8832323D-7B51-42FA-AB4B-A01DBB0D4C02";
shapes = (
{
closed = 1;
nodes = (
(686,244,o),
(693,255,o),
(727,255,cs),
(758,255,ls),
(763,255,o),
(766,264,o),
(766,273,cs),
(766,281,o),
(764,289,o),
(758,289,cs),
(726,289,o),
(703,286,o),
(618,286,cs),
(578,286,o),
(486,287,o),
(444,287,cs),
(437,287,o),
(436,279,o),
(436,273,cs),
(436,261,o),
(439,254,o),
(444,254,cs),
(550,254,ls),
(559,254,o),
(571,243,o),
(571,166,cs),
(571,74,l),
(542,44,o),
(495,32,o),
(451,32,cs),
(298,32,o),
(170,135,o),
(170,336,cs),
(170,533,o),
(291,639,o),
(435,639,cs),
(502,639,o),
(562,611,o),
(618,560,c),
(625,516,ls),
(626,510,o),
(633,507,o),
(641,507,cs),
(649,507,o),
(658,511,o),
(657,517,cs),
(650,564,o),
(648,618,o),
(648,668,cs),
(648,674,o),
(640,677,o),
(633,677,cs),
(626,677,o),
(619,674,o),
(619,668,cs),
(619,647,l),
(564,669,o),
(526,683,o),
(457,683,cs),
(247,683,o),
(46,553,o),
(46,312,cs),
(46,101,o),
(224,-13,o),
(445,-13,cs),
(499,-13,o),
(576,0,o),
(638,27,c),
(663,27,o),
(670,-47,o),
(685,-47,cs),
(698,-47,o),
(701,-41,o),
(701,-35,cs),
(701,-11,o),
(686,5,o),
(686,209,cs)
);
}
);
width = 767;
}
);
unicode = 71;
},
{
glyphname = H;
lastChange = "2023-03-28 14:40:20 +0000";
layers = (
{
anchors = (
{
name = bottom;
pos = (423,0);
},
{
name = center;
pos = (423,351);
},
{
name = top;
pos = (423,675);
},
{
name = topleft;
pos = (20,675);
}
);
hints = (
{
horizontal = 1;
place = (1, 31);
place = (1, 31);
type = Stem;
},
{
horizontal = 1;
place = (-2, 21);
target = up;
type = BottomGhost;
},
{
horizontal = 1;
place = (0, 21);
target = up;
type = BottomGhost;
},
{
horizontal = 1;
place = (314, 41);
place = (314, 41);
type = Stem;
},
{
horizontal = 1;
place = (641, 31);
place = (641, 31);
type = Stem;
},
{
horizontal = 1;
place = (675, -20);
target = down;
type = TopGhost;
},
{
place = (56, 190);
place = (56, 190);
type = Stem;
},
{
place = (143, 103);
place = (143, 103);
type = Stem;
},
{
place = (143, 195);
place = (143, 195);
type = Stem;
},
{
place = (516, 190);
place = (516, 190);
type = Stem;
},
{
place = (603, 103);
place = (603, 103);
type = Stem;
},
{
place = (603, 195);
place = (603, 195);
type = Stem;
}
);
layerId = "8832323D-7B51-42FA-AB4B-A01DBB0D4C02";
shapes = (
{
closed = 1;
nodes = (
(706,595,ls,{
name = .hr01;
}),
(706,630,o),
(713,641,o),
(747,641,cs),
(790,641,ls),
(795,641,o),
(798,650,o),
(798,659,cs,{
name = .hr02;
}),
(798,667,o),
(796,675,o),
(790,675,cs),
(758,675,o),
(735,672,o),
(650,672,cs,{
name = .hr03;
}),
(610,672,o),
(566,673,o),
(524,673,cs),
(517,673,o),
(516,665,o),
(516,659,cs),
(516,647,o),
(519,640,o),
(524,640,cs),
(582,640,ls),
(591,640,o),
(603,629,o),
(603,552,cs,{
name = .hr04;
}),
(603,355,l),
(246,355,l),
(246,595,ls),
(246,630,o),
(253,641,o),
(287,641,cs),
(330,641,ls),
(335,641,o),
(338,650,o),
(338,659,cs,{
name = .hr05;
}),
(338,667,o),
(336,675,o),
(330,675,cs),
(298,675,o),
(275,672,o),
(190,672,cs,{
name = .hr06;
}),
(150,672,o),
(106,673,o),
(64,673,cs),
(57,673,o),
(56,665,o),
(56,659,cs),
(56,647,o),
(59,640,o),
(64,640,cs),
(122,640,ls),
(131,640,o),
(143,629,o),
(143,552,cs,{
name = .hr07;
}),
(143,78,ls),
(143,43,o),
(136,32,o),
(102,32,cs),
(59,32,ls),
(54,32,o),
(51,23,o),
(51,14,cs),
(51,6,o),
(53,-2,o),
(59,-2,cs,{
name = .hr08;
}),
(91,-2,o),
(114,1,o),
(199,1,cs,{
name = .hr09;
}),
(239,1,o),
(283,0,o),
(325,0,cs,{
name = .hr10;
}),
(332,0,o),
(333,8,o),
(333,14,cs),
(333,26,o),
(330,33,o),
(325,33,cs),
(267,33,ls),
(258,33,o),
(246,44,o),
(246,121,cs),
(246,314,l),
(603,314,l),
(603,78,ls),
(603,43,o),
(596,32,o),
(562,32,cs,{
name = .hr11;
}),
(519,32,ls),
(514,32,o),
(511,23,o),
(511,14,cs),
(511,6,o),
(513,-2,o),
(519,-2,cs,{
name = .hr12;
}),
(551,-2,o),
(574,1,o),
(659,1,cs,{
name = .hr13;
}),
(699,1,o),
(743,0,o),
(785,0,cs,{
name = .hr14;
}),
(792,0,o),
(793,8,o),
(793,14,cs),
(793,26,o),
(790,33,o),
(785,33,cs),
(727,33,ls),
(718,33,o),
(706,44,o),
(706,121,cs)
);
}
);
width = 845;
}
);
unicode = 72;
},
{
glyphname = Hbar;
lastChange = "2023-03-28 14:42:51 +0000";
layers = (
{
layerId = "8832323D-7B51-42FA-AB4B-A01DBB0D4C02";
shapes = (
{
closed = 1;
nodes = (
(706,595,ls,{
name = .hr01;
}),
(706,630,o),
(713,641,o),
(747,641,cs),
(790,641,ls),
(795,641,o),
(798,650,o),
(798,659,cs,{
name = .hr02;
}),
(798,667,o),
(796,675,o),
(790,675,cs),
(758,675,o),
(735,672,o),
(650,672,cs,{
name = .hr03;
}),
(610,672,o),
(566,673,o),
(524,673,cs),
(517,673,o),
(516,665,o),
(516,659,cs),
(516,647,o),
(519,640,o),
(524,640,cs),
(582,640,ls),
(591,640,o),
(603,629,o),
(603,552,cs,{
name = .hr04;
}),
(603,355,l),
(246,355,l),
(246,595,ls),
(246,630,o),
(253,641,o),
(287,641,cs),
(330,641,ls),
(335,641,o),
(338,650,o),
(338,659,cs,{
name = .hr05;
}),
(338,667,o),
(336,675,o),
(330,675,cs),
(298,675,o),
(275,672,o),
(190,672,cs,{
name = .hr06;
}),
(150,672,o),
(106,673,o),
(64,673,cs),
(57,673,o),
(56,665,o),
(56,659,cs),
(56,647,o),
(59,640,o),
(64,640,cs),
(122,640,ls),
(131,640,o),
(143,629,o),
(143,552,cs,{
name = .hr07;
}),
(143,78,ls),
(143,43,o),
(136,32,o),
(102,32,cs),
(59,32,ls),
(54,32,o),
(51,23,o),
(51,14,cs),
(51,6,o),
(53,-2,o),
(59,-2,cs,{
name = .hr08;
}),
(91,-2,o),
(114,1,o),
(199,1,cs,{
name = .hr09;
}),
(239,1,o),
(283,0,o),
(325,0,cs,{
name = .hr10;
}),
(332,0,o),
(333,8,o),
(333,14,cs),
(333,26,o),
(330,33,o),
(325,33,cs),
(267,33,ls),
(258,33,o),
(246,44,o),
(246,121,cs),
(246,314,l),
(603,314,l),
(603,78,ls),
(603,43,o),
(596,32,o),
(562,32,cs,{
name = .hr11;
}),
(519,32,ls),
(514,32,o),
(511,23,o),
(511,14,cs),
(511,6,o),
(513,-2,o),
(519,-2,cs,{
name = .hr12;
}),
(551,-2,o),
(574,1,o),
(659,1,cs,{
name = .hr13;
}),
(699,1,o),
(743,0,o),
(785,0,cs,{
name = .hr14;
}),
(792,0,o),
(793,8,o),
(793,14,cs),
(793,26,o),
(790,33,o),
(785,33,cs),
(727,33,ls),
(718,33,o),
(706,44,o),
(706,121,cs)
);
},
{
closed = 1;
nodes = (
(746,517,o),
(156,512,o),
(65,512,c,{
name = .hr02;
}),
(65,512,o),
(64,471,o),
(102,471,cs),
(793,471,l),
(796,505,o),
(781,517,o),
(746,517,c,{
name = .hr01;
})
);
}
);
width = 845;
}
);
metricLeft = H;
metricRight = H;
unicode = 294;
},
{
glyphname = I;
lastChange = "2023-03-28 14:42:08 +0000";
layers = (
{
anchors = (
{
name = bottom;
pos = (192,2);
},
{
name = ogonek;
pos = (255,0);
},
{
name = top;
pos = (192,675);
},
{
name = topleft;
pos = (20,675);
}
);
hints = (
{
horizontal = 1;
place = (1, 31);
place = (1, 31);
type = Stem;
},
{
horizontal = 1;
place = (-2, 21);
target = up;
type = BottomGhost;
},
{
horizontal = 1;
place = (0, 21);
target = up;
type = BottomGhost;
},
{
horizontal = 1;
place = (641, 31);
place = (641, 31);
type = Stem;
},
{
horizontal = 1;
place = (675, -20);
target = down;
type = TopGhost;
},
{
place = (56, 190);
place = (56, 190);
type = Stem;
},
{
place = (143, 103);
place = (143, 103);
type = Stem;
},
{
place = (143, 195);
place = (143, 195);
type = Stem;
}
);
layerId = "8832323D-7B51-42FA-AB4B-A01DBB0D4C02";
shapes = (
{
closed = 1;
nodes = (
(246,595,ls,{
name = .hr01;
}),
(246,630,o),
(253,641,o),
(287,641,cs),
(330,641,ls),
(335,641,o),
(338,650,o),
(338,659,cs,{
name = .hr02;
}),
(338,667,o),
(336,675,o),
(330,675,cs),
(298,675,o),
(275,672,o),
(190,672,cs,{
name = .hr03;
}),
(150,672,o),
(106,673,o),
(64,673,cs),
(57,673,o),
(56,665,o),
(56,659,cs),
(56,647,o),
(59,640,o),
(64,640,cs),
(122,640,ls),
(131,640,o),
(143,629,o),
(143,552,cs,{
name = .hr04;
}),
(143,78,ls),
(143,43,o),
(136,32,o),
(102,32,cs),
(59,32,ls),
(54,32,o),
(51,23,o),
(51,14,cs),
(51,6,o),
(53,-2,o),
(59,-2,cs,{
name = .hr05;
}),
(91,-2,o),
(114,1,o),
(199,1,cs,{
name = .hr06;
}),
(239,1,o),
(283,0,o),
(325,0,cs,{
name = .hr07;
}),
(332,0,o),
(333,8,o),
(333,14,cs),
(333,26,o),
(330,33,o),
(325,33,cs),
(267,33,ls),
(258,33,o),
(246,44,o),
(246,121,cs)
);
}
);
width = 384;
}
);
unicode = 73;
},
{
glyphname = J;
lastChange = "2023-03-28 14:40:20 +0000";
layers = (
{
hints = (
{
horizontal = 1;
place = (-273, 65);
place = (-273, 65);
type = Stem;
},
{
horizontal = 1;
place = (641, 31);
place = (641, 31);
type = Stem;
},
{
horizontal = 1;
place = (675, -20);
target = down;
type = TopGhost;
},
{
place = (152, 103);
place = (152, 103);
type = Stem;
}
);
layerId = "8832323D-7B51-42FA-AB4B-A01DBB0D4C02";
shapes = (
{
closed = 1;
nodes = (
(152,123,ls,{
name = .hr01;
}),
(152,59,o),
(149,-121,o),
(122,-177,cs),
(113,-195,o),
(99,-208,o),
(74,-208,cs),
(50,-208,o),
(7,-200,o),
(-22,-182,c),
(-50,-193,o),
(-66,-214,o),
(-66,-237,cs),
(-66,-268,o),
(-27,-273,o),
(-13,-273,cs),
(99,-273,o),
(187,-197,o),
(228,-101,c),
(250,-45,o),
(255,37,o),
(255,132,cs),
(255,595,ls),
(255,630,o),
(262,641,o),
(296,641,cs),
(339,641,ls),
(344,641,o),
(347,650,o),
(347,659,cs),
(347,667,o),
(345,675,o),
(339,675,cs,{
name = .hr02;
}),
(307,675,o),
(284,672,o),
(199,672,cs,{
name = .hr03;
}),
(159,672,o),
(115,673,o),
(73,673,cs),
(66,673,o),
(65,665,o),
(65,659,cs),
(65,647,o),
(68,640,o),
(73,640,cs),
(131,640,ls),
(140,640,o),
(152,629,o),
(152,552,cs)
);
}
);
width = 366;
}
);
unicode = 74;
},
{
glyphname = K;
lastChange = "2023-03-28 14:43:06 +0000";
layers = (
{
anchors = (
{
name = bottom;
pos = (396,0);
},
{
name = top;
pos = (396,675);
}
);
hints = (
{
horizontal = 1;
place = (1, 31);
place = (1, 31);
type = Stem;
},
{
horizontal = 1;
place = (-2, 21);
target = up;
type = BottomGhost;
},
{
horizontal = 1;
place = (0, 21);
target = up;
type = BottomGhost;
},
{
horizontal = 1;
place = (641, 31);
place = (641, 31);
type = Stem;
},
{
horizontal = 1;
place = (675, -20);
target = down;
type = TopGhost;
},
{
place = (56, 190);
place = (56, 190);
type = Stem;
},
{
place = (143, 103);
place = (143, 103);
type = Stem;
},
{
place = (338, 176);
place = (338, 176);
type = Stem;
}
);
layerId = "8832323D-7B51-42FA-AB4B-A01DBB0D4C02";
shapes = (
{
closed = 1;
nodes = (
(246,595,ls,{
name = .hr01;
}),
(246,630,o),
(253,641,o),
(287,641,cs),
(330,641,ls),
(335,641,o),
(338,650,o),
(338,659,cs),
(338,667,o),
(336,675,o),
(330,675,cs,{
name = .hr02;
}),
(298,675,o),
(275,672,o),
(190,672,cs,{
name = .hr03;
}),
(150,672,o),
(106,673,o),
(64,673,cs),
(57,673,o),
(56,665,o),
(56,659,cs),
(56,647,o),
(59,640,o),
(64,640,cs),
(122,640,ls),
(131,640,o),
(143,629,o),
(143,552,cs,{
name = .hr04;
}),
(143,78,ls),
(143,43,o),
(136,32,o),
(102,32,cs),
(59,32,ls),
(54,32,o),
(51,23,o),
(51,14,cs),
(51,6,o),
(53,-2,o),
(59,-2,cs,{
name = .hr05;
}),
(91,-2,o),
(114,1,o),
(199,1,cs,{
name = .hr06;
}),
(239,1,o),
(283,0,o),
(325,0,cs,{
name = .hr07;
}),
(332,0,o),
(333,8,o),
(333,14,cs),
(333,26,o),
(330,33,o),
(325,33,cs),
(267,33,ls),
(258,33,o),
(246,44,o),
(246,121,cs),
(246,327,l),
(284,327,l),
(361,248,o),
(472,128,o),
(528,68,cs),
(535,61,o),
(539,53,o),
(539,47,cs),
(539,38,o),
(530,32,o),
(514,32,cs,{
name = .hr08;
}),
(498,32,ls),
(493,32,o),
(489,24,o),
(489,17,cs),
(489,8,o),
(491,-2,o),
(498,-2,cs,{
name = .hr09;
}),
(535,-2,o),
(610,1,o),
(656,1,cs,{
name = .hr10;
}),
(677,1,o),
(724,0,o),
(752,0,cs,{
name = .hr11;
}),
(759,0,o),
(763,9,o),
(763,18,cs),
(763,26,o),
(757,37,o),
(750,40,c),
(712,40,ls),
(695,40,o),
(655,77,o),
(580,153,cs),
(357,379,l),
(357,383,l),
(396,415,o),
(498,505,o),
(567,572,cs),
(620,623,o),
(640,640,o),
(650,640,cs),
(686,640,ls),
(691,640,o),
(695,648,o),
(695,656,cs),
(695,664,o),
(692,673,o),
(687,673,cs),
(658,673,o),
(602,671,o),
(578,671,cs),
(545,671,o),
(498,673,o),
(470,673,cs),
(466,673,o),
(463,664,o),
(463,656,cs),
(463,647,o),
(467,641,o),
(470,641,cs),
(498,641,ls),
(510,641,o),
(514,634,o),
(514,624,cs),
(514,603,o),
(466,544,o),
(279,364,c),
(246,364,l)
);
}
);
width = 712;
}
);
unicode = 75;
},
{
glyphname = L;
lastChange = "2023-03-28 14:45:04 +0000";
layers = (
{
anchors = (
{
name = bottom;
pos = (319,0);
},
{
name = center;
pos = (389,338);
},
{
name = top;
pos = (196,675);
},
{
name = topright;
pos = (427,675);
}
);
hints = (
{
horizontal = 1;
place = (-29, 21);
target = up;
type = BottomGhost;
},
{
horizontal = 1;
place = (0, 40);
place = (0, 40);
type = Stem;
},
{
horizontal = 1;
place = (-2, 21);
target = up;
type = BottomGhost;
},
{
horizontal = 1;
place = (641, 31);
place = (641, 31);
type = Stem;
},
{
horizontal = 1;
place = (675, -20);
target = down;
type = TopGhost;
},
{
place = (56, 190);
place = (56, 190);
type = Stem;
},
{
place = (143, 103);
place = (143, 103);
type = Stem;
}
);
layerId = "8832323D-7B51-42FA-AB4B-A01DBB0D4C02";
shapes = (
{
closed = 1;
nodes = (
(246,595,ls,{
name = .hr01;
}),
(246,630,o),
(253,641,o),
(287,641,cs),
(330,641,ls),
(335,641,o),
(338,650,o),
(338,659,cs),
(338,667,o),
(336,675,o),
(330,675,cs,{
name = .hr02;
}),
(298,675,o),
(275,672,o),
(190,672,cs,{
name = .hr03;
}),
(150,672,o),
(106,673,o),
(64,673,cs),
(57,673,o),
(56,665,o),
(56,659,cs),
(56,647,o),
(59,640,o),
(64,640,cs),
(122,640,ls),
(131,640,o),
(143,629,o),
(143,552,cs,{
name = .hr04;
}),
(143,78,ls),
(143,43,o),
(136,32,o),
(102,32,cs),
(59,32,ls),
(54,32,o),
(51,23,o),
(51,14,cs),
(51,6,o),
(53,-2,o),
(59,-2,cs),
(91,-2,o),
(114,0,o),
(199,0,cs,{
name = .hr05;
}),
(524,0,l),
(524,-22,ls),
(524,-27,o),
(532,-29,o),
(540,-29,cs),
(548,-29,o),
(555,-27,o),
(555,-22,cs),
(555,29,o),
(557,87,o),
(564,137,cs),
(565,143,o),
(558,145,o),
(550,145,cs),
(541,145,o),
(532,142,o),
(531,137,cs),
(524,82,l),
(485,55,o),
(396,40,o),
(304,40,cs),
(246,40,l)
);
}
);
width = 577;
}
);
unicode = 76;
},
{
glyphname = Lslash;
lastChange = "2023-03-28 14:40:20 +0000";
layers = (
{
hints = (
{
horizontal = 1;
place = (-29, 21);
target = up;
type = BottomGhost;
},
{
horizontal = 1;
place = (0, 40);
place = (0, 40);
type = Stem;
},
{
horizontal = 1;
place = (-2, 21);
target = up;
type = BottomGhost;
},
{
horizontal = 1;
place = (641, 31);
place = (641, 31);
type = Stem;
},
{
horizontal = 1;
place = (675, -20);
target = down;
type = TopGhost;
},
{
place = (97, 190);
place = (97, 190);
type = Stem;
},
{
place = (184, 103);
place = (184, 103);
type = Stem;
}
);
layerId = "8832323D-7B51-42FA-AB4B-A01DBB0D4C02";
shapes = (
{
closed = 1;
nodes = (
(287,595,ls,{
name = .hr01;
}),
(287,630,o),
(294,641,o),
(328,641,cs),
(371,641,ls),
(376,641,o),
(379,650,o),
(379,659,cs),
(379,667,o),
(377,675,o),
(371,675,cs,{
name = .hr02;
}),
(339,675,o),
(316,672,o),
(231,672,cs,{
name = .hr03;
}),
(191,672,o),
(147,673,o),
(105,673,cs),
(98,673,o),
(97,665,o),
(97,659,cs),
(97,647,o),
(100,640,o),
(105,640,cs),
(163,640,ls),
(172,640,o),
(184,629,o),
(184,552,cs,{
name = .hr04;
}),
(184,308,l),
(168,300,o),
(86,256,o),
(70,245,c),
(55,237,o),
(64,197,o),
(77,202,c),
(87,209,o),
(157,256,o),
(184,273,c),
(184,78,ls),
(184,43,o),
(177,32,o),
(143,32,cs),
(100,32,ls),
(95,32,o),
(92,23,o),
(92,14,cs),
(92,6,o),
(94,-2,o),
(100,-2,cs),
(132,-2,o),
(155,0,o),
(240,0,cs,{
name = .hr05;
}),
(565,0,l),
(565,-22,ls),
(565,-27,o),
(573,-29,o),
(581,-29,cs),
(589,-29,o),
(596,-27,o),
(596,-22,cs),
(596,29,o),
(598,87,o),
(605,137,cs),
(606,143,o),
(599,145,o),
(591,145,cs),
(582,145,o),
(573,142,o),
(572,137,cs),
(565,82,l),
(526,55,o),
(437,40,o),
(345,40,cs),
(287,40,l),
(287,333,l),
(404,413,ls),
(421,425,o),
(412,460,o),
(403,454,cs),
(287,370,l)
);
}
);
width = 618;
}
);
unicode = 321;
},
{
glyphname = M;
lastChange = "2023-03-28 14:40:20 +0000";
layers = (
{
hints = (
{
horizontal = 1;
place = (1, 31);
place = (1, 31);
type = Stem;
},
{
horizontal = 1;
place = (-2, 21);
target = up;
type = BottomGhost;
},
{
horizontal = 1;
place = (0, 21);
target = up;
type = BottomGhost;
},
{
horizontal = 1;
place = (641, 30);
place = (641, 30);
type = Stem;
},
{
horizontal = 1;
place = (673, -20);
target = down;
type = TopGhost;
},
{
horizontal = 1;
place = (674, -20);
target = down;
type = TopGhost;
},
{
place = (169, 50);
place = (169, 50);
type = Stem;
}
);
layerId = "8832323D-7B51-42FA-AB4B-A01DBB0D4C02";
shapes = (
{
closed = 1;
nodes = (
(515,98,o),
(653,423,o),
(702,531,c),
(706,531,l),
(707,459,o),
(735,127,o),
(739,64,cs),
(741,42,o),
(730,32,o),
(705,32,cs),
(667,32,ls),
(661,32,o),
(659,24,o),
(659,16,cs),
(659,8,o),
(661,-2,o),
(667,-2,cs,{
name = .hr02;
}),
(687,-2,o),
(764,1,o),
(798,1,cs,{
name = .hr03;
}),
(824,1,o),
(897,0,o),
(929,0,cs,{
name = .hr04;
}),
(936,0,o),
(940,8,o),
(940,17,cs),
(940,25,o),
(936,33,o),
(929,33,cs),
(866,33,ls),
(852,33,o),
(846,63,o),
(843,91,cs),
(826,233,o),
(794,564,o),
(793,592,cs),
(792,625,o),
(798,641,o),
(824,641,cs),
(862,641,ls),
(868,641,o),
(871,647,o),
(871,654,cs,{
name = .hr05;
}),
(871,662,o),
(867,674,o),
(862,674,cs),
(826,674,o),
(756,671,o),
(694,671,c,{
name = .hr06;
}),
(657,549,o),
(564,337,o),
(481,126,c),
(477,126,l),
(412,311,o),
(298,615,o),
(282,671,c),
(218,671,o),
(137,673,o),
(93,673,cs,{
name = .hr07;
}),
(88,673,o),
(85,663,o),
(85,655,cs),
(85,648,o),
(88,641,o),
(93,641,cs,{
name = .hr08;
}),
(143,641,ls),
(162,641,o),
(170,620,o),
(169,549,cs),
(168,500,o),
(129,137,o),
(116,59,cs),
(111,33,o),
(97,32,o),
(65,32,cs),
(32,32,ls),
(26,32,o),
(23,23,o),
(23,15,cs),
(23,7,o),
(26,-2,o),
(32,-2,cs,{
name = .hr09;
}),
(53,-2,o),
(106,1,o),
(158,1,cs,{
name = .hr10;
}),
(191,1,o),
(214,0,o),
(263,0,cs,{
name = .hr11;
}),
(272,0,o),
(276,9,o),
(276,17,cs),
(276,25,o),
(272,33,o),
(263,33,cs),
(219,33,ls),
(203,33,o),
(193,53,o),
(194,123,cs),
(195,193,o),
(204,328,o),
(219,540,c),
(223,540,l),
(268,411,o),
(403,70,o),
(439,14,c),
(442,8,o),
(449,6,o),
(456,6,cs),
(463,6,o),
(470,8,o),
(474,14,c,{
name = .hr01;
})
);
}
);
width = 963;
}
);
unicode = 77;
},
{
glyphname = N;
lastChange = "2023-03-28 14:45:18 +0000";
layers = (
{
anchors = (
{
name = bottom;
pos = (410,0);
},
{
name = top;
pos = (410,675);
}
);
hints = (
{
horizontal = 1;
place = (1, 31);
place = (1, 31);
type = Stem;
},
{
horizontal = 1;
place = (-19, 21);
target = up;
type = BottomGhost;
},
{
horizontal = 1;
place = (-2, 21);
target = up;
type = BottomGhost;
},
{
horizontal = 1;
place = (0, 21);
target = up;
type = BottomGhost;
},
{
horizontal = 1;
place = (641, 33);
place = (641, 33);
type = Stem;
},
{
horizontal = 1;
place = (673, -20);
target = down;
type = TopGhost;
},
{
place = (137, 46);
place = (137, 46);
type = Stem;
},
{
place = (636, 48);
place = (636, 48);
type = Stem;
}
);
layerId = "8832323D-7B51-42FA-AB4B-A01DBB0D4C02";
shapes = (
{
closed = 1;
nodes = (
(652,-17,o),
(660,-19,o),
(668,-19,cs),
(676,-19,o),
(683,-16,o),
(684,-12,c),
(685,249,o),
(691,520,o),
(700,596,cs),
(704,629,o),
(707,641,o),
(735,641,cs),
(782,641,ls),
(788,641,o),
(791,647,o),
(791,654,cs),
(791,662,o),
(787,674,o),
(782,674,cs),
(747,674,o),
(701,671,o),
(664,671,cs),
(630,671,o),
(584,673,o),
(555,673,cs,{
name = .hr02;
}),
(550,673,o),
(546,662,o),
(546,654,cs),
(546,647,o),
(549,640,o),
(555,640,cs),
(603,640,ls),
(616,640,o),
(623,625,o),
(625,600,cs),
(633,502,o),
(633,333,o),
(636,147,c),
(632,147,l),
(574,225,o),
(218,671,o),
(218,671,c),
(176,671,o),
(72,673,o),
(37,673,cs),
(33,673,o),
(31,663,o),
(31,655,cs),
(31,648,o),
(33,641,o),
(37,641,cs,{
name = .hr03;
}),
(95,641,o),
(105,634,o),
(130,605,cs),
(137,597,l),
(137,443,o),
(129,194,o),
(117,59,cs),
(115,37,o),
(102,32,o),
(73,32,cs),
(40,32,ls),
(35,32,o),
(33,23,o),
(33,15,cs),
(33,7,o),
(35,-2,o),
(40,-2,cs,{
name = .hr04;
}),
(68,-2,o),
(114,1,o),
(159,1,cs,{
name = .hr05;
}),
(187,1,o),
(216,0,o),
(265,0,cs,{
name = .hr06;
}),
(272,0,o),
(274,7,o),
(274,15,cs),
(274,24,o),
(271,33,o),
(265,33,cs),
(210,33,ls),
(197,33,o),
(190,71,o),
(189,106,cs),
(186,200,o),
(185,347,o),
(183,539,c),
(187,539,l),
(355,335,o),
(647,-12,o),
(647,-12,c,{
name = .hr01;
})
);
}
);
width = 820;
}
);
unicode = 78;
},
{
glyphname = Eng;
lastChange = "2023-03-28 14:46:40 +0000";
layers = (
{
layerId = "8832323D-7B51-42FA-AB4B-A01DBB0D4C02";
shapes = (
{
closed = 1;
nodes = (
(685,249,o),
(691,520,o),
(700,596,cs),
(704,629,o),
(707,641,o),
(735,641,cs),
(782,641,ls),
(788,641,o),
(791,647,o),
(791,654,cs),
(791,662,o),
(787,674,o),
(782,674,cs),
(747,674,o),
(701,671,o),
(664,671,cs),
(630,671,o),
(584,673,o),
(555,673,cs,{
name = .hr02;
}),
(550,673,o),
(546,662,o),
(546,654,cs),
(546,647,o),
(549,640,o),
(555,640,cs),
(603,640,ls),
(616,640,o),
(623,625,o),
(625,600,cs),
(633,502,o),
(633,333,o),
(636,147,c),
(632,147,l),
(574,225,o),
(218,671,o),
(218,671,c),
(176,671,o),
(72,673,o),
(37,673,cs),
(33,673,o),
(31,663,o),
(31,655,cs),
(31,648,o),
(33,641,o),
(37,641,cs,{
name = .hr03;
}),
(95,641,o),
(105,634,o),
(130,605,cs),
(137,597,l),
(137,443,o),
(129,194,o),
(117,59,cs),
(115,37,o),
(102,32,o),
(73,32,cs),
(40,32,ls),
(35,32,o),
(33,23,o),
(33,15,cs),
(33,7,o),
(35,-2,o),
(40,-2,cs,{
name = .hr04;
}),
(68,-2,o),
(114,1,o),
(159,1,cs,{
name = .hr05;
}),
(187,1,o),
(216,0,o),
(265,0,cs,{
name = .hr06;
}),
(272,0,o),
(274,7,o),
(274,15,cs),
(274,24,o),
(271,33,o),
(265,33,cs),
(210,33,ls),
(197,33,o),
(190,71,o),
(189,106,cs),
(186,200,o),
(185,347,o),
(183,539,c),
(187,539,l),
(306,395,o),
(486,179,o),
(582,65,c),
(582,-33,o),
(581,-129,o),
(558,-177,cs),
(549,-195,o),
(535,-208,o),
(510,-208,cs),
(486,-208,o),
(443,-200,o),
(414,-182,c),
(386,-193,o),
(370,-214,o),
(370,-237,cs),
(370,-268,o),
(409,-273,o),
(423,-273,cs),
(535,-273,o),
(623,-197,o),
(664,-101,cs),
(681,-58,o),
(684,-23,o),
(684,-12,cs)
);
}
);
width = 820;
}
);
metricLeft = N;
metricRight = N;
unicode = 330;
},
{
glyphname = O;
lastChange = "2023-03-28 14:46:49 +0000";
layers = (
{
anchors = (
{
name = bottom;
pos = (412,0);
},
{
name = center;
pos = (412,338);
},
{
name = ogonek;
pos = (742,10);
},
{
name = top;
pos = (412,675);
},
{
name = topleft;
pos = (20,675);
},
{
name = topright;
pos = (804,675);
}
);
hints = (
{
horizontal = 1;
place = (-13, 46);
place = (-13, 46);
type = Stem;
},
{
horizontal = 1;
place = (638, 46);
place = (638, 46);
type = Stem;
},
{
place = (48, 126);
place = (48, 126);
type = Stem;
},
{
place = (650, 126);
place = (650, 126);
type = Stem;
}
);
layerId = "8832323D-7B51-42FA-AB4B-A01DBB0D4C02";
shapes = (
{
closed = 1;
nodes = (
(212,684,o),
(48,528,o),
(48,336,cs),
(48,142,o),
(212,-13,o),
(412,-13,cs),
(612,-13,o),
(776,142,o),
(776,336,cs),
(776,528,o),
(612,684,o),
(412,684,cs)
);
},
{
closed = 1;
nodes = (
(554,638,o),
(650,503,o),
(650,336,cs),
(650,167,o),
(554,33,o),
(412,33,cs),
(270,33,o),
(174,167,o),
(174,336,cs),
(174,503,o),
(270,638,o),
(412,638,cs)
);
}
);
width = 824;
}
);
unicode = 79;
},
{
glyphname = Oslash;
lastChange = "2023-03-28 14:40:20 +0000";
layers = (
{
hints = (
{
horizontal = 1;
place = (-137, 21);
target = up;
type = BottomGhost;
},
{
horizontal = 1;
place = (-13, 46);
place = (-13, 46);
type = Stem;
},
{
horizontal = 1;
place = (638, 46);
place = (638, 46);
type = Stem;
},
{
horizontal = 1;
place = (766, -20);
target = down;
type = TopGhost;
},
{
place = (48, 126);
place = (48, 126);
type = Stem;
},
{
place = (650, 126);
place = (650, 126);
type = Stem;
}
);
layerId = "8832323D-7B51-42FA-AB4B-A01DBB0D4C02";
shapes = (
{
closed = 1;
nodes = (
(696,749,l),
(696,749,o),
(682,766,o),
(666,766,cs),
(657,766,o),
(651,762,o),
(642,746,cs),
(585,641,l),
(534,668,o),
(474,684,o),
(412,684,cs),
(212,684,o),
(48,528,o),
(48,336,cs),
(48,197,o),
(132,79,o),
(252,22,c),
(176,-120,l),
(188,-132,o),
(197,-137,o),
(206,-137,cs),
(217,-137,o),
(224,-129,o),
(232,-113,cs),
(295,5,l),
(332,-7,o),
(371,-13,o),
(412,-13,cs),
(612,-13,o),
(776,142,o),
(776,336,cs),
(776,451,o),
(716,554,o),
(625,617,c)
);
},
{
closed = 1;
nodes = (
(467,638,o),
(515,617,o),
(554,582,c),
(282,78,l),
(215,131,o),
(174,226,o),
(174,336,cs),
(174,503,o),
(270,638,o),
(412,638,cs)
);
},
{
closed = 1;
nodes = (
(650,167,o),
(554,33,o),
(412,33,cs),
(379,33,o),
(349,40,o),
(321,53,c),
(587,546,l),
(627,492,o),
(650,418,o),
(650,336,cs)
);
}
);
width = 824;
}
);
unicode = 216;
},
{
glyphname = OE;
lastChange = "2023-03-28 14:40:20 +0000";
layers = (
{
hints = (
{
horizontal = 1;
place = (-13, 27);
place = (-13, 27);
type = Stem;
},
{
horizontal = 1;
place = (0, 23);
place = (0, 23);
type = Stem;
},
{
horizontal = 1;
place = (328, 27);
place = (328, 27);
type = Stem;
},
{
horizontal = 1;
place = (478, -20);
target = down;
type = TopGhost;
},
{
horizontal = 1;
place = (633, 27);
place = (633, 27);
type = Stem;
},
{
horizontal = 1;
place = (645, 27);
place = (645, 27);
type = Stem;
},
{
place = (49, 125);
place = (49, 125);
type = Stem;
},
{
place = (650, 125);
place = (650, 125);
type = Stem;
},
{
place = (967, 103);
place = (967, 103);
type = Stem;
},
{
place = (1233, 23);
place = (1233, 23);
type = Stem;
},
{
place = (1345, 23);
place = (1345, 23);
type = Stem;
}
);
layerId = "8832323D-7B51-42FA-AB4B-A01DBB0D4C02";
shapes = (
{
closed = 1;
nodes = (
(212,684,o),
(48,528,o),
(48,336,cs),
(48,142,o),
(212,-13,o),
(412,-13,cs,{
name = .hr02;
}),
(494,-13,o),
(561,9,o),
(624,51,c),
(624,51,o),
(868,45,o),
(1013,11,c),
(1011,-17,l),
(1011,-22,o),
(1019,-24,o),
(1027,-24,cs),
(1035,-24,o),
(1042,-22,o),
(1042,-17,c),
(1044,36,o),
(1050,98,o),
(1059,138,cs),
(1060,144,o),
(1053,146,o),
(1045,146,cs),
(1036,146,o),
(1027,143,o),
(1026,138,cs),
(1021,105,l),
(961,93,o),
(897,78,o),
(677,97,c),
(720,143,o),
(770,201,o),
(775,320,c),
(865,318,o),
(952,296,o),
(959,292,c),
(968,246,l),
(968,242,o),
(974,240,o),
(981,240,cs),
(990,240,o),
(1000,243,o),
(999,248,cs),
(995,279,o),
(994,311,o),
(994,340,cs),
(994,370,o),
(996,395,o),
(1000,426,cs),
(1001,432,o),
(993,435,o),
(985,435,cs),
(977,435,o),
(970,433,o),
(969,428,cs),
(959,373,l),
(953,369,o),
(863,357,o),
(776,355,c),
(772,446,o),
(716,551,o),
(635,613,c),
(734,626,o),
(943,603,o),
(993,586,c),
(993,586,o),
(1008,567,o),
(1015,546,cs),
(1019,534,o),
(1024,533,o),
(1032,533,cs),
(1040,533,o),
(1048,536,o),
(1046,541,c),
(1040,581,o),
(1031,652,o),
(1028,705,c),
(1028,711,o),
(1021,714,o),
(1014,714,cs),
(1007,714,o),
(999,714,o),
(999,708,c),
(997,673,l),
(579,645,l,{
name = .hr03;
}),
(579,645,o),
(532,684,o),
(412,684,cs,{
name = .hr01;
})
);
},
{
closed = 1;
nodes = (
(554,638,o),
(650,503,o),
(650,336,cs),
(650,167,o),
(554,33,o),
(412,33,cs),
(270,33,o),
(174,167,o),
(174,336,cs),
(174,503,o),
(270,638,o),
(412,638,cs)
);
}
);
width = 1103;
}
);
unicode = 338;
},
{
glyphname = P;
lastChange = "2023-03-28 14:40:20 +0000";
layers = (
{
hints = (
{
horizontal = 1;
place = (1, 31);
place = (1, 31);
type = Stem;
},
{
horizontal = 1;
place = (-2, 21);
target = up;
type = BottomGhost;
},
{
horizontal = 1;
place = (0, 21);
target = up;
type = BottomGhost;
},
{
horizontal = 1;
place = (307, 50);
place = (307, 50);
type = Stem;
},
{
horizontal = 1;
place = (631, 40);
place = (631, 40);
type = Stem;
},
{
horizontal = 1;
place = (673, -20);
target = down;
type = TopGhost;
},
{
place = (56, 190);
place = (56, 190);
type = Stem;
},
{
place = (143, 103);
place = (143, 103);
type = Stem;
},
{
place = (462, 108);
place = (462, 108);
type = Stem;
}
);
layerId = "8832323D-7B51-42FA-AB4B-A01DBB0D4C02";
shapes = (
{
closed = 1;
nodes = (
(246,331,l,{
name = .hr01;
}),
(285,314,o),
(321,307,o),
(353,307,cs),
(486,307,o),
(570,403,o),
(570,495,cs),
(570,585,o),
(492,671,o),
(305,671,cs),
(190,671,ls),
(161,671,o),
(119,673,o),
(64,673,cs,{
name = .hr02;
}),
(57,673,o),
(56,665,o),
(56,659,cs),
(56,647,o),
(59,640,o),
(64,640,cs),
(122,640,ls),
(131,640,o),
(143,629,o),
(143,552,cs,{
name = .hr03;
}),
(143,78,ls),
(143,43,o),
(136,32,o),
(102,32,cs),
(59,32,ls),
(54,32,o),
(51,23,o),
(51,14,cs),
(51,6,o),
(53,-2,o),
(59,-2,cs,{
name = .hr04;
}),
(91,-2,o),
(114,1,o),
(199,1,cs,{
name = .hr05;
}),
(239,1,ls),
(253,1,o),
(268,0,o),
(282,0,cs,{
name = .hr06;
}),
(325,0,ls),
(333,0,o),
(335,6,o),
(335,14,cs),
(335,23,o),
(332,33,o),
(325,33,cs),
(267,33,ls),
(258,33,o),
(246,44,o),
(246,121,cs)
);
},
{
closed = 1;
nodes = (
(462,419,o),
(406,357,o),
(299,357,cs),
(281,357,o),
(264,359,o),
(246,363,c),
(246,585,ls),
(246,621,o),
(257,631,o),
(282,631,cs),
(406,631,o),
(462,558,o),
(462,487,cs)
);
}
);
width = 597;
}
);
unicode = 80;
},
{
glyphname = Thorn;
lastChange = "2023-03-28 14:40:20 +0000";
layers = (
{
hints = (
{
horizontal = 1;
place = (1, 31);
place = (1, 31);
type = Stem;
},
{
horizontal = 1;
place = (-2, 21);
target = up;
type = BottomGhost;
},
{
horizontal = 1;
place = (0, 21);
target = up;
type = BottomGhost;
},
{
horizontal = 1;
place = (172, 50);
place = (172, 50);
type = Stem;
},
{
horizontal = 1;
place = (496, 40);
place = (496, 40);
type = Stem;
},
{
horizontal = 1;
place = (641, 31);
place = (641, 31);
type = Stem;
},
{
horizontal = 1;
place = (675, -20);
target = down;
type = TopGhost;
},
{
place = (56, 186);
place = (56, 186);
type = Stem;
},
{
place = (143, 99);
place = (143, 99);
type = Stem;
},
{
place = (143, 197);
place = (143, 197);
type = Stem;
},
{
place = (448, 108);
place = (448, 108);
type = Stem;
}
);
layerId = "8832323D-7B51-42FA-AB4B-A01DBB0D4C02";
shapes = (
{
closed = 1;
nodes = (
(263,632,o),
(268,641,o),
(302,641,cs),
(332,641,ls),
(337,641,o),
(340,650,o),
(340,659,cs),
(340,667,o),
(338,675,o),
(332,675,cs,{
name = .hr02;
}),
(300,675,o),
(275,672,o),
(190,672,cs,{
name = .hr03;
}),
(150,672,o),
(106,673,o),
(64,673,cs),
(57,673,o),
(56,665,o),
(56,659,cs),
(56,647,o),
(59,640,o),
(64,640,cs),
(122,640,ls),
(131,640,o),
(143,629,o),
(143,552,cs,{
name = .hr04;
}),
(143,78,ls),
(143,43,o),
(136,32,o),
(102,32,cs),
(59,32,ls),
(54,32,o),
(51,23,o),
(51,14,cs),
(51,6,o),
(53,-2,o),
(59,-2,cs,{
name = .hr05;
}),
(91,-2,o),
(114,1,o),
(199,1,cs,{
name = .hr06;
}),
(239,1,o),
(279,0,o),
(321,0,cs,{
name = .hr07;
}),
(328,0,o),
(329,8,o),
(329,14,cs),
(329,26,o),
(326,33,o),
(321,33,cs),
(263,33,ls),
(254,33,o),
(242,44,o),
(242,121,cs),
(242,196,l),
(282,178,o),
(324,172,o),
(353,172,cs),
(476,172,o),
(556,269,o),
(556,361,cs),
(556,451,o),
(482,536,o),
(305,536,cs),
(256,536,l),
(258,572,o),
(260,595,o),
(260,595,c,{
name = .hr01;
})
);
},
{
closed = 1;
nodes = (
(448,285,o),
(396,222,o),
(299,222,cs),
(281,222,o),
(259,224,o),
(242,228,c),
(244,321,o),
(248,408,o),
(252,477,c),
(252,490,o),
(267,496,o),
(282,496,cs),
(396,496,o),
(448,424,o),
(448,353,cs)
);
}
);
width = 583;
}
);
unicode = 222;
},
{
glyphname = Q;
lastChange = "2023-03-28 14:40:20 +0000";
layers = (
{
hints = (
{
horizontal = 1;
place = (-251, 99);
place = (-251, 99);
type = Stem;
},
{
horizontal = 1;
place = (-13, 46);
place = (-13, 46);
type = Stem;
},
{
horizontal = 1;
place = (638, 46);
place = (638, 46);
type = Stem;
},
{
place = (48, 126);
place = (48, 126);
type = Stem;
},
{
place = (650, 126);
place = (650, 126);
type = Stem;
}
);
layerId = "8832323D-7B51-42FA-AB4B-A01DBB0D4C02";
shapes = (
{
closed = 1;
nodes = (
(1022,-132,o),
(990,-152,o),
(939,-152,cs),
(777,-152,o),
(673,3,o),
(518,2,c),
(667,45,o),
(776,177,o),
(776,336,cs),
(776,528,o),
(612,684,o),
(412,684,cs),
(212,684,o),
(48,528,o),
(48,336,cs),
(48,142,o),
(212,-13,o),
(412,-13,c),
(600,-29,o),
(714,-251,o),
(901,-251,cs),
(994,-251,o),
(1051,-157,o),
(1085,-105,cs),
(1092,-94,o),
(1072,-79,o),
(1063,-89,cs)
);
},
{
closed = 1;
nodes = (
(554,638,o),
(650,503,o),
(650,336,cs),
(650,167,o),
(554,33,o),
(412,33,cs),
(270,33,o),
(174,167,o),
(174,336,cs),
(174,503,o),
(270,638,o),
(412,638,cs)
);
}
);
width = 824;
}
);
unicode = 81;
},
{
glyphname = R;
lastChange = "2023-03-28 14:51:18 +0000";
layers = (
{
anchors = (
{
name = bottom;
pos = (360,0);
},
{
name = top;
pos = (309,675);
}
);
hints = (
{
horizontal = 1;
place = (-13, 45);
place = (-13, 45);
type = Stem;
},
{
horizontal = 1;
place = (-13, 57);
place = (-13, 57);
type = Stem;
},
{
horizontal = 1;
place = (1, 31);
place = (1, 31);
type = Stem;
},
{
horizontal = 1;
place = (-2, 21);
target = up;
type = BottomGhost;
},
{
horizontal = 1;
place = (0, 21);
target = up;
type = BottomGhost;
},
{
horizontal = 1;
place = (631, 40);
place = (631, 40);
type = Stem;
},
{
horizontal = 1;
place = (673, -20);
target = down;
type = TopGhost;
},
{
place = (56, 190);
place = (56, 190);
type = Stem;
},
{
place = (143, 103);
place = (143, 103);
type = Stem;
},
{
place = (462, 108);
place = (462, 108);
type = Stem;
}
);
layerId = "8832323D-7B51-42FA-AB4B-A01DBB0D4C02";
shapes = (
{
closed = 1;
nodes = (
(492,350,o),
(570,408,o),
(570,497,cs),
(570,587,o),
(492,671,o),
(305,671,cs),
(190,671,ls),
(161,671,o),
(119,673,o),
(64,673,cs,{
name = .hr02;
}),
(57,673,o),
(56,665,o),
(56,659,cs),
(56,647,o),
(59,640,o),
(64,640,cs),
(122,640,ls),
(131,640,o),
(143,629,o),
(143,552,cs,{
name = .hr03;
}),
(143,78,ls),
(143,43,o),
(136,32,o),
(102,32,cs),
(59,32,ls),
(54,32,o),
(51,23,o),
(51,14,cs),
(51,6,o),
(53,-2,o),
(59,-2,cs,{
name = .hr04;
}),
(91,-2,o),
(114,1,o),
(199,1,cs,{
name = .hr05;
}),
(239,1,o),
(283,0,o),
(325,0,cs,{
name = .hr06;
}),
(332,0,o),
(333,8,o),
(333,14,cs),
(333,26,o),
(330,33,o),
(325,33,cs),
(267,33,ls),
(258,33,o),
(246,44,o),
(246,121,cs),
(246,326,l),
(257,324,o),
(269,322,o),
(281,321,c),
(284,319,o),
(288,317,o),
(396,329,c,{
name = .hr01;
})
);
},
{
closed = 1;
nodes = (
(462,419,o),
(406,357,o),
(299,357,cs),
(281,357,o),
(264,359,o),
(246,363,c),
(246,590,ls),
(246,617,o),
(256,631,o),
(285,631,cs),
(406,631,o),
(462,557,o),
(462,487,cs)
);
},
{
closed = 1;
nodes = (
(652,57,o),
(640,44,o),
(619,44,cs,{
name = .hr07;
}),
(507,44,o),
(510,304,o),
(345,333,c),
(281,321,l),
(395,265,o),
(423,-13,o),
(574,-13,cs),
(624,-13,o),
(662,27,o),
(683,57,cs),
(688,64,o),
(674,77,o),
(666,70,cs)
);
}
);
width = 678;
}
);
unicode = 82;
},
{
glyphname = S;
lastChange = "2023-03-28 14:47:30 +0000";
layers = (
{
anchors = (
{
name = bottom;
pos = (269,0);
},
{
name = top;
pos = (300,675);
}
);
hints = (
{
horizontal = 1;
place = (-13, 38);
place = (-13, 38);
type = Stem;
},
{
horizontal = 1;
place = (-20, 21);
target = up;
type = BottomGhost;
},
{
horizontal = 1;
place = (646, 38);
place = (646, 38);
type = Stem;
},
{
horizontal = 1;
place = (702, -20);
target = down;
type = TopGhost;
},
{
place = (46, 131);
place = (46, 131);
type = Stem;
},
{
place = (77, 100);
place = (77, 100);
type = Stem;
},
{
place = (385, 105);
place = (385, 105);
type = Stem;
}
);
layerId = "8832323D-7B51-42FA-AB4B-A01DBB0D4C02";
shapes = (
{
closed = 1;
nodes = (
(490,391,o),
(177,381,o),
(177,540,cs),
(177,587,o),
(200,646,o),
(292,646,cs),
(383,646,o),
(409,581,o),
(423,532,c),
(425,530,o),
(430,529,o),
(435,529,cs),
(444,529,o),
(454,531,o),
(456,535,c),
(454,576,o),
(445,638,o),
(429,694,cs),
(427,700,o),
(421,702,o),
(414,702,cs,{
name = .hr02;
}),
(406,702,o),
(398,699,o),
(399,692,c),
(399,689,o),
(402,673,o),
(403,669,c),
(403,669,o),
(361,684,o),
(307,684,cs,{
name = .hr03;
}),
(173,684,o),
(77,606,o),
(77,510,cs),
(77,304,o),
(385,325,o),
(385,132,cs),
(385,78,o),
(342,25,o),
(259,25,cs),
(151,25,o),
(94,125,o),
(79,176,cs),
(78,181,o),
(70,183,o),
(63,183,cs),
(54,183,o),
(46,180,o),
(46,173,c,{
name = .hr04;
}),
(50,113,o),
(68,28,o),
(85,-15,cs),
(87,-19,o),
(91,-20,o),
(96,-20,cs),
(108,-20,o),
(122,-12,o),
(118,-3,cs),
(110,17,l),
(141,3,o),
(193,-13,o),
(251,-13,cs,{
name = .hr05;
}),
(376,-13,o),
(490,60,o),
(490,171,cs,{
name = .hr01;
})
);
}
);
width = 538;
}
);
unicode = 83;
},
{
glyphname = Germandbls;
lastChange = "2023-03-28 14:53:09 +0000";
layers = (
{
layerId = "8832323D-7B51-42FA-AB4B-A01DBB0D4C02";
shapes = (
{
closed = 1;
nodes = (
(393,376,ls),
(386,362,o),
(390,353,o),
(403,351,cs),
(504,331,o),
(645,277,o),
(645,132,cs),
(645,78,o),
(612,25,o),
(549,25,cs),
(451,25,o),
(414,125,o),
(399,176,cs),
(398,181,o),
(390,183,o),
(383,183,cs),
(374,183,o),
(366,180,o),
(366,173,c,{
name = .hr04;
}),
(370,113,o),
(388,28,o),
(405,-15,cs),
(407,-19,o),
(411,-20,o),
(416,-20,cs),
(428,-20,o),
(442,-12,o),
(438,-3,cs),
(430,17,l),
(461,3,o),
(493,-13,o),
(551,-13,cs,{
name = .hr05;
}),
(636,-13,o),
(750,43,o),
(750,171,cs,{
name = .hr01;
}),
(750,351,o),
(589,397,o),
(501,411,c),
(636,647,l),
(642,651,o),
(645,655,o),
(645,660,cs),
(645,666,o),
(643,671,o),
(635,671,cs),
(190,671,ls),
(143,671,o),
(102,673,o),
(64,673,cs),
(57,673,o),
(56,665,o),
(56,659,cs),
(56,647,o),
(59,640,o),
(64,640,cs),
(122,640,ls),
(131,640,o),
(143,629,o),
(143,552,cs,{
name = .hr02;
}),
(143,78,ls),
(143,43,o),
(136,32,o),
(102,32,cs),
(59,32,ls),
(54,32,o),
(51,23,o),
(51,14,cs),
(51,6,o),
(53,-2,o),
(59,-2,cs,{
name = .hr03;
}),
(91,-2,o),
(114,1,o),
(199,1,cs,{
name = .hr04;
}),
(239,1,o),
(283,0,o),
(325,0,cs,{
name = .hr05;
}),
(332,0,o),
(333,8,o),
(333,14,cs),
(333,26,o),
(330,40,o),
(325,40,cs),
(267,40,ls),
(258,40,o),
(246,51,o),
(246,128,cs),
(246,588,ls),
(246,624,o),
(255,632,o),
(279,634,c),
(530,634,l)
);
}
);
width = 790;
}
);
unicode = 7838;
},
{
glyphname = T;
lastChange = "2023-03-28 14:53:21 +0000";
layers = (
{
anchors = (
{
name = bottom;
pos = (302,0);
},
{
name = center;
pos = (302,338);
},
{
name = top;
pos = (302,675);
}
);
hints = (
{
horizontal = 1;
place = (1, 31);
place = (1, 31);
type = Stem;
},
{
horizontal = 1;
place = (-2, 21);
target = up;
type = BottomGhost;
},
{
horizontal = 1;
place = (0, 21);
target = up;
type = BottomGhost;
},
{
horizontal = 1;
place = (531, 170);
place = (531, 170);
type = Stem;
},
{
horizontal = 1;
place = (629, 42);
place = (629, 42);
type = Stem;
},
{
place = (250, 103);
place = (250, 103);
type = Stem;
}
);
layerId = "8832323D-7B51-42FA-AB4B-A01DBB0D4C02";
shapes = (
{
closed = 1;
nodes = (
(353,583,ls,{
name = .hr01;
}),
(353,615,o),
(359,627,o),
(387,629,c),
(452,628,o),
(508,626,o),
(554,614,c),
(580,606,o),
(590,567,o),
(595,540,cs),
(596,533,o),
(603,531,o),
(610,531,cs,{
name = .hr02;
}),
(618,531,o),
(629,534,o),
(628,540,cs),
(621,581,o),
(620,641,o),
(620,692,cs),
(620,697,o),
(608,701,o),
(600,701,cs),
(594,701,o),
(588,698,o),
(588,692,cs),
(588,673,l),
(554,672,o),
(511,671,o),
(439,671,cs,{
name = .hr03;
}),
(140,671,ls),
(84,671,o),
(49,672,o),
(15,673,c),
(15,692,ls),
(15,698,o),
(9,701,o),
(3,701,cs,{
name = .hr04;
}),
(-5,701,o),
(-17,697,o),
(-17,692,cs),
(-17,641,o),
(-18,581,o),
(-25,540,cs),
(-26,534,o),
(-15,531,o),
(-7,531,cs),
(0,531,o),
(7,533,o),
(8,540,cs),
(13,567,o),
(23,606,o),
(49,614,c),
(94,625,o),
(147,629,o),
(209,629,cs,{
name = .hr05;
}),
(230,629,ls),
(242,629,o),
(250,600,o),
(250,541,cs),
(250,78,ls),
(250,43,o),
(243,32,o),
(209,32,cs),
(166,32,ls),
(161,32,o),
(158,23,o),
(158,14,cs),
(158,6,o),
(160,-2,o),
(166,-2,cs,{
name = .hr06;
}),
(198,-2,o),
(221,1,o),
(306,1,cs,{
name = .hr07;
}),
(346,1,o),
(390,0,o),
(432,0,cs,{
name = .hr08;
}),
(439,0,o),
(440,8,o),
(440,14,cs),
(440,26,o),
(437,33,o),
(432,33,cs),
(374,33,ls),
(365,33,o),
(353,44,o),
(353,121,cs)
);
}
);
width = 603;
}
);
unicode = 84;
},
{
glyphname = U;
lastChange = "2023-03-28 14:54:53 +0000";
layers = (
{
anchors = (
{
name = bottom;
pos = (391,0);
},
{
name = ogonek;
pos = (479,0);
},
{
name = top;
pos = (417,675);
},
{
name = topright;
pos = (762,675);
}
);
hints = (
{
horizontal = 1;
place = (-13, 69);
place = (-13, 69);
type = Stem;
},
{
horizontal = 1;
place = (641, 31);
place = (641, 31);
type = Stem;
},
{
horizontal = 1;
place = (675, -20);
target = down;
type = TopGhost;
},
{
place = (132, 103);
place = (132, 103);
type = Stem;
},
{
place = (601, 57);
place = (601, 57);
type = Stem;
}
);
layerId = "8832323D-7B51-42FA-AB4B-A01DBB0D4C02";
shapes = (
{
closed = 1;
nodes = (
(669,630,o),
(675,641,o),
(709,641,cs),
(739,641,ls),
(744,641,o),
(747,650,o),
(747,659,cs),
(747,667,o),
(745,675,o),
(739,675,cs,{
name = .hr02;
}),
(707,675,o),
(716,672,o),
(631,672,cs,{
name = .hr03;
}),
(589,672,o),
(558,673,o),
(518,673,cs),
(511,673,o),
(510,665,o),
(510,659,cs),
(510,647,o),
(513,640,o),
(518,640,cs),
(574,640,ls),
(583,640,o),
(593,629,o),
(596,552,cs),
(599,490,o),
(601,444,o),
(601,290,cs),
(601,132,o),
(527,56,o),
(423,56,cs),
(320,56,o),
(235,120,o),
(235,269,cs),
(235,595,ls),
(235,630,o),
(242,641,o),
(276,641,cs),
(319,641,ls),
(324,641,o),
(327,650,o),
(327,659,cs),
(327,667,o),
(325,675,o),
(319,675,cs,{
name = .hr04;
}),
(287,675,o),
(264,672,o),
(179,672,cs,{
name = .hr05;
}),
(139,672,o),
(95,673,o),
(53,673,cs),
(46,673,o),
(45,665,o),
(45,659,cs),
(45,647,o),
(48,640,o),
(53,640,cs),
(111,640,ls),
(120,640,o),
(132,629,o),
(132,552,cs),
(132,241,ls),
(132,70,o),
(263,-13,o),
(394,-13,cs),
(528,-13,o),
(658,78,o),
(658,255,cs),
(658,429,o),
(665,565,o),
(667,595,cs,{
name = .hr01;
})
);
}
);
width = 782;
}
);
unicode = 85;
},
{
glyphname = V;
lastChange = "2023-03-28 14:40:20 +0000";
layers = (
{
hints = (
{
horizontal = 1;
place = (-21, 21);
target = up;
type = BottomGhost;
},
{
horizontal = 1;
place = (642, 31);
place = (642, 31);
type = Stem;
}
);
layerId = "8832323D-7B51-42FA-AB4B-A01DBB0D4C02";
shapes = (
{
closed = 1;
nodes = (
(385,114,o),
(493,405,o),
(579,609,cs),
(587,628,o),
(596,642,o),
(615,642,cs),
(663,642,ls),
(668,642,o),
(671,647,o),
(671,655,cs),
(671,663,o),
(668,673,o),
(663,673,cs),
(642,673,o),
(577,671,o),
(551,671,cs),
(514,671,o),
(458,673,o),
(423,673,cs),
(418,673,o),
(415,662,o),
(415,654,cs),
(415,647,o),
(417,641,o),
(423,641,cs),
(489,641,ls),
(493,641,o),
(498,635,o),
(498,620,cs),
(498,612,o),
(496,601,o),
(493,587,cs),
(484,549,o),
(425,360,o),
(331,100,c),
(327,100,l),
(282,238,o),
(191,500,o),
(165,601,cs),
(158,628,o),
(160,642,o),
(184,642,cs),
(242,642,ls),
(249,642,o),
(252,647,o),
(252,654,cs),
(252,662,o),
(248,673,o),
(242,673,cs),
(211,673,o),
(114,671,o),
(91,671,cs),
(68,671,o),
(9,673,o),
(-19,673,cs),
(-23,673,o),
(-25,663,o),
(-25,655,cs),
(-25,647,o),
(-23,641,o),
(-19,641,cs),
(17,641,ls),
(26,641,o),
(39,634,o),
(46,613,cs),
(173,258,o),
(258,49,o),
(284,-12,cs),
(287,-18,o),
(296,-21,o),
(305,-21,cs),
(315,-21,o),
(325,-18,o),
(328,-12,cs)
);
}
);
width = 631;
}
);
unicode = 86;
},
{
glyphname = W;
lastChange = "2023-03-28 14:54:17 +0000";
layers = (
{
anchors = (
{
name = bottom;
pos = (508,0);
},
{
name = top;
pos = (508,675);
}
);
hints = (
{
horizontal = 1;
place = (-21, 21);
target = up;
type = BottomGhost;
},
{
horizontal = 1;
place = (642, 31);
place = (642, 31);
type = Stem;
}
);
layerId = "8832323D-7B51-42FA-AB4B-A01DBB0D4C02";
shapes = (
{
closed = 1;
nodes = (
(761,114,o),
(870,405,o),
(956,609,cs),
(964,628,o),
(973,642,o),
(992,642,cs),
(1040,642,ls),
(1045,642,o),
(1048,647,o),
(1048,655,cs),
(1048,663,o),
(1045,673,o),
(1040,673,cs),
(1019,673,o),
(954,671,o),
(928,671,cs),
(891,671,o),
(835,673,o),
(800,673,cs),
(795,673,o),
(792,662,o),
(792,654,cs),
(792,647,o),
(794,641,o),
(800,641,cs),
(866,641,ls),
(870,641,o),
(875,635,o),
(875,620,cs),
(875,612,o),
(873,601,o),
(870,587,cs),
(861,549,o),
(803,360,o),
(709,100,c),
(705,100,l),
(660,238,o),
(573,500,o),
(547,601,cs),
(540,628,o),
(542,642,o),
(566,642,cs),
(624,642,ls),
(631,642,o),
(634,647,o),
(634,654,cs),
(634,662,o),
(630,673,o),
(624,673,cs),
(593,673,o),
(496,671,o),
(473,671,cs),
(450,671,o),
(391,673,o),
(363,673,cs),
(359,673,o),
(357,663,o),
(357,655,cs),
(357,647,o),
(359,641,o),
(363,641,cs),
(399,641,ls),
(408,641,o),
(421,634,o),
(428,613,cs),
(442,573,o),
(455,536,o),
(468,500,c),
(441,413,o),
(393,272,o),
(331,100,c),
(327,100,l),
(282,238,o),
(191,500,o),
(165,601,cs),
(158,628,o),
(160,642,o),
(184,642,cs),
(242,642,ls),
(249,642,o),
(252,647,o),
(252,654,cs),
(252,662,o),
(248,673,o),
(242,673,cs),
(211,673,o),
(114,671,o),
(91,671,cs),
(68,671,o),
(9,673,o),
(-19,673,cs),
(-23,673,o),
(-25,663,o),
(-25,655,cs),
(-25,647,o),
(-23,641,o),
(-19,641,cs),
(17,641,ls),
(26,641,o),
(39,634,o),
(46,613,cs),
(173,258,o),
(258,49,o),
(284,-12,cs),
(287,-18,o),
(296,-21,o),
(305,-21,cs),
(315,-21,o),
(325,-18,o),
(328,-12,cs),
(368,77,o),
(432,255,o),
(497,422,c),
(584,182,o),
(641,37,o),
(662,-12,cs),
(665,-18,o),
(674,-21,o),
(683,-21,cs),
(693,-21,o),
(701,-18,o),
(704,-12,cs)
);
}
);
width = 1015;
}
);
unicode = 87;
},
{
glyphname = X;
lastChange = "2023-03-28 14:40:20 +0000";
layers = (
{
hints = (
{
horizontal = 1;
place = (0, 33);
place = (0, 33);
type = Stem;
},
{
horizontal = 1;
place = (-2, 21);
target = up;
type = BottomGhost;
},
{
horizontal = 1;
place = (642, 29);
place = (642, 29);
type = Stem;
},
{
horizontal = 1;
place = (673, -20);
target = down;
type = TopGhost;
}
);
layerId = "8832323D-7B51-42FA-AB4B-A01DBB0D4C02";
shapes = (
{
closed = 1;
nodes = (
(634,1,o),
(709,0,o),
(747,0,cs),
(753,0,o),
(758,9,o),
(758,18,cs),
(758,26,o),
(754,33,o),
(747,33,cs),
(698,33,ls),
(682,33,o),
(640,84,o),
(535,208,cs),
(496,255,o),
(453,306,o),
(412,357,c),
(510,466,o),
(598,562,o),
(660,614,cs),
(673,625,o),
(693,642,o),
(707,642,cs),
(754,642,ls),
(760,642,o),
(763,647,o),
(763,654,cs),
(763,662,o),
(759,673,o),
(754,673,cs,{
name = .hr02;
}),
(725,673,o),
(666,671,o),
(631,671,cs,{
name = .hr03;
}),
(604,671,o),
(550,673,o),
(515,673,cs,{
name = .hr04;
}),
(510,673,o),
(507,664,o),
(507,657,cs),
(507,649,o),
(510,641,o),
(515,641,cs),
(552,641,ls),
(555,641,o),
(557,639,o),
(557,634,cs),
(557,626,o),
(552,610,o),
(534,583,cs),
(522,565,o),
(483,513,o),
(381,395,c),
(296,504,o),
(206,618,o),
(206,632,cs),
(206,637,o),
(209,642,o),
(216,642,cs,{
name = .hr05;
}),
(264,642,ls),
(268,642,o),
(270,648,o),
(270,656,cs),
(270,664,o),
(268,673,o),
(264,673,cs,{
name = .hr06;
}),
(237,673,o),
(164,671,o),
(125,671,cs,{
name = .hr07;
}),
(91,671,o),
(26,673,o),
(-1,673,cs,{
name = .hr08;
}),
(-5,673,o),
(-7,662,o),
(-7,654,cs),
(-7,647,o),
(-5,641,o),
(-1,641,cs),
(13,641,ls),
(54,641,o),
(75,627,o),
(105,591,cs),
(116,579,o),
(218,454,o),
(318,328,c),
(199,196,o),
(112,103,o),
(57,52,cs),
(44,40,o),
(31,31,o),
(13,31,cs),
(-24,31,ls),
(-30,31,o),
(-34,22,o),
(-34,15,cs),
(-34,7,o),
(-33,-2,o),
(-24,-2,cs),
(6,-2,o),
(47,1,o),
(85,1,cs),
(144,1,o),
(182,0,o),
(219,0,cs,{
name = .hr09;
}),
(224,0,o),
(227,7,o),
(227,14,cs),
(227,22,o),
(224,30,o),
(219,30,cs),
(169,30,ls),
(157,30,o),
(189,91,o),
(244,163,cs),
(273,200,o),
(309,242,o),
(350,288,c),
(426,192,o),
(497,100,o),
(521,65,cs),
(527,57,o),
(530,50,o),
(530,44,cs),
(530,37,o),
(522,32,o),
(511,32,cs),
(477,32,ls),
(472,32,o),
(469,23,o),
(469,15,cs),
(469,7,o),
(472,-2,o),
(477,-2,cs,{
name = .hr10;
}),
(504,-2,o),
(556,1,o),
(609,1,cs,{
name = .hr01;
})
);
}
);
width = 730;
}
);
unicode = 88;
},
{
glyphname = Y;
lastChange = "2023-03-28 14:54:03 +0000";
layers = (
{
anchors = (
{
name = bottom;
pos = (311,0);
},
{
name = top;
pos = (325,675);
},
{
name = topleft;
pos = (20,675);
}
);
hints = (
{
horizontal = 1;
place = (1, 31);
place = (1, 31);
type = Stem;
},
{
horizontal = 1;
place = (-2, 21);
target = up;
type = BottomGhost;
},
{
horizontal = 1;
place = (0, 21);
target = up;
type = BottomGhost;
},
{
horizontal = 1;
place = (640, 33);
place = (640, 33);
type = Stem;
},
{
place = (256, 99);
place = (256, 99);
type = Stem;
}
);
layerId = "8832323D-7B51-42FA-AB4B-A01DBB0D4C02";
shapes = (
{
closed = 1;
nodes = (
(256,78,ls),
(256,43,o),
(249,32,o),
(215,32,cs),
(172,32,ls),
(167,32,o),
(164,23,o),
(164,14,cs),
(164,6,o),
(166,-2,o),
(172,-2,cs,{
name = .hr02;
}),
(204,-2,o),
(225,1,o),
(310,1,cs,{
name = .hr03;
}),
(349,1,o),
(392,0,o),
(434,0,cs,{
name = .hr04;
}),
(441,0,o),
(442,8,o),
(442,14,cs),
(442,26,o),
(439,33,o),
(434,33,cs),
(376,33,ls),
(367,33,o),
(355,47,o),
(355,105,cs),
(355,321,ls),
(355,370,o),
(529,554,o),
(613,624,cs),
(628,637,o),
(641,640,o),
(656,640,cs),
(681,640,ls),
(687,640,o),
(691,649,o),
(691,657,cs),
(691,664,o),
(688,673,o),
(681,673,cs),
(656,673,o),
(595,671,o),
(570,671,cs),
(538,671,o),
(477,673,o),
(452,673,cs),
(447,673,o),
(443,663,o),
(443,655,cs),
(443,648,o),
(446,641,o),
(452,641,cs),
(491,641,ls),
(496,641,o),
(502,638,o),
(502,629,cs),
(502,623,o),
(499,614,o),
(493,602,cs),
(475,566,o),
(366,446,o),
(327,379,c),
(324,379,l),
(274,482,o),
(134,629,o),
(134,640,c),
(204,640,ls),
(210,640,o),
(213,647,o),
(213,654,cs),
(213,662,o),
(209,673,o),
(204,673,c),
(204,673,o),
(103,671,o),
(63,671,cs),
(26,671,o),
(-34,673,o),
(-61,673,cs),
(-66,673,o),
(-68,665,o),
(-68,658,cs),
(-68,650,o),
(-65,641,o),
(-61,641,cs),
(-29,641,ls),
(-11,641,o),
(7,633,o),
(55,577,cs),
(111,512,o),
(257,342,o),
(256,302,c,{
name = .hr01;
})
);
}
);
width = 606;
}
);
unicode = 89;
},
{
glyphname = Z;
lastChange = "2023-03-28 14:54:09 +0000";
layers = (
{
anchors = (
{
name = bottom;
pos = (325,0);
},
{
name = center;
pos = (325,338);
},
{
name = top;
pos = (325,675);
}
);
hints = (
{
horizontal = 1;
place = (0, 40);
place = (0, 40);
type = Stem;
},
{
horizontal = 1;
place = (-20, 21);
target = up;
type = BottomGhost;
},
{
horizontal = 1;
place = (634, 37);
place = (634, 37);
type = Stem;
},
{
horizontal = 1;
place = (697, -20);
target = down;
type = TopGhost;
}
);
layerId = "8832323D-7B51-42FA-AB4B-A01DBB0D4C02";
shapes = (
{
closed = 1;
nodes = (
(517,0,o),
(543,0,o),
(543,-13,cs),
(543,-20,o),
(554,-20,o),
(560,-20,c,{
name = .hr02;
}),
(575,-19,o),
(578,-14,o),
(579,0,cs,{
name = .hr03;
}),
(583,81,o),
(594,144,o),
(602,195,cs),
(603,202,o),
(596,206,o),
(588,206,cs),
(580,206,o),
(572,205,o),
(569,195,cs),
(532,64,o),
(492,40,o),
(461,40,cs),
(182,40,l),
(182,40,o),
(547,637,o),
(572,647,c),
(578,651,o),
(581,655,o),
(581,660,cs),
(581,666,o),
(579,671,o),
(571,671,cs),
(135,671,ls),
(128,671,o),
(125,672,o),
(125,683,cs),
(125,694,o),
(116,697,o),
(108,697,cs),
(97,697,o),
(82,696,o),
(80,682,cs),
(74,640,o),
(64,563,o),
(58,511,cs),
(57,505,o),
(65,502,o),
(74,502,cs),
(83,502,o),
(92,505,o),
(93,511,cs),
(120,618,o),
(168,634,o),
(185,634,cs),
(436,634,l),
(436,634,o),
(67,47,o),
(42,31,cs),
(36,27,o),
(31,23,o),
(31,13,cs),
(31,6,o),
(34,0,o),
(39,0,cs,{
name = .hr01;
})
);
}
);
width = 649;
}
);
unicode = 90;
},
{
glyphname = a;
lastChange = "2023-03-28 14:40:20 +0000";
layers = (
{
hints = (
{
horizontal = 1;
place = (-13, 55);
place = (-13, 55);
type = Stem;
},
{
horizontal = 1;
place = (-13, 69);
place = (-13, 69);
type = Stem;
},
{
horizontal = 1;
place = (-11, 21);
target = up;
type = BottomGhost;
},
{
horizontal = 1;
place = (294, 156);
place = (294, 156);
type = Stem;
},
{
horizontal = 1;
place = (417, 33);
place = (417, 33);
type = Stem;
},
{
place = (43, 76);
place = (43, 76);
type = Stem;
},
{
place = (43, 95);
place = (43, 95);
type = Stem;
},
{
place = (293, 82);
place = (293, 82);
type = Stem;
},
{
place = (293, 171);
place = (293, 171);
type = Stem;
}
);
layerId = "8832323D-7B51-42FA-AB4B-A01DBB0D4C02";
shapes = (
{
closed = 1;
nodes = (
(375,416,o),
(314,450,o),
(220,450,cs),
(142,450,o),
(43,404,o),
(43,341,cs),
(43,308,o),
(70,294,o),
(93,294,cs),
(103,294,o),
(115,297,o),
(120,304,c),
(119,312,o),
(119,319,o),
(119,326,cs),
(119,388,o),
(160,417,o),
(208,417,cs,{
name = .hr02;
}),
(270,417,o),
(293,359,o),
(293,293,cs),
(293,285,o),
(292,270,o),
(291,253,c),
(140,208,o),
(45,140,o),
(45,62,cs),
(45,12,o),
(82,-13,o),
(135,-13,cs),
(208,-13,o),
(270,36,o),
(293,100,c),
(296,100,l),
(294,37,o),
(318,-11,o),
(371,-11,cs,{
name = .hr03;
}),
(418,-11,o),
(464,34,o),
(464,67,cs),
(464,73,o),
(459,77,o),
(454,77,cs),
(444,77,o),
(440,56,o),
(409,56,cs,{
name = .hr04;
}),
(382,56,o),
(365,71,o),
(365,123,cs),
(365,172,o),
(375,264,o),
(375,324,cs,{
name = .hr01;
})
);
},
{
closed = 1;
nodes = (
(151,42,o),
(138,61,o),
(138,89,cs),
(138,136,o),
(171,180,o),
(291,224,c),
(286,106,o),
(233,42,o),
(182,42,cs,{
name = .hr05;
})
);
}
);
width = 471;
}
);
unicode = 97;
},
{
glyphname = aacute;
lastChange = "2023-03-28 14:40:20 +0000";
layers = (
{
hints = (
{
horizontal = 1;
place = (-13, 55);
place = (-13, 55);
type = Stem;
},
{
horizontal = 1;
place = (-13, 69);
place = (-13, 69);
type = Stem;
},
{
horizontal = 1;
place = (-11, 21);
target = up;
type = BottomGhost;
},
{
horizontal = 1;
place = (294, 156);
place = (294, 156);
type = Stem;
},
{
horizontal = 1;
place = (417, 33);
place = (417, 33);
type = Stem;
},
{
horizontal = 1;
place = (736, -20);
target = down;
type = TopGhost;
},
{
place = (43, 76);
place = (43, 76);
type = Stem;
},
{
place = (293, 82);
place = (293, 82);
type = Stem;
},
{
place = (293, 171);
place = (293, 171);
type = Stem;
}
);
layerId = "8832323D-7B51-42FA-AB4B-A01DBB0D4C02";
shapes = (
{
closed = 1;
nodes = (
(375,416,o),
(314,450,o),
(220,450,cs),
(142,450,o),
(43,404,o),
(43,341,cs),
(43,308,o),
(70,294,o),
(93,294,cs),
(103,294,o),
(115,297,o),
(120,304,c),
(119,312,o),
(119,319,o),
(119,326,cs),
(119,388,o),
(160,417,o),
(208,417,cs,{
name = .hr02;
}),
(270,417,o),
(293,359,o),
(293,293,cs),
(293,285,o),
(292,270,o),
(291,253,c),
(140,208,o),
(45,140,o),
(45,62,cs),
(45,12,o),
(82,-13,o),
(135,-13,cs),
(208,-13,o),
(270,36,o),
(293,100,c),
(296,100,l),
(294,37,o),
(318,-11,o),
(371,-11,cs,{
name = .hr03;
}),
(418,-11,o),
(464,34,o),
(464,67,cs),
(464,73,o),
(459,77,o),
(454,77,cs),
(444,77,o),
(440,56,o),
(409,56,cs,{
name = .hr04;
}),
(382,56,o),
(365,71,o),
(365,123,cs),
(365,172,o),
(375,264,o),
(375,324,cs,{
name = .hr01;
})
);
},
{
closed = 1;
nodes = (
(151,42,o),
(138,61,o),
(138,89,cs),
(138,136,o),
(171,180,o),
(291,224,c),
(286,106,o),
(233,42,o),
(182,42,cs,{
name = .hr05;
})
);
},
{
closed = 1;
nodes = (
(323,639,o),
(363,667,o),
(363,704,cs),
(363,723,o),
(348,736,o),
(328,736,cs),
(266,736,o),
(275,684,o),
(154,549,cs),
(151,546,o),
(150,544,o),
(150,542,cs),
(150,537,o),
(156,533,o),
(163,533,cs),
(166,533,o),
(170,534,o),
(173,536,cs)
);
}
);
width = 471;
}
);
unicode = 225;
},
{
glyphname = acircumflex;
lastChange = "2023-03-28 14:40:20 +0000";
layers = (
{
hints = (
{
horizontal = 1;
place = (-13, 55);
place = (-13, 55);
type = Stem;
},
{
horizontal = 1;
place = (-13, 69);
place = (-13, 69);
type = Stem;
},
{
horizontal = 1;
place = (-11, 21);
target = up;
type = BottomGhost;
},
{
horizontal = 1;
place = (294, 156);
place = (294, 156);
type = Stem;
},
{
horizontal = 1;
place = (417, 33);
place = (417, 33);
type = Stem;
},
{
horizontal = 1;
place = (691, -20);
target = down;
type = TopGhost;
},
{
place = (43, 76);
place = (43, 76);
type = Stem;
},
{
place = (43, 95);
place = (43, 95);
type = Stem;
},
{
place = (293, 82);
place = (293, 82);
type = Stem;
},
{
place = (293, 171);
place = (293, 171);
type = Stem;
}
);
layerId = "8832323D-7B51-42FA-AB4B-A01DBB0D4C02";
shapes = (
{
closed = 1;
nodes = (
(375,416,o),
(314,450,o),
(220,450,cs),
(142,450,o),
(43,404,o),
(43,341,cs),
(43,308,o),
(70,294,o),
(93,294,cs),
(103,294,o),
(115,297,o),
(120,304,c),
(119,312,o),
(119,319,o),
(119,326,cs),
(119,388,o),
(160,417,o),
(208,417,cs,{
name = .hr02;
}),
(270,417,o),
(293,359,o),
(293,293,cs),
(293,285,o),
(292,270,o),
(291,253,c),
(140,208,o),
(45,140,o),
(45,62,cs),
(45,12,o),
(82,-13,o),
(135,-13,cs),
(208,-13,o),
(270,36,o),
(293,100,c),
(296,100,l),
(294,37,o),
(318,-11,o),
(371,-11,cs,{
name = .hr03;
}),
(418,-11,o),
(464,34,o),
(464,67,cs),
(464,73,o),
(459,77,o),
(454,77,cs),
(444,77,o),
(440,56,o),
(409,56,cs,{
name = .hr04;
}),
(382,56,o),
(365,71,o),
(365,123,cs),
(365,172,o),
(375,264,o),
(375,324,cs,{
name = .hr01;
})
);
},
{
closed = 1;
nodes = (
(151,42,o),
(138,61,o),
(138,89,cs),
(138,136,o),
(171,180,o),
(291,224,c),
(286,106,o),
(233,42,o),
(182,42,cs,{
name = .hr05;
})
);
},
{
closed = 1;
nodes = (
(344,530,ls),
(351,524,o),
(356,523,o),
(361,523,cs),
(370,523,o),
(375,530,o),
(375,530,c),
(265,677,l),
(256,686,o),
(246,691,o),
(236,691,cs),
(227,691,o),
(217,686,o),
(210,677,cs),
(96,530,l),
(98,525,o),
(101,522,o),
(107,522,cs),
(112,522,o),
(119,524,o),
(126,530,cs),
(237,620,l)
);
}
);
width = 471;
}
);
unicode = 226;
},
{
glyphname = adieresis;
lastChange = "2023-03-28 14:40:20 +0000";
layers = (
{
hints = (
{
horizontal = 1;
place = (-13, 55);
place = (-13, 55);
type = Stem;
},
{
horizontal = 1;
place = (-13, 69);
place = (-13, 69);
type = Stem;
},
{
horizontal = 1;
place = (-11, 21);
target = up;
type = BottomGhost;
},
{
horizontal = 1;
place = (294, 156);
place = (294, 156);
type = Stem;
},
{
horizontal = 1;
place = (417, 33);
place = (417, 33);
type = Stem;
},
{
horizontal = 1;
place = (555, 102);
place = (555, 102);
type = Stem;
},
{
place = (43, 76);
place = (43, 76);
type = Stem;
},
{
place = (43, 95);
place = (43, 95);
type = Stem;
},
{
place = (101, 102);
place = (101, 102);
type = Stem;
},
{
place = (268, 107);
place = (268, 107);
type = Stem;
},
{
place = (293, 82);
place = (293, 82);
type = Stem;
},
{
place = (293, 171);
place = (293, 171);
type = Stem;
}
);
layerId = "8832323D-7B51-42FA-AB4B-A01DBB0D4C02";
shapes = (
{
closed = 1;
nodes = (
(375,416,o),
(314,450,o),
(220,450,cs),
(142,450,o),
(43,404,o),
(43,341,cs),
(43,308,o),
(70,294,o),
(93,294,cs),
(103,294,o),
(115,297,o),
(120,304,c),
(119,312,o),
(119,319,o),
(119,326,cs),
(119,388,o),
(160,417,o),
(208,417,cs,{
name = .hr02;
}),
(270,417,o),
(293,359,o),
(293,293,cs),
(293,285,o),
(292,270,o),
(291,253,c),
(140,208,o),
(45,140,o),
(45,62,cs),
(45,12,o),
(82,-13,o),
(135,-13,cs),
(208,-13,o),
(270,36,o),
(293,100,c),
(296,100,l),
(294,37,o),
(318,-11,o),
(371,-11,cs,{
name = .hr03;
}),
(418,-11,o),
(464,34,o),
(464,67,cs),
(464,73,o),
(459,77,o),
(454,77,cs),
(444,77,o),
(440,56,o),
(409,56,cs,{
name = .hr04;
}),
(382,56,o),
(365,71,o),
(365,123,cs),
(365,172,o),
(375,264,o),
(375,324,cs,{
name = .hr01;
})
);
},
{
closed = 1;
nodes = (
(151,42,o),
(138,61,o),
(138,89,cs),
(138,136,o),
(171,180,o),
(291,224,c),
(286,106,o),
(233,42,o),
(182,42,cs,{
name = .hr05;
})
);
},
{
closed = 1;
nodes = (
(181,555,o),
(203,579,o),
(203,608,cs,{
name = .hr06;
}),
(203,635,o),
(178,657,o),
(152,657,cs),
(125,657,o),
(101,636,o),
(101,608,cs),
(101,579,o),
(122,555,o),
(152,555,cs)
);
},
{
closed = 1;
nodes = (
(349,555,o),
(370,579,o),
(370,608,cs),
(370,635,o),
(346,657,o),
(319,657,cs),
(293,657,o),
(268,636,o),
(268,608,cs),
(268,579,o),
(290,555,o),
(319,555,cs)
);
}
);
width = 471;
}
);
unicode = 228;
},
{
glyphname = agrave;
lastChange = "2023-03-28 14:40:20 +0000";
layers = (
{
hints = (
{
horizontal = 1;
place = (-13, 55);
place = (-13, 55);
type = Stem;
},
{
horizontal = 1;
place = (-13, 69);
place = (-13, 69);
type = Stem;
},
{
horizontal = 1;
place = (-11, 21);
target = up;
type = BottomGhost;
},
{
horizontal = 1;
place = (294, 156);
place = (294, 156);
type = Stem;
},
{
horizontal = 1;
place = (417, 33);
place = (417, 33);
type = Stem;
},
{
horizontal = 1;
place = (737, -20);
target = down;
type = TopGhost;
},
{
place = (43, 76);
place = (43, 76);
type = Stem;
},
{
place = (43, 95);
place = (43, 95);
type = Stem;
},
{
place = (293, 82);
place = (293, 82);
type = Stem;
},
{
place = (293, 171);
place = (293, 171);
type = Stem;
}
);
layerId = "8832323D-7B51-42FA-AB4B-A01DBB0D4C02";
shapes = (
{
closed = 1;
nodes = (
(375,416,o),
(314,450,o),
(220,450,cs),
(142,450,o),
(43,404,o),
(43,341,cs),
(43,308,o),
(70,294,o),
(93,294,cs),
(103,294,o),
(115,297,o),
(120,304,c),
(119,312,o),
(119,319,o),
(119,326,cs),
(119,388,o),
(160,417,o),
(208,417,cs,{
name = .hr02;
}),
(270,417,o),
(293,359,o),
(293,293,cs),
(293,285,o),
(292,270,o),
(291,253,c),
(140,208,o),
(45,140,o),
(45,62,cs),
(45,12,o),
(82,-13,o),
(135,-13,cs),
(208,-13,o),
(270,36,o),
(293,100,c),
(296,100,l),
(294,37,o),
(318,-11,o),
(371,-11,cs,{
name = .hr03;
}),
(418,-11,o),
(464,34,o),
(464,67,cs),
(464,73,o),
(459,77,o),
(454,77,cs),
(444,77,o),
(440,56,o),
(409,56,cs,{
name = .hr04;
}),
(382,56,o),
(365,71,o),
(365,123,cs),
(365,172,o),
(375,264,o),
(375,324,cs,{
name = .hr01;
})
);
},
{
closed = 1;
nodes = (
(151,42,o),
(138,61,o),
(138,89,cs),
(138,136,o),
(171,180,o),
(291,224,c),
(286,106,o),
(233,42,o),
(182,42,cs,{
name = .hr05;
})
);
},
{
closed = 1;
nodes = (
(322,535,o),
(326,534,o),
(329,534,cs),
(336,534,o),
(342,538,o),
(342,543,cs),
(342,545,o),
(341,547,o),
(338,550,cs),
(217,685,o),
(226,737,o),
(164,737,cs),
(144,737,o),
(129,724,o),
(129,705,cs),
(129,668,o),
(169,640,o),
(319,537,cs)
);
}
);
width = 471;
}
);
unicode = 224;
},
{
glyphname = aring;
lastChange = "2023-03-28 14:40:20 +0000";
layers = (
{
hints = (
{
horizontal = 1;
place = (-13, 55);
place = (-13, 55);
type = Stem;
},
{
horizontal = 1;
place = (-13, 69);
place = (-13, 69);
type = Stem;
},
{
horizontal = 1;
place = (-11, 21);
target = up;
type = BottomGhost;
},
{
horizontal = 1;
place = (294, 156);
place = (294, 156);
type = Stem;
},
{
horizontal = 1;
place = (417, 33);
place = (417, 33);
type = Stem;
},
{
horizontal = 1;
place = (525, 29);
place = (525, 29);
type = Stem;
},
{
horizontal = 1;
place = (678, 28);
place = (678, 28);
type = Stem;
},
{
place = (43, 76);
place = (43, 76);
type = Stem;
},
{
place = (43, 95);
place = (43, 95);
type = Stem;
},
{
place = (126, 34);
place = (126, 34);
type = Stem;
},
{
place = (279, 34);
place = (279, 34);
type = Stem;
},
{
place = (293, 82);
place = (293, 82);
type = Stem;
},
{
place = (293, 171);
place = (293, 171);
type = Stem;
}
);
layerId = "8832323D-7B51-42FA-AB4B-A01DBB0D4C02";
shapes = (
{
closed = 1;
nodes = (
(375,416,o),
(314,450,o),
(220,450,cs),
(142,450,o),
(43,404,o),
(43,341,cs),
(43,308,o),
(70,294,o),
(93,294,cs),
(103,294,o),
(115,297,o),
(120,304,c),
(119,312,o),
(119,319,o),
(119,326,cs),
(119,388,o),
(160,417,o),
(208,417,cs,{
name = .hr02;
}),
(270,417,o),
(293,359,o),
(293,293,cs),
(293,285,o),
(292,270,o),
(291,253,c),
(140,208,o),
(45,140,o),
(45,62,cs),
(45,12,o),
(82,-13,o),
(135,-13,cs),
(208,-13,o),
(270,36,o),
(293,100,c),
(296,100,l),
(294,37,o),
(318,-11,o),
(371,-11,cs,{
name = .hr03;
}),
(418,-11,o),
(464,34,o),
(464,67,cs),
(464,73,o),
(459,77,o),
(454,77,cs),
(444,77,o),
(440,56,o),
(409,56,cs,{
name = .hr04;
}),
(382,56,o),
(365,71,o),
(365,123,cs),
(365,172,o),
(375,264,o),
(375,324,cs,{
name = .hr01;
})
);
},
{
closed = 1;
nodes = (
(151,42,o),
(138,61,o),
(138,89,cs),
(138,136,o),
(171,180,o),
(291,224,c),
(286,106,o),
(233,42,o),
(182,42,cs,{
name = .hr05;
})
);
},
{
closed = 1;
nodes = (
(272,525,o),
(313,564,o),
(313,618,cs),
(313,668,o),
(267,706,o),
(218,706,cs),
(169,706,o),
(126,666,o),
(126,616,cs,{
name = .hr06;
}),
(126,566,o),
(169,525,o),
(219,525,cs)
);
},
{
closed = 1;
nodes = (
(187,554,o),
(160,582,o),
(160,616,cs),
(160,648,o),
(184,678,o),
(218,678,cs),
(253,678,o),
(279,649,o),
(279,615,cs),
(279,583,o),
(253,554,o),
(221,554,cs)
);
}
);
width = 471;
}
);
unicode = 229;
},
{
glyphname = atilde;
lastChange = "2023-03-28 14:40:20 +0000";
layers = (
{
hints = (
{
horizontal = 1;
place = (-13, 55);
place = (-13, 55);
type = Stem;
},
{
horizontal = 1;
place = (-13, 69);
place = (-13, 69);
type = Stem;
},
{
horizontal = 1;
place = (-11, 21);
target = up;
type = BottomGhost;
},
{
horizontal = 1;
place = (294, 156);
place = (294, 156);
type = Stem;
},
{
horizontal = 1;
place = (417, 33);
place = (417, 33);
type = Stem;
},
{
horizontal = 1;
place = (590, 71);
place = (590, 71);
type = Stem;
},
{
horizontal = 1;
place = (603, 58);
place = (603, 58);
type = Stem;
},
{
horizontal = 1;
place = (603, 71);
place = (603, 71);
type = Stem;
},
{
horizontal = 1;
place = (739, -20);
target = down;
type = TopGhost;
},
{
place = (43, 76);
place = (43, 76);
type = Stem;
},
{
place = (43, 95);
place = (43, 95);
type = Stem;
},
{
place = (293, 82);
place = (293, 82);
type = Stem;
},
{
place = (293, 171);
place = (293, 171);
type = Stem;
}
);
layerId = "8832323D-7B51-42FA-AB4B-A01DBB0D4C02";
shapes = (
{
closed = 1;
nodes = (
(375,416,o),
(314,450,o),
(220,450,cs),
(142,450,o),
(43,404,o),
(43,341,cs),
(43,308,o),
(70,294,o),
(93,294,cs),
(103,294,o),
(115,297,o),
(120,304,c),
(119,312,o),
(119,319,o),
(119,326,cs),
(119,388,o),
(160,417,o),
(208,417,cs,{
name = .hr02;
}),
(270,417,o),
(293,359,o),
(293,293,cs),
(293,285,o),
(292,270,o),
(291,253,c),
(140,208,o),
(45,140,o),
(45,62,cs),
(45,12,o),
(82,-13,o),
(135,-13,cs),
(208,-13,o),
(270,36,o),
(293,100,c),
(296,100,l),
(294,37,o),
(318,-11,o),
(371,-11,cs,{
name = .hr03;
}),
(418,-11,o),
(464,34,o),
(464,67,cs),
(464,73,o),
(459,77,o),
(454,77,cs),
(444,77,o),
(440,56,o),
(409,56,cs,{
name = .hr04;
}),
(382,56,o),
(365,71,o),
(365,123,cs),
(365,172,o),
(375,264,o),
(375,324,cs,{
name = .hr01;
})
);
},
{
closed = 1;
nodes = (
(151,42,o),
(138,61,o),
(138,89,cs),
(138,136,o),
(171,180,o),
(291,224,c),
(286,106,o),
(233,42,o),
(182,42,cs,{
name = .hr05;
})
);
},
{
closed = 1;
nodes = (
(107,596,o),
(149,603,o),
(187,603,cs),
(228,603,o),
(257,590,o),
(297,590,cs,{
name = .hr06;
}),
(341,590,o),
(397,618,o),
(401,721,cs),
(402,733,o),
(394,739,o),
(386,739,cs),
(381,739,o),
(376,737,o),
(375,731,cs),
(363,664,o),
(324,661,o),
(281,661,cs),
(244,661,o),
(215,674,o),
(172,674,cs,{
name = .hr07;
}),
(132,674,o),
(72,644,o),
(68,545,c),
(68,533,o),
(77,526,o),
(85,526,cs),
(90,526,o),
(94,529,o),
(95,534,cs)
);
}
);
width = 471;
}
);
unicode = 227;
},
{
glyphname = ae;
lastChange = "2023-03-28 14:40:20 +0000";
layers = (
{
hints = (
{
horizontal = 1;
place = (-13, 55);
place = (-13, 55);
type = Stem;
},
{
horizontal = 1;
place = (-13, 85);
place = (-13, 85);
type = Stem;
},
{
horizontal = 1;
place = (242, 207);
place = (242, 207);
type = Stem;
},
{
horizontal = 1;
place = (294, 155);
place = (294, 155);
type = Stem;
},
{
horizontal = 1;
place = (395, 54);
place = (395, 54);
type = Stem;
},
{
horizontal = 1;
place = (417, 32);
place = (417, 32);
type = Stem;
},
{
horizontal = 1;
place = (450, -20);
target = down;
type = TopGhost;
},
{
place = (43, 76);
place = (43, 76);
type = Stem;
},
{
place = (43, 95);
place = (43, 95);
type = Stem;
},
{
place = (293, 69);
place = (293, 69);
type = Stem;
},
{
place = (605, 85);
place = (605, 85);
type = Stem;
}
);
layerId = "8832323D-7B51-42FA-AB4B-A01DBB0D4C02";
shapes = (
{
closed = 1;
nodes = (
(683,252,o),
(690,259,o),
(690,280,cs),
(690,383,o),
(621,449,o),
(536,449,cs),
(477,449,o),
(413,420,o),
(368,370,c),
(365,370,l),
(348,429,o),
(295,450,o),
(220,450,cs,{
name = .hr02;
}),
(142,450,o),
(43,404,o),
(43,341,cs),
(43,308,o),
(70,294,o),
(93,294,cs,{
name = .hr03;
}),
(103,294,o),
(115,297,o),
(120,304,c),
(119,312,o),
(119,319,o),
(119,326,cs),
(119,388,o),
(160,417,o),
(208,417,cs,{
name = .hr04;
}),
(270,417,o),
(293,359,o),
(293,293,cs),
(293,285,o),
(292,270,o),
(291,253,c),
(140,208,o),
(45,140,o),
(45,62,cs),
(45,12,o),
(82,-13,o),
(135,-13,cs),
(206,-13,o),
(276,28,o),
(313,145,c),
(316,145,l),
(341,58,o),
(417,-13,o),
(516,-13,cs),
(652,-13,o),
(697,95,o),
(697,112,cs),
(697,120,o),
(693,124,o),
(686,124,cs),
(668,124,o),
(652,72,o),
(542,72,cs,{
name = .hr05;
}),
(465,72,o),
(362,117,o),
(362,242,c),
(490,250,o),
(587,245,o),
(656,250,cs,{
name = .hr01;
})
);
},
{
closed = 1;
nodes = (
(563,395,o),
(605,356,o),
(605,311,cs),
(605,299,o),
(596,295,o),
(572,292,cs),
(531,286,o),
(434,280,o),
(365,273,c),
(380,354,o),
(448,395,o),
(509,395,cs,{
name = .hr06;
})
);
},
{
closed = 1;
nodes = (
(151,42,o),
(138,61,o),
(138,89,cs),
(138,136,o),
(171,180,o),
(291,224,c),
(286,106,o),
(233,42,o),
(182,42,cs)
);
}
);
width = 735;
}
);
unicode = 230;
},
{
glyphname = b;
lastChange = "2023-03-28 14:40:20 +0000";
layers = (
{
hints = (
{
horizontal = 1;
place = (-47, 21);
target = up;
type = BottomGhost;
},
{
horizontal = 1;
place = (-13, 36);
place = (-13, 36);
type = Stem;
},
{
horizontal = 1;
place = (389, 61);
place = (389, 61);
type = Stem;
},
{
horizontal = 1;
place = (681, 30);
place = (681, 30);
type = Stem;
},
{
horizontal = 1;
place = (747, -20);
target = down;
type = TopGhost;
},
{
place = (89, 85);
place = (89, 85);
type = Stem;
},
{
place = (434, 100);
place = (434, 100);
type = Stem;
}
);
layerId = "8832323D-7B51-42FA-AB4B-A01DBB0D4C02";
shapes = (
{
closed = 1;
nodes = (
(174,376,l),
(174,524,o),
(175,698,o),
(175,735,cs),
(175,743,o),
(169,747,o),
(160,747,c),
(133,736,o),
(89,711,o),
(17,711,cs),
(11,711,o),
(11,701,o),
(11,697,cs),
(11,690,o),
(15,681,o),
(19,681,cs),
(64,681,ls),
(76,681,o),
(89,670,o),
(89,584,cs),
(89,291,ls),
(89,-3,o),
(74,-11,o),
(74,-35,cs),
(74,-41,o),
(77,-47,o),
(90,-47,cs),
(105,-47,o),
(121,44,o),
(146,44,cs),
(148,44,ls),
(175,44,o),
(196,-13,o),
(302,-13,cs),
(429,-13,o),
(534,98,o),
(534,233,cs),
(534,362,o),
(461,450,o),
(340,450,cs),
(263,450,o),
(209,417,o),
(176,376,c)
);
},
{
closed = 1;
nodes = (
(174,343,l),
(193,359,o),
(219,389,o),
(282,389,cs),
(379,389,o),
(434,306,o),
(434,217,cs),
(434,128,o),
(398,23,o),
(299,23,cs),
(231,23,o),
(183,58,o),
(174,164,c)
);
}
);
width = 573;
}
);
unicode = 98;
},
{
glyphname = c;
lastChange = "2023-03-28 14:40:20 +0000";
layers = (
{
hints = (
{
horizontal = 1;
place = (-13, 72);
place = (-13, 72);
type = Stem;
},
{
horizontal = 1;
place = (401, 49);
place = (401, 49);
type = Stem;
},
{
place = (39, 84);
place = (39, 84);
type = Stem;
}
);
layerId = "8832323D-7B51-42FA-AB4B-A01DBB0D4C02";
shapes = (
{
closed = 1;
nodes = (
(167,450,o),
(39,336,o),
(39,188,cs),
(39,88,o),
(114,-13,o),
(252,-13,cs),
(355,-13,o),
(430,70,o),
(430,89,cs),
(430,98,o),
(425,102,o),
(418,102,cs),
(405,102,o),
(370,59,o),
(283,59,cs),
(207,59,o),
(123,113,o),
(123,241,cs),
(123,345,o),
(181,401,o),
(247,401,cs),
(292,401,o),
(329,381,o),
(373,339,c),
(401,351,o),
(411,369,o),
(411,386,cs),
(411,419,o),
(367,450,o),
(302,450,cs)
);
}
);
width = 457;
}
);
unicode = 99;
},
{
glyphname = ccedilla;
lastChange = "2023-03-28 14:40:20 +0000";
layers = (
{
hints = (
{
horizontal = 1;
place = (-172, 22);
place = (-172, 22);
type = Stem;
},
{
horizontal = 1;
place = (-71, 21);
place = (-71, 21);
type = Stem;
},
{
horizontal = 1;
place = (-13, 72);
place = (-13, 72);
type = Stem;
},
{
horizontal = 1;
place = (401, 49);
place = (401, 49);
type = Stem;
},
{
place = (39, 84);
place = (39, 84);
type = Stem;
},
{
place = (148, 160);
place = (148, 160);
type = Stem;
},
{
place = (265, 43);
place = (265, 43);
type = Stem;
}
);
layerId = "8832323D-7B51-42FA-AB4B-A01DBB0D4C02";
shapes = (
{
closed = 1;
nodes = (
(167,450,o),
(39,336,o),
(39,188,cs),
(39,100,o),
(96,11,o),
(204,-9,c),
(181,-72,l),
(189,-72,o),
(197,-71,o),
(205,-71,cs),
(233,-71,o),
(265,-80,o),
(265,-114,cs),
(265,-138,o),
(246,-150,o),
(224,-150,cs),
(208,-150,o),
(187,-140,o),
(187,-126,cs),
(187,-123,o),
(188,-119,o),
(191,-115,c),
(187,-106,o),
(178,-101,o),
(169,-101,cs),
(158,-101,o),
(148,-108,o),
(148,-121,cs,{
name = .hr02;
}),
(148,-155,o),
(204,-172,o),
(231,-172,cs),
(268,-172,o),
(308,-153,o),
(308,-111,cs),
(308,-64,o),
(256,-49,o),
(218,-50,c),
(231,-12,l),
(238,-13,o),
(245,-13,o),
(252,-13,cs),
(355,-13,o),
(430,70,o),
(430,89,cs),
(430,98,o),
(425,102,o),
(418,102,cs),
(405,102,o),
(370,59,o),
(283,59,cs),
(207,59,o),
(123,113,o),
(123,241,cs),
(123,345,o),
(181,401,o),
(247,401,cs),
(292,401,o),
(329,381,o),
(373,339,c),
(401,351,o),
(411,369,o),
(411,386,cs),
(411,419,o),
(367,450,o),
(302,450,cs,{
name = .hr01;
})
);
}
);
width = 457;
}
);
unicode = 231;
},
{
glyphname = d;
lastChange = "2023-03-28 14:40:20 +0000";
layers = (
{
hints = (
{
horizontal = 1;
place = (-13, 61);
place = (-13, 61);
type = Stem;
},
{
horizontal = 1;
place = (414, 36);
place = (414, 36);
type = Stem;
},
{
horizontal = 1;
place = (681, 30);
place = (681, 30);
type = Stem;
},
{
horizontal = 1;
place = (747, -20);
target = down;
type = TopGhost;
},
{
place = (39, 100);
place = (39, 100);
type = Stem;
},
{
place = (399, 85);
place = (399, 85);
type = Stem;
}
);
layerId = "8832323D-7B51-42FA-AB4B-A01DBB0D4C02";
shapes = (
{
closed = 1;
nodes = (
(484,376,ls),
(484,524,o),
(485,698,o),
(485,735,cs),
(485,743,o),
(479,747,o),
(470,747,c),
(443,736,o),
(399,711,o),
(327,711,cs),
(321,711,o),
(321,701,o),
(321,697,cs),
(321,690,o),
(325,681,o),
(329,681,cs),
(374,681,ls),
(386,681,o),
(399,670,o),
(399,584,cs),
(399,406,l),
(377,423,o),
(344,450,o),
(271,450,cs),
(144,450,o),
(39,339,o),
(39,204,cs),
(39,75,o),
(112,-13,o),
(233,-13,cs),
(310,-13,o),
(366,21,o),
(399,62,c),
(401,62,l),
(402,42,o),
(404,-13,o),
(426,-13,cs),
(439,-13,o),
(468,19,o),
(555,33,cs),
(559,34,o),
(561,40,o),
(561,48,cs),
(561,55,o),
(557,63,o),
(553,63,cs),
(544,63,o),
(531,60,o),
(519,60,cs),
(511,60,o),
(503,62,o),
(498,66,cs),
(486,76,o),
(484,100,o),
(484,146,cs)
);
},
{
closed = 1;
nodes = (
(399,94,l),
(380,78,o),
(354,48,o),
(291,48,cs),
(194,48,o),
(139,131,o),
(139,220,cs),
(139,309,o),
(175,414,o),
(274,414,cs),
(342,414,o),
(390,379,o),
(399,273,c)
);
}
);
width = 573;
}
);
unicode = 100;
},
{
glyphname = eth;
lastChange = "2023-03-28 14:40:20 +0000";
layers = (
{
hints = (
{
horizontal = 1;
place = (-14, 61);
place = (-14, 61);
type = Stem;
},
{
horizontal = 1;
place = (415, 40);
place = (415, 40);
type = Stem;
},
{
horizontal = 1;
place = (747, -20);
target = down;
type = TopGhost;
},
{
place = (51, 87);
place = (51, 87);
type = Stem;
},
{
place = (400, 92);
place = (400, 92);
type = Stem;
}
);
layerId = "8832323D-7B51-42FA-AB4B-A01DBB0D4C02";
shapes = (
{
closed = 1;
nodes = (
(442,695,l),
(438,707,o),
(429,718,o),
(416,718,cs),
(409,718,o),
(400,715,o),
(385,704,cs),
(300,643,l),
(230,708,o),
(161,747,o),
(134,747,cs),
(119,747,o),
(110,739,o),
(118,733,cs),
(164,699,o),
(211,657,o),
(252,611,c),
(155,547,l),
(161,534,o),
(168,524,o),
(179,524,cs),
(188,524,o),
(200,531,o),
(215,542,cs),
(274,585,l),
(347,492,o),
(400,380,o),
(400,267,cs),
(400,128,o),
(320,47,o),
(249,47,cs),
(173,47,o),
(138,125,o),
(138,210,cs),
(138,308,o),
(185,415,o),
(267,415,cs),
(301,415,o),
(309,404,o),
(324,404,cs),
(332,404,o),
(338,407,o),
(338,414,cs),
(338,442,o),
(282,455,o),
(247,455,cs),
(120,455,o),
(51,335,o),
(51,216,cs),
(51,100,o),
(116,-14,o),
(258,-14,cs),
(373,-14,o),
(492,78,o),
(492,267,cs),
(492,405,o),
(411,531,o),
(325,619,c)
);
}
);
width = 560;
}
);
unicode = 240;
},
{
glyphname = e;
lastChange = "2023-03-28 14:40:20 +0000";
layers = (
{
hints = (
{
horizontal = 1;
place = (-13, 85);
place = (-13, 85);
type = Stem;
},
{
horizontal = 1;
place = (242, 207);
place = (242, 207);
type = Stem;
},
{
horizontal = 1;
place = (395, 54);
place = (395, 54);
type = Stem;
},
{
place = (39, 54);
place = (39, 54);
type = Stem;
},
{
place = (336, 85);
place = (336, 85);
type = Stem;
}
);
layerId = "8832323D-7B51-42FA-AB4B-A01DBB0D4C02";
shapes = (
{
closed = 1;
nodes = (
(414,252,o),
(421,259,o),
(421,280,cs),
(421,383,o),
(352,449,o),
(267,449,cs),
(161,449,o),
(39,358,o),
(39,205,cs),
(39,94,o),
(126,-13,o),
(247,-13,cs),
(383,-13,o),
(428,95,o),
(428,112,cs),
(428,120,o),
(424,124,o),
(417,124,cs),
(399,124,o),
(383,72,o),
(273,72,cs),
(196,72,o),
(93,117,o),
(93,242,c),
(221,250,o),
(318,245,o),
(387,250,cs,{
name = .hr01;
})
);
},
{
closed = 1;
nodes = (
(294,395,o),
(336,356,o),
(336,311,cs),
(336,299,o),
(327,295,o),
(303,292,cs),
(262,286,o),
(165,280,o),
(96,273,c),
(111,354,o),
(179,395,o),
(240,395,cs,{
name = .hr02;
})
);
}
);
width = 466;
}
);
unicode = 101;
},
{
glyphname = eacute;
lastChange = "2023-03-28 14:40:20 +0000";
layers = (
{
hints = (
{
horizontal = 1;
place = (-13, 85);
place = (-13, 85);
type = Stem;
},
{
horizontal = 1;
place = (242, 207);
place = (242, 207);
type = Stem;
},
{
horizontal = 1;
place = (395, 54);
place = (395, 54);
type = Stem;
},
{
horizontal = 1;
place = (744, -20);
target = down;
type = TopGhost;
},
{
place = (39, 54);
place = (39, 54);
type = Stem;
},
{
place = (336, 85);
place = (336, 85);
type = Stem;
}
);
layerId = "8832323D-7B51-42FA-AB4B-A01DBB0D4C02";
shapes = (
{
closed = 1;
nodes = (
(343,640,o),
(403,675,o),
(403,712,cs),
(403,731,o),
(388,744,o),
(368,744,cs),
(306,744,o),
(299,685,o),
(172,550,cs),
(169,547,o),
(168,545,o),
(168,543,cs),
(168,538,o),
(174,534,o),
(181,534,cs),
(184,534,o),
(188,535,o),
(191,537,cs,{
name = .hr01;
})
);
},
{
closed = 1;
nodes = (
(414,252,o),
(421,259,o),
(421,280,cs),
(421,383,o),
(352,449,o),
(267,449,cs),
(161,449,o),
(39,358,o),
(39,205,cs),
(39,94,o),
(126,-13,o),
(247,-13,cs),
(383,-13,o),
(428,95,o),
(428,112,cs),
(428,120,o),
(424,124,o),
(417,124,cs),
(399,124,o),
(383,72,o),
(273,72,cs),
(196,72,o),
(93,117,o),
(93,242,c),
(221,250,o),
(318,245,o),
(387,250,cs)
);
},
{
closed = 1;
nodes = (
(294,395,o),
(336,356,o),
(336,311,cs),
(336,299,o),
(327,295,o),
(303,292,cs),
(262,286,o),
(165,280,o),
(96,273,c),
(111,354,o),
(179,395,o),
(240,395,cs,{
name = .hr02;
})
);
}
);
width = 466;
}
);
unicode = 233;
},
{
glyphname = ecircumflex;
lastChange = "2023-03-28 14:40:20 +0000";
layers = (
{
hints = (
{
horizontal = 1;
place = (-13, 85);
place = (-13, 85);
type = Stem;
},
{
horizontal = 1;
place = (242, 207);
place = (242, 207);
type = Stem;
},
{
horizontal = 1;
place = (395, 54);
place = (395, 54);
type = Stem;
},
{
horizontal = 1;
place = (691, -20);
target = down;
type = TopGhost;
},
{
place = (39, 54);
place = (39, 54);
type = Stem;
},
{
place = (336, 85);
place = (336, 85);
type = Stem;
}
);
layerId = "8832323D-7B51-42FA-AB4B-A01DBB0D4C02";
shapes = (
{
closed = 1;
nodes = (
(369,530,ls,{
name = .hr01;
}),
(376,524,o),
(381,523,o),
(386,523,cs),
(395,523,o),
(400,530,o),
(400,530,c),
(290,677,l),
(281,686,o),
(271,691,o),
(261,691,cs),
(252,691,o),
(242,686,o),
(235,677,cs),
(121,530,l),
(123,525,o),
(126,522,o),
(132,522,cs),
(137,522,o),
(144,524,o),
(151,530,cs),
(262,620,l)
);
},
{
closed = 1;
nodes = (
(414,252,o),
(421,259,o),
(421,280,cs),
(421,383,o),
(352,449,o),
(267,449,cs),
(161,449,o),
(39,358,o),
(39,205,cs),
(39,94,o),
(126,-13,o),
(247,-13,cs),
(383,-13,o),
(428,95,o),
(428,112,cs),
(428,120,o),
(424,124,o),
(417,124,cs),
(399,124,o),
(383,72,o),
(273,72,cs),
(196,72,o),
(93,117,o),
(93,242,c),
(221,250,o),
(318,245,o),
(387,250,cs)
);
},
{
closed = 1;
nodes = (
(294,395,o),
(336,356,o),
(336,311,cs),
(336,299,o),
(327,295,o),
(303,292,cs),
(262,286,o),
(165,280,o),
(96,273,c),
(111,354,o),
(179,395,o),
(240,395,cs,{
name = .hr02;
})
);
}
);
width = 466;
}
);
unicode = 234;
},
{
glyphname = edieresis;
lastChange = "2023-03-28 14:40:20 +0000";
layers = (
{
hints = (
{
horizontal = 1;
place = (-13, 85);
place = (-13, 85);
type = Stem;
},
{
horizontal = 1;
place = (242, 207);
place = (242, 207);
type = Stem;
},
{
horizontal = 1;
place = (395, 54);
place = (395, 54);
type = Stem;
},
{
horizontal = 1;
place = (555, 102);
place = (555, 102);
type = Stem;
},
{
place = (39, 54);
place = (39, 54);
type = Stem;
},
{
place = (126, 102);
place = (126, 102);
type = Stem;
},
{
place = (293, 102);
place = (293, 102);
type = Stem;
},
{
place = (336, 85);
place = (336, 85);
type = Stem;
}
);
layerId = "8832323D-7B51-42FA-AB4B-A01DBB0D4C02";
shapes = (
{
closed = 1;
nodes = (
(206,555,o),
(228,579,o),
(228,608,cs),
(228,635,o),
(203,657,o),
(177,657,cs),
(150,657,o),
(126,636,o),
(126,608,cs),
(126,579,o),
(147,555,o),
(177,555,cs,{
name = .hr01;
})
);
},
{
closed = 1;
nodes = (
(374,555,o),
(395,579,o),
(395,608,cs),
(395,635,o),
(371,657,o),
(344,657,cs),
(318,657,o),
(293,636,o),
(293,608,cs),
(293,579,o),
(315,555,o),
(344,555,cs)
);
},
{
closed = 1;
nodes = (
(414,252,o),
(421,259,o),
(421,280,cs,{
name = .hr02;
}),
(421,383,o),
(352,449,o),
(267,449,cs),
(161,449,o),
(39,358,o),
(39,205,cs),
(39,94,o),
(126,-13,o),
(247,-13,cs),
(383,-13,o),
(428,95,o),
(428,112,cs),
(428,120,o),
(424,124,o),
(417,124,cs),
(399,124,o),
(383,72,o),
(273,72,cs),
(196,72,o),
(93,117,o),
(93,242,c),
(221,250,o),
(318,245,o),
(387,250,cs)
);
},
{
closed = 1;
nodes = (
(294,395,o),
(336,356,o),
(336,311,cs),
(336,299,o),
(327,295,o),
(303,292,cs),
(262,286,o),
(165,280,o),
(96,273,c),
(111,354,o),
(179,395,o),
(240,395,cs,{
name = .hr03;
})
);
}
);
width = 466;
}
);
unicode = 235;
},
{
glyphname = egrave;
lastChange = "2023-03-28 14:40:20 +0000";
layers = (
{
hints = (
{
horizontal = 1;
place = (-13, 85);
place = (-13, 85);
type = Stem;
},
{
horizontal = 1;
place = (242, 207);
place = (242, 207);
type = Stem;
},
{
horizontal = 1;
place = (395, 54);
place = (395, 54);
type = Stem;
},
{
horizontal = 1;
place = (737, -20);
target = down;
type = TopGhost;
},
{
place = (39, 54);
place = (39, 54);
type = Stem;
},
{
place = (336, 85);
place = (336, 85);
type = Stem;
}
);
layerId = "8832323D-7B51-42FA-AB4B-A01DBB0D4C02";
shapes = (
{
closed = 1;
nodes = (
(311,535,o),
(315,534,o),
(318,534,cs),
(325,534,o),
(331,538,o),
(331,543,cs),
(331,545,o),
(330,547,o),
(327,550,cs),
(206,685,o),
(215,737,o),
(153,737,cs),
(133,737,o),
(118,724,o),
(118,705,cs),
(118,668,o),
(158,640,o),
(308,537,cs,{
name = .hr01;
})
);
},
{
closed = 1;
nodes = (
(414,252,o),
(421,259,o),
(421,280,cs),
(421,383,o),
(352,449,o),
(267,449,cs),
(161,449,o),
(39,358,o),
(39,205,cs),
(39,94,o),
(126,-13,o),
(247,-13,cs),
(383,-13,o),
(428,95,o),
(428,112,cs),
(428,120,o),
(424,124,o),
(417,124,cs),
(399,124,o),
(383,72,o),
(273,72,cs),
(196,72,o),
(93,117,o),
(93,242,c),
(221,250,o),
(318,245,o),
(387,250,cs)
);
},
{
closed = 1;
nodes = (
(294,395,o),
(336,356,o),
(336,311,cs),
(336,299,o),
(327,295,o),
(303,292,cs),
(262,286,o),
(165,280,o),
(96,273,c),
(111,354,o),
(179,395,o),
(240,395,cs,{
name = .hr02;
})
);
}
);
width = 466;
}
);
unicode = 232;
},
{
glyphname = f;
lastChange = "2023-03-28 14:40:20 +0000";
layers = (
{
hints = (
{
horizontal = 1;
place = (1, 27);
place = (1, 27);
type = Stem;
},
{
horizontal = 1;
place = (-2, 21);
target = up;
type = BottomGhost;
},
{
horizontal = 1;
place = (0, 21);
target = up;
type = BottomGhost;
},
{
horizontal = 1;
place = (399, 38);
place = (399, 38);
type = Stem;
},
{
horizontal = 1;
place = (682, 42);
place = (682, 42);
type = Stem;
},
{
place = (33, 160);
place = (33, 160);
type = Stem;
},
{
place = (108, 85);
place = (108, 85);
type = Stem;
}
);
layerId = "8832323D-7B51-42FA-AB4B-A01DBB0D4C02";
shapes = (
{
closed = 1;
nodes = (
(108,45,ls,{
name = .hr01;
}),
(108,32,o),
(104,28,o),
(96,28,cs),
(38,28,ls),
(35,28,o),
(33,19,o),
(33,13,cs,{
name = .hr02;
}),
(33,7,o),
(36,-2,o),
(40,-2,cs),
(78,-2,o),
(99,1,o),
(156,1,cs,{
name = .hr03;
}),
(198,1,o),
(211,0,o),
(265,0,cs,{
name = .hr04;
}),
(269,0,o),
(271,7,o),
(271,13,cs),
(271,20,o),
(268,30,o),
(263,30,cs),
(214,30,ls),
(204,30,o),
(193,41,o),
(193,118,cs),
(193,399,l),
(308,399,ls),
(314,399,o),
(317,409,o),
(317,416,cs),
(317,425,o),
(313,437,o),
(306,437,cs),
(193,437,l),
(193,466,ls),
(193,544,o),
(194,682,o),
(296,682,cs),
(341,682,o),
(368,642,o),
(389,609,c),
(427,621,o),
(439,641,o),
(439,660,cs),
(439,692,o),
(397,724,o),
(342,724,cs),
(147,724,o),
(135,547,o),
(106,453,cs),
(99,432,o),
(57,432,o),
(36,432,cs),
(30,432,o),
(27,424,o),
(27,416,cs),
(27,405,o),
(32,399,o),
(38,399,cs),
(108,399,l,{
name = .hr05;
})
);
}
);
width = 345;
}
);
unicode = 102;
},
{
glyphname = g;
lastChange = "2023-03-28 14:40:20 +0000";
layers = (
{
hints = (
{
horizontal = 1;
place = (-280, 35);
place = (-280, 35);
type = Stem;
},
{
horizontal = 1;
place = (-33, 74);
place = (-33, 74);
type = Stem;
},
{
horizontal = 1;
place = (122, 33);
place = (122, 33);
type = Stem;
},
{
horizontal = 1;
place = (388, 62);
place = (388, 62);
type = Stem;
},
{
horizontal = 1;
place = (417, 33);
place = (417, 33);
type = Stem;
},
{
horizontal = 1;
place = (446, -20);
target = down;
type = TopGhost;
},
{
place = (34, 74);
place = (34, 74);
type = Stem;
},
{
place = (50, 58);
place = (50, 58);
type = Stem;
},
{
place = (50, 85);
place = (50, 85);
type = Stem;
},
{
place = (320, 85);
place = (320, 85);
type = Stem;
},
{
place = (320, 187);
place = (320, 187);
type = Stem;
},
{
place = (425, 68);
place = (425, 68);
type = Stem;
}
);
layerId = "8832323D-7B51-42FA-AB4B-A01DBB0D4C02";
shapes = (
{
closed = 1;
nodes = (
(138,450,o),
(50,388,o),
(50,282,cs),
(50,216,o),
(92,159,o),
(153,136,c),
(153,134,l),
(82,118,o),
(57,65,o),
(57,39,cs),
(57,-10,o),
(113,-29,o),
(162,-35,c),
(162,-38,l),
(92,-62,o),
(34,-127,o),
(34,-181,cs,{
name = .hr02;
}),
(34,-255,o),
(105,-280,o),
(198,-280,cs),
(338,-280,o),
(493,-180,o),
(493,-71,cs),
(493,9,o),
(413,41,o),
(326,41,cs),
(284,41,o),
(256,36,o),
(208,36,cs),
(166,36,o),
(119,41,o),
(119,68,cs),
(119,85,o),
(148,121,o),
(227,122,cs),
(322,124,o),
(405,170,o),
(405,284,cs),
(405,334,o),
(384,356,o),
(384,368,cs),
(384,380,o),
(402,388,o),
(414,388,cs),
(440,388,o),
(459,374,o),
(479,358,c),
(498,369,o),
(507,386,o),
(507,402,cs,{
name = .hr03;
}),
(507,425,o),
(488,446,o),
(453,446,cs),
(426,446,o),
(393,428,o),
(362,392,c),
(329,428,o),
(281,450,o),
(232,450,cs,{
name = .hr01;
})
);
},
{
closed = 1;
nodes = (
(363,-33,o),
(425,-51,o),
(425,-101,cs),
(425,-187,o),
(300,-245,o),
(221,-245,cs),
(151,-245,o),
(108,-218,o),
(108,-162,cs),
(108,-108,o),
(156,-58,o),
(212,-38,c),
(248,-37,o),
(267,-33,o),
(303,-33,cs)
);
},
{
closed = 1;
nodes = (
(155,155,o),
(135,224,o),
(135,284,cs,{
name = .hr05;
}),
(135,347,o),
(153,417,o),
(227,417,cs),
(300,417,o),
(320,344,o),
(320,284,cs),
(320,219,o),
(299,155,o),
(225,155,cs)
);
}
);
width = 510;
}
);
unicode = 103;
},
{
glyphname = h;
lastChange = "2023-03-28 14:40:20 +0000";
layers = (
{
hints = (
{
horizontal = 1;
place = (1, 27);
place = (1, 27);
type = Stem;
},
{
horizontal = 1;
place = (-2, 21);
target = up;
type = BottomGhost;
},
{
horizontal = 1;
place = (0, 21);
target = up;
type = BottomGhost;
},
{
horizontal = 1;
place = (395, 55);
place = (395, 55);
type = Stem;
},
{
horizontal = 1;
place = (681, 30);
place = (681, 30);
type = Stem;
},
{
horizontal = 1;
place = (747, -20);
target = down;
type = TopGhost;
},
{
place = (110, 85);
place = (110, 85);
type = Stem;
},
{
place = (423, 85);
place = (423, 85);
type = Stem;
}
);
layerId = "8832323D-7B51-42FA-AB4B-A01DBB0D4C02";
shapes = (
{
closed = 1;
nodes = (
(195,390,l,{
name = .hr01;
}),
(195,538,o),
(196,698,o),
(196,735,cs),
(196,743,o),
(190,747,o),
(181,747,c),
(154,736,o),
(110,711,o),
(38,711,cs),
(32,711,o),
(32,701,o),
(32,697,cs),
(32,690,o),
(36,681,o),
(40,681,cs),
(85,681,ls),
(97,681,o),
(110,670,o),
(110,584,cs),
(110,45,ls),
(110,32,o),
(106,28,o),
(98,28,cs),
(40,28,ls),
(37,28,o),
(35,19,o),
(35,13,cs),
(35,7,o),
(38,-2,o),
(42,-2,cs,{
name = .hr02;
}),
(80,-2,o),
(101,1,o),
(158,1,cs,{
name = .hr03;
}),
(200,1,o),
(213,0,o),
(267,0,cs,{
name = .hr04;
}),
(271,0,o),
(273,7,o),
(273,13,cs),
(273,20,o),
(270,30,o),
(265,30,cs),
(216,30,ls),
(206,30,o),
(195,41,o),
(195,118,cs),
(195,355,l),
(215,377,o),
(252,395,o),
(292,395,cs),
(390,395,o),
(423,349,o),
(423,214,cs),
(423,45,ls),
(423,32,o),
(419,28,o),
(411,28,cs,{
name = .hr05;
}),
(353,28,ls),
(350,28,o),
(348,19,o),
(348,13,cs),
(348,7,o),
(351,-2,o),
(355,-2,cs,{
name = .hr06;
}),
(393,-2,o),
(414,1,o),
(471,1,cs,{
name = .hr07;
}),
(513,1,o),
(526,0,o),
(580,0,cs,{
name = .hr08;
}),
(584,0,o),
(586,7,o),
(586,13,cs),
(586,20,o),
(583,30,o),
(578,30,cs),
(529,30,ls),
(519,30,o),
(508,41,o),
(508,118,cs),
(508,258,ls),
(508,398,o),
(438,450,o),
(337,450,cs),
(293,450,o),
(236,426,o),
(196,390,c)
);
}
);
width = 606;
}
);
unicode = 104;
},
{
glyphname = i;
lastChange = "2023-03-28 14:40:20 +0000";
layers = (
{
hints = (
{
horizontal = 1;
place = (1, 27);
place = (1, 27);
type = Stem;
},
{
horizontal = 1;
place = (-2, 21);
target = up;
type = BottomGhost;
},
{
horizontal = 1;
place = (0, 21);
target = up;
type = BottomGhost;
},
{
horizontal = 1;
place = (585, 107);
place = (585, 107);
type = Stem;
},
{
place = (83, 108);
place = (83, 108);
type = Stem;
},
{
place = (106, 85);
place = (106, 85);
type = Stem;
}
);
layerId = "8832323D-7B51-42FA-AB4B-A01DBB0D4C02";
shapes = (
{
closed = 1;
nodes = (
(191,297,ls,{
name = .hr01;
}),
(191,416,o),
(195,429,o),
(195,466,cs),
(195,474,o),
(189,478,o),
(180,478,cs),
(164,478,o),
(119,407,o),
(56,407,cs),
(50,407,o),
(50,397,o),
(50,393,cs),
(50,386,o),
(54,377,o),
(58,377,cs),
(78,377,ls),
(92,377,o),
(106,366,o),
(106,280,cs),
(106,45,ls),
(106,32,o),
(102,28,o),
(94,28,cs),
(36,28,ls),
(33,28,o),
(31,19,o),
(31,13,cs),
(31,7,o),
(34,-2,o),
(38,-2,cs,{
name = .hr02;
}),
(76,-2,o),
(97,1,o),
(154,1,cs,{
name = .hr03;
}),
(196,1,o),
(209,0,o),
(263,0,cs,{
name = .hr04;
}),
(267,0,o),
(269,7,o),
(269,13,cs),
(269,20,o),
(266,30,o),
(261,30,cs),
(212,30,ls),
(202,30,o),
(191,41,o),
(191,118,cs)
);
},
{
closed = 1;
nodes = (
(167,585,o),
(190,609,o),
(190,638,cs),
(190,668,o),
(167,692,o),
(137,692,cs),
(107,692,o),
(83,668,o),
(83,638,cs,{
name = .hr05;
}),
(83,607,o),
(109,585,o),
(139,585,cs)
);
}
);
width = 298;
}
);
unicode = 105;
},
{
glyphname = dotlessi;
lastChange = "2023-03-28 14:40:20 +0000";
layers = (
{
hints = (
{
horizontal = 1;
place = (1, 27);
place = (1, 27);
type = Stem;
},
{
horizontal = 1;
place = (-2, 21);
target = up;
type = BottomGhost;
},
{
horizontal = 1;
place = (0, 21);
target = up;
type = BottomGhost;
},
{
horizontal = 1;
place = (478, -20);
target = down;
type = TopGhost;
},
{
place = (106, 85);
place = (106, 85);
type = Stem;
}
);
layerId = "8832323D-7B51-42FA-AB4B-A01DBB0D4C02";
shapes = (
{
closed = 1;
nodes = (
(191,297,ls,{
name = .hr01;
}),
(191,416,o),
(195,429,o),
(195,466,cs),
(195,474,o),
(189,478,o),
(180,478,cs),
(164,478,o),
(119,407,o),
(56,407,cs),
(50,407,o),
(50,397,o),
(50,393,cs),
(50,386,o),
(54,377,o),
(58,377,cs),
(78,377,ls),
(92,377,o),
(106,366,o),
(106,280,cs),
(106,45,ls),
(106,32,o),
(102,28,o),
(94,28,cs),
(36,28,ls),
(33,28,o),
(31,19,o),
(31,13,cs),
(31,7,o),
(34,-2,o),
(38,-2,cs,{
name = .hr02;
}),
(76,-2,o),
(97,1,o),
(154,1,cs,{
name = .hr03;
}),
(196,1,o),
(209,0,o),
(263,0,cs,{
name = .hr04;
}),
(267,0,o),
(269,7,o),
(269,13,cs),
(269,20,o),
(266,30,o),
(261,30,cs),
(212,30,ls),
(202,30,o),
(191,41,o),
(191,118,cs)
);
}
);
width = 298;
}
);
unicode = 305;
},
{
glyphname = iacute;
lastChange = "2023-03-28 14:40:20 +0000";
layers = (
{
hints = (
{
horizontal = 1;
place = (1, 27);
place = (1, 27);
type = Stem;
},
{
horizontal = 1;
place = (-2, 21);
target = up;
type = BottomGhost;
},
{
horizontal = 1;
place = (0, 21);
target = up;
type = BottomGhost;
},
{
horizontal = 1;
place = (744, -20);
target = down;
type = TopGhost;
},
{
place = (106, 85);
place = (106, 85);
type = Stem;
}
);
layerId = "8832323D-7B51-42FA-AB4B-A01DBB0D4C02";
shapes = (
{
closed = 1;
nodes = (
(191,297,ls,{
name = .hr01;
}),
(191,416,o),
(195,429,o),
(195,466,cs),
(195,474,o),
(189,478,o),
(180,478,cs),
(164,478,o),
(119,407,o),
(56,407,cs),
(50,407,o),
(50,397,o),
(50,393,cs),
(50,386,o),
(54,377,o),
(58,377,cs),
(78,377,ls),
(92,377,o),
(106,366,o),
(106,280,cs),
(106,45,ls),
(106,32,o),
(102,28,o),
(94,28,cs),
(36,28,ls),
(33,28,o),
(31,19,o),
(31,13,cs),
(31,7,o),
(34,-2,o),
(38,-2,cs,{
name = .hr02;
}),
(76,-2,o),
(97,1,o),
(154,1,cs,{
name = .hr03;
}),
(196,1,o),
(209,0,o),
(263,0,cs,{
name = .hr04;
}),
(267,0,o),
(269,7,o),
(269,13,cs),
(269,20,o),
(266,30,o),
(261,30,cs),
(212,30,ls),
(202,30,o),
(191,41,o),
(191,118,cs)
);
},
{
closed = 1;
nodes = (
(227,640,o),
(287,675,o),
(287,712,cs),
(287,731,o),
(272,744,o),
(252,744,cs),
(190,744,o),
(183,685,o),
(56,550,cs),
(53,547,o),
(52,545,o),
(52,543,cs),
(52,538,o),
(58,534,o),
(65,534,cs),
(68,534,o),
(72,535,o),
(75,537,cs)
);
}
);
width = 298;
}
);
unicode = 237;
},
{
glyphname = icircumflex;
lastChange = "2023-03-28 14:40:20 +0000";
layers = (
{
hints = (
{
horizontal = 1;
place = (1, 27);
place = (1, 27);
type = Stem;
},
{
horizontal = 1;
place = (-2, 21);
target = up;
type = BottomGhost;
},
{
horizontal = 1;
place = (0, 21);
target = up;
type = BottomGhost;
},
{
horizontal = 1;
place = (691, -20);
target = down;
type = TopGhost;
},
{
place = (106, 85);
place = (106, 85);
type = Stem;
}
);
layerId = "8832323D-7B51-42FA-AB4B-A01DBB0D4C02";
shapes = (
{
closed = 1;
nodes = (
(191,297,ls,{
name = .hr01;
}),
(191,416,o),
(195,429,o),
(195,466,cs),
(195,474,o),
(189,478,o),
(180,478,cs),
(164,478,o),
(119,407,o),
(56,407,cs),
(50,407,o),
(50,397,o),
(50,393,cs),
(50,386,o),
(54,377,o),
(58,377,cs),
(78,377,ls),
(92,377,o),
(106,366,o),
(106,280,cs),
(106,45,ls),
(106,32,o),
(102,28,o),
(94,28,cs),
(36,28,ls),
(33,28,o),
(31,19,o),
(31,13,cs),
(31,7,o),
(34,-2,o),
(38,-2,cs,{
name = .hr02;
}),
(76,-2,o),
(97,1,o),
(154,1,cs,{
name = .hr03;
}),
(196,1,o),
(209,0,o),
(263,0,cs,{
name = .hr04;
}),
(267,0,o),
(269,7,o),
(269,13,cs),
(269,20,o),
(266,30,o),
(261,30,cs),
(212,30,ls),
(202,30,o),
(191,41,o),
(191,118,cs)
);
},
{
closed = 1;
nodes = (
(258,530,ls),
(265,524,o),
(270,523,o),
(275,523,cs),
(284,523,o),
(289,530,o),
(289,530,c),
(179,677,l),
(170,686,o),
(160,691,o),
(150,691,cs),
(141,691,o),
(131,686,o),
(124,677,cs),
(10,530,l),
(12,525,o),
(15,522,o),
(21,522,cs),
(26,522,o),
(33,524,o),
(40,530,cs),
(151,620,l)
);
}
);
width = 298;
}
);
unicode = 238;
},
{
glyphname = idieresis;
lastChange = "2023-03-28 14:40:20 +0000";
layers = (
{
hints = (
{
horizontal = 1;
place = (1, 27);
place = (1, 27);
type = Stem;
},
{
horizontal = 1;
place = (-2, 21);
target = up;
type = BottomGhost;
},
{
horizontal = 1;
place = (0, 21);
target = up;
type = BottomGhost;
},
{
horizontal = 1;
place = (555, 102);
place = (555, 102);
type = Stem;
},
{
place = (15, 102);
place = (15, 102);
type = Stem;
},
{
place = (106, 85);
place = (106, 85);
type = Stem;
},
{
place = (182, 102);
place = (182, 102);
type = Stem;
}
);
layerId = "8832323D-7B51-42FA-AB4B-A01DBB0D4C02";
shapes = (
{
closed = 1;
nodes = (
(191,297,ls,{
name = .hr01;
}),
(191,416,o),
(195,429,o),
(195,466,cs),
(195,474,o),
(189,478,o),
(180,478,cs),
(164,478,o),
(119,407,o),
(56,407,cs),
(50,407,o),
(50,397,o),
(50,393,cs),
(50,386,o),
(54,377,o),
(58,377,cs),
(78,377,ls),
(92,377,o),
(106,366,o),
(106,280,cs),
(106,45,ls),
(106,32,o),
(102,28,o),
(94,28,cs),
(36,28,ls),
(33,28,o),
(31,19,o),
(31,13,cs),
(31,7,o),
(34,-2,o),
(38,-2,cs,{
name = .hr02;
}),
(76,-2,o),
(97,1,o),
(154,1,cs,{
name = .hr03;
}),
(196,1,o),
(209,0,o),
(263,0,cs,{
name = .hr04;
}),
(267,0,o),
(269,7,o),
(269,13,cs),
(269,20,o),
(266,30,o),
(261,30,cs),
(212,30,ls),
(202,30,o),
(191,41,o),
(191,118,cs)
);
},
{
closed = 1;
nodes = (
(95,555,o),
(117,579,o),
(117,608,cs,{
name = .hr05;
}),
(117,635,o),
(92,657,o),
(66,657,cs),
(39,657,o),
(15,636,o),
(15,608,cs),
(15,579,o),
(36,555,o),
(66,555,cs)
);
},
{
closed = 1;
nodes = (
(263,555,o),
(284,579,o),
(284,608,cs),
(284,635,o),
(260,657,o),
(233,657,cs),
(207,657,o),
(182,636,o),
(182,608,cs),
(182,579,o),
(204,555,o),
(233,555,cs)
);
}
);
width = 298;
}
);
unicode = 239;
},
{
glyphname = igrave;
lastChange = "2023-03-28 14:40:20 +0000";
layers = (
{
hints = (
{
horizontal = 1;
place = (1, 27);
place = (1, 27);
type = Stem;
},
{
horizontal = 1;
place = (-2, 21);
target = up;
type = BottomGhost;
},
{
horizontal = 1;
place = (0, 21);
target = up;
type = BottomGhost;
},
{
horizontal = 1;
place = (737, -20);
target = down;
type = TopGhost;
},
{
place = (29, 162);
place = (29, 162);
type = Stem;
},
{
place = (106, 85);
place = (106, 85);
type = Stem;
}
);
layerId = "8832323D-7B51-42FA-AB4B-A01DBB0D4C02";
shapes = (
{
closed = 1;
nodes = (
(191,297,ls,{
name = .hr01;
}),
(191,416,o),
(195,429,o),
(195,466,cs),
(195,474,o),
(189,478,o),
(180,478,cs),
(164,478,o),
(119,407,o),
(56,407,cs),
(50,407,o),
(50,397,o),
(50,393,cs),
(50,386,o),
(54,377,o),
(58,377,cs),
(78,377,ls),
(92,377,o),
(106,366,o),
(106,280,cs),
(106,45,ls),
(106,32,o),
(102,28,o),
(94,28,cs),
(36,28,ls),
(33,28,o),
(31,19,o),
(31,13,cs),
(31,7,o),
(34,-2,o),
(38,-2,cs,{
name = .hr02;
}),
(76,-2,o),
(97,1,o),
(154,1,cs,{
name = .hr03;
}),
(196,1,o),
(209,0,o),
(263,0,cs,{
name = .hr04;
}),
(267,0,o),
(269,7,o),
(269,13,cs),
(269,20,o),
(266,30,o),
(261,30,cs),
(212,30,ls),
(202,30,o),
(191,41,o),
(191,118,cs)
);
},
{
closed = 1;
nodes = (
(222,535,o),
(226,534,o),
(229,534,cs),
(236,534,o),
(242,538,o),
(242,543,cs),
(242,545,o),
(241,547,o),
(238,550,cs),
(117,685,o),
(126,737,o),
(64,737,cs),
(44,737,o),
(29,724,o),
(29,705,cs,{
name = .hr05;
}),
(29,668,o),
(69,640,o),
(219,537,cs)
);
}
);
width = 298;
}
);
unicode = 236;
},
{
glyphname = j;
lastChange = "2023-03-28 14:40:20 +0000";
layers = (
{
hints = (
{
horizontal = 1;
place = (-281, 45);
place = (-281, 45);
type = Stem;
},
{
horizontal = 1;
place = (585, 107);
place = (585, 107);
type = Stem;
},
{
place = (108, 107);
place = (108, 107);
type = Stem;
},
{
place = (130, 85);
place = (130, 85);
type = Stem;
}
);
layerId = "8832323D-7B51-42FA-AB4B-A01DBB0D4C02";
shapes = (
{
closed = 1;
nodes = (
(215,297,ls,{
name = .hr01;
}),
(215,416,o),
(219,429,o),
(219,466,cs),
(219,474,o),
(213,478,o),
(204,478,cs),
(188,478,o),
(143,407,o),
(80,407,cs),
(74,407,o),
(74,397,o),
(74,393,cs),
(74,386,o),
(78,377,o),
(82,377,cs),
(102,377,ls),
(116,377,o),
(130,366,o),
(130,280,cs),
(130,-15,ls),
(130,-93,o),
(128,-236,o),
(36,-236,cs),
(-6,-236,o),
(-31,-203,o),
(-47,-178,c),
(-76,-188,o),
(-91,-207,o),
(-91,-226,cs),
(-91,-253,o),
(-62,-281,o),
(-6,-281,cs),
(177,-281,o),
(215,-65,o),
(215,42,cs)
);
},
{
closed = 1;
nodes = (
(192,585,o),
(215,609,o),
(215,638,cs),
(215,668,o),
(192,692,o),
(162,692,cs),
(132,692,o),
(108,668,o),
(108,638,cs,{
name = .hr02;
}),
(108,607,o),
(134,585,o),
(164,585,cs)
);
}
);
width = 299;
}
);
unicode = 106;
},
{
glyphname = k;
lastChange = "2023-03-28 14:40:20 +0000";
layers = (
{
hints = (
{
horizontal = 1;
place = (1, 27);
place = (1, 27);
type = Stem;
},
{
horizontal = 1;
place = (-2, 21);
target = up;
type = BottomGhost;
},
{
horizontal = 1;
place = (0, 21);
target = up;
type = BottomGhost;
},
{
horizontal = 1;
place = (412, 26);
place = (412, 26);
type = Stem;
},
{
horizontal = 1;
place = (681, 30);
place = (681, 30);
type = Stem;
},
{
horizontal = 1;
place = (747, -20);
target = down;
type = TopGhost;
},
{
place = (109, 85);
place = (109, 85);
type = Stem;
}
);
layerId = "8832323D-7B51-42FA-AB4B-A01DBB0D4C02";
shapes = (
{
closed = 1;
nodes = (
(194,355,ls,{
name = .hr01;
}),
(194,503,o),
(195,698,o),
(195,735,cs),
(195,743,o),
(189,747,o),
(180,747,c),
(153,736,o),
(109,711,o),
(37,711,cs),
(31,711,o),
(31,701,o),
(31,697,cs),
(31,690,o),
(35,681,o),
(39,681,cs),
(84,681,ls),
(96,681,o),
(109,670,o),
(109,584,cs),
(109,45,ls),
(109,32,o),
(105,28,o),
(97,28,cs),
(39,28,ls),
(36,28,o),
(34,19,o),
(34,13,cs),
(34,7,o),
(37,-2,o),
(41,-2,cs,{
name = .hr02;
}),
(79,-2,o),
(100,1,o),
(157,1,cs,{
name = .hr03;
}),
(199,1,o),
(212,0,o),
(266,0,cs,{
name = .hr04;
}),
(270,0,o),
(272,7,o),
(272,13,cs),
(272,20,o),
(269,30,o),
(264,30,cs),
(215,30,ls),
(205,30,o),
(194,41,o),
(194,118,cs),
(194,164,l),
(234,202,l),
(382,18,o),
(405,0,o),
(421,0,c),
(421,0,o),
(434,1,o),
(469,1,cs,{
name = .hr05;
}),
(486,1,o),
(504,1,o),
(518,0,c,{
name = .hr06;
}),
(525,0,o),
(529,5,o),
(529,15,cs),
(529,21,o),
(526,30,o),
(519,30,cs),
(502,30,o),
(497,31,o),
(483,41,cs),
(460,57,o),
(393,120,o),
(290,254,c),
(446,400,ls),
(455,408,o),
(464,413,o),
(475,413,cs),
(491,413,ls),
(495,413,o),
(496,417,o),
(496,423,cs),
(496,430,o),
(495,438,o),
(489,438,cs),
(459,438,o),
(446,436,o),
(415,436,cs),
(381,436,o),
(348,438,o),
(314,438,cs),
(311,438,o),
(309,432,o),
(309,427,cs),
(309,421,o),
(312,412,o),
(317,412,cs),
(365,412,ls),
(369,412,o),
(373,410,o),
(373,403,cs),
(373,393,o),
(366,371,o),
(330,337,cs),
(194,205,l)
);
}
);
width = 526;
}
);
unicode = 107;
},
{
glyphname = l;
lastChange = "2023-03-28 14:40:20 +0000";
layers = (
{
hints = (
{
horizontal = 1;
place = (1, 27);
place = (1, 27);
type = Stem;
},
{
horizontal = 1;
place = (-2, 21);
target = up;
type = BottomGhost;
},
{
horizontal = 1;
place = (0, 21);
target = up;
type = BottomGhost;
},
{
horizontal = 1;
place = (681, 30);
place = (681, 30);
type = Stem;
},
{
horizontal = 1;
place = (747, -20);
target = down;
type = TopGhost;
},
{
place = (109, 85);
place = (109, 85);
type = Stem;
}
);
layerId = "8832323D-7B51-42FA-AB4B-A01DBB0D4C02";
shapes = (
{
closed = 1;
nodes = (
(194,355,ls,{
name = .hr01;
}),
(194,503,o),
(195,698,o),
(195,735,cs),
(195,743,o),
(189,747,o),
(180,747,c),
(153,736,o),
(109,711,o),
(37,711,cs),
(31,711,o),
(31,701,o),
(31,697,cs),
(31,690,o),
(35,681,o),
(39,681,cs),
(84,681,ls),
(96,681,o),
(109,670,o),
(109,584,cs),
(109,45,ls),
(109,32,o),
(105,28,o),
(97,28,cs),
(39,28,ls),
(36,28,o),
(34,19,o),
(34,13,cs),
(34,7,o),
(37,-2,o),
(41,-2,cs,{
name = .hr02;
}),
(79,-2,o),
(100,1,o),
(157,1,cs,{
name = .hr03;
}),
(199,1,o),
(212,0,o),
(266,0,cs,{
name = .hr04;
}),
(270,0,o),
(272,7,o),
(272,13,cs),
(272,20,o),
(269,30,o),
(264,30,cs),
(215,30,ls),
(205,30,o),
(194,41,o),
(194,118,cs)
);
}
);
width = 299;
}
);
unicode = 108;
},
{
glyphname = lslash;
lastChange = "2023-03-28 14:40:20 +0000";
layers = (
{
hints = (
{
horizontal = 1;
place = (1, 27);
place = (1, 27);
type = Stem;
},
{
horizontal = 1;
place = (-2, 21);
target = up;
type = BottomGhost;
},
{
horizontal = 1;
place = (0, 21);
target = up;
type = BottomGhost;
},
{
horizontal = 1;
place = (681, 30);
place = (681, 30);
type = Stem;
},
{
horizontal = 1;
place = (747, -20);
target = down;
type = TopGhost;
},
{
place = (109, 85);
place = (109, 85);
type = Stem;
}
);
layerId = "8832323D-7B51-42FA-AB4B-A01DBB0D4C02";
shapes = (
{
closed = 1;
nodes = (
(98,359,l,{
name = .hr01;
}),
(98,359,o),
(57,340,o),
(39,328,c),
(24,320,o),
(33,282,o),
(46,287,c),
(58,296,o),
(109,328,o),
(109,328,c),
(109,45,ls),
(109,32,o),
(105,28,o),
(97,28,cs),
(39,28,ls),
(36,28,o),
(34,19,o),
(34,13,cs),
(34,7,o),
(37,-2,o),
(41,-2,cs,{
name = .hr02;
}),
(79,-2,o),
(100,1,o),
(157,1,cs,{
name = .hr03;
}),
(199,1,o),
(212,0,o),
(266,0,cs,{
name = .hr04;
}),
(270,0,o),
(272,7,o),
(272,13,cs),
(272,20,o),
(269,30,o),
(264,30,cs),
(215,30,ls),
(205,30,o),
(194,41,o),
(194,118,cs),
(194,377,l),
(205,384,o),
(234,404,o),
(250,417,cs),
(270,433,o),
(258,462,o),
(249,456,cs),
(194,415,l),
(194,551,o),
(195,702,o),
(195,735,cs),
(195,743,o),
(189,747,o),
(180,747,c),
(153,736,o),
(109,711,o),
(37,711,cs),
(31,711,o),
(31,701,o),
(31,697,cs),
(31,690,o),
(35,681,o),
(39,681,cs),
(84,681,ls),
(96,681,o),
(109,670,o),
(109,584,cs),
(109,365,l)
);
}
);
width = 299;
}
);
unicode = 322;
},
{
glyphname = m;
lastChange = "2023-03-28 14:40:20 +0000";
layers = (
{
hints = (
{
horizontal = 1;
place = (1, 27);
place = (1, 27);
type = Stem;
},
{
horizontal = 1;
place = (-2, 21);
target = up;
type = BottomGhost;
},
{
horizontal = 1;
place = (0, 21);
target = up;
type = BottomGhost;
},
{
horizontal = 1;
place = (395, 55);
place = (395, 55);
type = Stem;
},
{
horizontal = 1;
place = (478, -20);
target = down;
type = TopGhost;
},
{
place = (109, 84);
place = (109, 84);
type = Stem;
},
{
place = (414, 85);
place = (414, 85);
type = Stem;
},
{
place = (719, 85);
place = (719, 85);
type = Stem;
}
);
layerId = "8832323D-7B51-42FA-AB4B-A01DBB0D4C02";
shapes = (
{
closed = 1;
nodes = (
(191,388,l,{
name = .hr01;
}),
(191,421,o),
(193,429,o),
(193,466,cs),
(193,474,o),
(187,478,o),
(179,478,cs),
(167,478,o),
(120,407,o),
(59,407,cs),
(53,407,o),
(53,397,o),
(53,393,cs),
(53,386,o),
(57,377,o),
(61,377,cs),
(81,377,ls),
(95,377,o),
(109,366,o),
(109,280,cs),
(109,45,ls),
(109,32,o),
(105,28,o),
(97,28,cs),
(39,28,ls),
(36,28,o),
(34,19,o),
(34,13,cs),
(34,7,o),
(37,-2,o),
(41,-2,cs,{
name = .hr02;
}),
(79,-2,o),
(100,1,o),
(157,1,cs,{
name = .hr03;
}),
(199,1,o),
(212,0,o),
(266,0,cs,{
name = .hr04;
}),
(270,0,o),
(272,7,o),
(272,13,cs),
(272,20,o),
(269,30,o),
(264,30,cs),
(215,30,ls),
(205,30,o),
(194,41,o),
(194,118,cs),
(194,355,l),
(214,377,o),
(251,395,o),
(291,395,cs),
(386,395,o),
(414,349,o),
(414,214,cs),
(414,45,ls),
(414,32,o),
(410,28,o),
(402,28,cs,{
name = .hr05;
}),
(344,28,ls),
(341,28,o),
(339,19,o),
(339,13,cs),
(339,7,o),
(342,-2,o),
(346,-2,cs,{
name = .hr06;
}),
(384,-2,o),
(405,1,o),
(462,1,cs,{
name = .hr07;
}),
(504,1,o),
(517,0,o),
(571,0,cs,{
name = .hr08;
}),
(575,0,o),
(577,7,o),
(577,13,cs),
(577,20,o),
(574,30,o),
(569,30,cs),
(520,30,ls),
(510,30,o),
(499,41,o),
(499,118,cs),
(499,258,ls),
(499,291,o),
(495,319,o),
(488,343,c),
(514,374,o),
(558,395,o),
(596,395,cs),
(691,395,o),
(719,349,o),
(719,214,cs),
(719,45,ls),
(719,32,o),
(715,28,o),
(707,28,cs,{
name = .hr09;
}),
(649,28,ls),
(646,28,o),
(644,19,o),
(644,13,cs),
(644,7,o),
(647,-2,o),
(651,-2,cs,{
name = .hr10;
}),
(689,-2,o),
(710,1,o),
(767,1,cs,{
name = .hr11;
}),
(809,1,o),
(822,0,o),
(876,0,cs,{
name = .hr12;
}),
(880,0,o),
(882,7,o),
(882,13,cs),
(882,20,o),
(879,30,o),
(874,30,cs),
(825,30,ls),
(815,30,o),
(804,41,o),
(804,118,cs),
(804,258,ls),
(804,398,o),
(739,450,o),
(641,450,cs),
(576,450,o),
(517,408,o),
(479,372,c),
(477,372,l),
(450,427,o),
(400,450,o),
(336,450,cs),
(292,450,o),
(233,425,o),
(193,388,c)
);
}
);
width = 902;
}
);
unicode = 109;
},
{
glyphname = n;
lastChange = "2023-03-28 14:40:20 +0000";
layers = (
{
hints = (
{
horizontal = 1;
place = (1, 27);
place = (1, 27);
type = Stem;
},
{
horizontal = 1;
place = (-2, 21);
target = up;
type = BottomGhost;
},
{
horizontal = 1;
place = (0, 21);
target = up;
type = BottomGhost;
},
{
horizontal = 1;
place = (395, 55);
place = (395, 55);
type = Stem;
},
{
horizontal = 1;
place = (478, -20);
target = down;
type = TopGhost;
},
{
place = (109, 84);
place = (109, 84);
type = Stem;
},
{
place = (417, 85);
place = (417, 85);
type = Stem;
}
);
layerId = "8832323D-7B51-42FA-AB4B-A01DBB0D4C02";
shapes = (
{
closed = 1;
nodes = (
(191,388,l,{
name = .hr01;
}),
(191,421,o),
(193,429,o),
(193,466,cs),
(193,474,o),
(187,478,o),
(179,478,cs),
(167,478,o),
(120,407,o),
(59,407,cs),
(53,407,o),
(53,397,o),
(53,393,cs),
(53,386,o),
(57,377,o),
(61,377,cs),
(81,377,ls),
(95,377,o),
(109,366,o),
(109,280,cs),
(109,45,ls),
(109,32,o),
(105,28,o),
(97,28,cs),
(39,28,ls),
(36,28,o),
(34,19,o),
(34,13,cs),
(34,7,o),
(37,-2,o),
(41,-2,cs,{
name = .hr02;
}),
(79,-2,o),
(100,1,o),
(157,1,cs,{
name = .hr03;
}),
(199,1,o),
(212,0,o),
(266,0,cs,{
name = .hr04;
}),
(270,0,o),
(272,7,o),
(272,13,cs),
(272,20,o),
(269,30,o),
(264,30,cs),
(215,30,ls),
(205,30,o),
(194,41,o),
(194,118,cs),
(194,355,l),
(214,377,o),
(251,395,o),
(291,395,cs),
(386,395,o),
(417,349,o),
(417,214,cs),
(417,45,ls),
(417,32,o),
(413,28,o),
(405,28,cs,{
name = .hr05;
}),
(347,28,ls),
(344,28,o),
(342,19,o),
(342,13,cs),
(342,7,o),
(345,-2,o),
(349,-2,cs,{
name = .hr06;
}),
(387,-2,o),
(408,1,o),
(465,1,cs,{
name = .hr07;
}),
(507,1,o),
(520,0,o),
(574,0,cs,{
name = .hr08;
}),
(578,0,o),
(580,7,o),
(580,13,cs),
(580,20,o),
(577,30,o),
(572,30,cs),
(523,30,ls),
(513,30,o),
(502,41,o),
(502,118,cs),
(502,258,ls),
(502,398,o),
(434,450,o),
(336,450,cs),
(292,450,o),
(233,425,o),
(193,388,c)
);
}
);
width = 600;
}
);
unicode = 110;
},
{
glyphname = ntilde;
lastChange = "2023-03-28 14:40:20 +0000";
layers = (
{
hints = (
{
horizontal = 1;
place = (569, 56);
place = (569, 56);
type = Stem;
},
{
horizontal = 1;
place = (610, 54);
place = (610, 54);
type = Stem;
},
{
horizontal = 1;
place = (660, -20);
target = down;
type = TopGhost;
},
{
place = (420, 26);
place = (420, 26);
type = Stem;
}
);
layerId = "8832323D-7B51-42FA-AB4B-A01DBB0D4C02";
shapes = (
{
closed = 1;
nodes = (
(191,388,l),
(191,421,o),
(193,429,o),
(193,466,cs),
(193,474,o),
(187,478,o),
(179,478,cs),
(167,478,o),
(120,407,o),
(59,407,cs),
(53,407,o),
(53,397,o),
(53,393,cs),
(53,386,o),
(57,377,o),
(61,377,cs),
(81,377,ls),
(95,377,o),
(109,366,o),
(109,280,cs),
(109,45,ls),
(109,32,o),
(105,28,o),
(97,28,cs),
(39,28,ls),
(36,28,o),
(34,19,o),
(34,13,cs),
(34,7,o),
(37,-2,o),
(41,-2,cs),
(79,-2,o),
(100,1,o),
(157,1,cs),
(199,1,o),
(212,0,o),
(266,0,cs),
(270,0,o),
(272,7,o),
(272,13,cs),
(272,20,o),
(269,30,o),
(264,30,cs),
(215,30,ls),
(205,30,o),
(194,41,o),
(194,118,cs),
(194,355,l),
(214,377,o),
(251,395,o),
(291,395,cs),
(386,395,o),
(417,349,o),
(417,214,cs),
(417,45,ls),
(417,32,o),
(413,28,o),
(405,28,cs),
(347,28,ls),
(344,28,o),
(342,19,o),
(342,13,cs),
(342,7,o),
(345,-2,o),
(349,-2,cs),
(387,-2,o),
(408,1,o),
(465,1,cs),
(507,1,o),
(520,0,o),
(574,0,cs),
(578,0,o),
(580,7,o),
(580,13,cs),
(580,20,o),
(577,30,o),
(572,30,cs),
(523,30,ls),
(513,30,o),
(502,41,o),
(502,118,cs),
(502,258,ls),
(502,398,o),
(434,450,o),
(336,450,cs),
(292,450,o),
(233,425,o),
(193,388,c)
);
},
{
closed = 1;
nodes = (
(172,596,o),
(214,603,o),
(252,603,cs),
(293,603,o),
(322,590,o),
(362,590,cs),
(406,590,o),
(462,618,o),
(466,721,cs),
(467,733,o),
(459,739,o),
(451,739,cs),
(446,739,o),
(441,737,o),
(440,731,cs),
(428,664,o),
(389,661,o),
(346,661,cs),
(309,661,o),
(280,674,o),
(237,674,cs),
(197,674,o),
(137,644,o),
(133,545,c),
(133,533,o),
(142,526,o),
(150,526,cs),
(155,526,o),
(159,529,o),
(160,534,cs)
);
}
);
width = 600;
}
);
unicode = 241;
},
{
glyphname = o;
lastChange = "2023-03-28 14:40:20 +0000";
layers = (
{
hints = (
{
horizontal = 1;
place = (-13, 36);
place = (-13, 36);
type = Stem;
},
{
horizontal = 1;
place = (414, 36);
place = (414, 36);
type = Stem;
},
{
place = (34, 100);
place = (34, 100);
type = Stem;
},
{
place = (415, 100);
place = (415, 100);
type = Stem;
}
);
layerId = "8832323D-7B51-42FA-AB4B-A01DBB0D4C02";
shapes = (
{
closed = 1;
nodes = (
(152,450,o),
(34,352,o),
(34,224,cs),
(34,92,o),
(144,-13,o),
(274,-13,cs),
(405,-13,o),
(515,85,o),
(515,220,cs),
(515,349,o),
(398,450,o),
(274,450,cs)
);
},
{
closed = 1;
nodes = (
(378,414,o),
(415,310,o),
(415,214,cs),
(415,125,o),
(378,23,o),
(279,23,cs),
(172,23,o),
(134,125,o),
(134,220,cs),
(134,307,o),
(171,414,o),
(270,414,cs)
);
}
);
width = 549;
}
);
unicode = 111;
},
{
glyphname = oacute;
lastChange = "2023-03-28 14:40:20 +0000";
layers = (
{
hints = (
{
horizontal = 1;
place = (-13, 36);
place = (-13, 36);
type = Stem;
},
{
horizontal = 1;
place = (414, 36);
place = (414, 36);
type = Stem;
},
{
horizontal = 1;
place = (744, -20);
target = down;
type = TopGhost;
},
{
place = (34, 100);
place = (34, 100);
type = Stem;
},
{
place = (415, 100);
place = (415, 100);
type = Stem;
}
);
layerId = "8832323D-7B51-42FA-AB4B-A01DBB0D4C02";
shapes = (
{
closed = 1;
nodes = (
(152,450,o),
(34,352,o),
(34,224,cs),
(34,92,o),
(144,-13,o),
(274,-13,cs),
(405,-13,o),
(515,85,o),
(515,220,cs),
(515,349,o),
(398,450,o),
(274,450,cs)
);
},
{
closed = 1;
nodes = (
(378,414,o),
(415,310,o),
(415,214,cs),
(415,125,o),
(378,23,o),
(279,23,cs),
(172,23,o),
(134,125,o),
(134,220,cs),
(134,307,o),
(171,414,o),
(270,414,cs)
);
},
{
closed = 1;
nodes = (
(362,640,o),
(422,675,o),
(422,712,cs),
(422,731,o),
(407,744,o),
(387,744,cs),
(325,744,o),
(318,685,o),
(191,550,cs),
(188,547,o),
(187,545,o),
(187,543,cs),
(187,538,o),
(193,534,o),
(200,534,cs),
(203,534,o),
(207,535,o),
(210,537,cs)
);
}
);
width = 549;
}
);
unicode = 243;
},
{
glyphname = ocircumflex;
lastChange = "2023-03-28 14:40:20 +0000";
layers = (
{
hints = (
{
horizontal = 1;
place = (-13, 36);
place = (-13, 36);
type = Stem;
},
{
horizontal = 1;
place = (414, 36);
place = (414, 36);
type = Stem;
},
{
horizontal = 1;
place = (691, -20);
target = down;
type = TopGhost;
},
{
place = (34, 100);
place = (34, 100);
type = Stem;
},
{
place = (415, 100);
place = (415, 100);
type = Stem;
}
);
layerId = "8832323D-7B51-42FA-AB4B-A01DBB0D4C02";
shapes = (
{
closed = 1;
nodes = (
(152,450,o),
(34,352,o),
(34,224,cs),
(34,92,o),
(144,-13,o),
(274,-13,cs),
(405,-13,o),
(515,85,o),
(515,220,cs),
(515,349,o),
(398,450,o),
(274,450,cs)
);
},
{
closed = 1;
nodes = (
(378,414,o),
(415,310,o),
(415,214,cs),
(415,125,o),
(378,23,o),
(279,23,cs),
(172,23,o),
(134,125,o),
(134,220,cs),
(134,307,o),
(171,414,o),
(270,414,cs)
);
},
{
closed = 1;
nodes = (
(393,530,ls),
(400,524,o),
(405,523,o),
(410,523,cs),
(419,523,o),
(424,530,o),
(424,530,c),
(314,677,l),
(305,686,o),
(295,691,o),
(285,691,cs),
(276,691,o),
(266,686,o),
(259,677,cs),
(145,530,l),
(147,525,o),
(150,522,o),
(156,522,cs),
(161,522,o),
(168,524,o),
(175,530,cs),
(286,620,l)
);
}
);
width = 549;
}
);
unicode = 244;
},
{
glyphname = odieresis;
lastChange = "2023-03-28 14:40:20 +0000";
layers = (
{
hints = (
{
horizontal = 1;
place = (-13, 36);
place = (-13, 36);
type = Stem;
},
{
horizontal = 1;
place = (414, 36);
place = (414, 36);
type = Stem;
},
{
horizontal = 1;
place = (555, 102);
place = (555, 102);
type = Stem;
},
{
place = (34, 100);
place = (34, 100);
type = Stem;
},
{
place = (140, 102);
place = (140, 102);
type = Stem;
},
{
place = (307, 102);
place = (307, 102);
type = Stem;
},
{
place = (415, 100);
place = (415, 100);
type = Stem;
}
);
layerId = "8832323D-7B51-42FA-AB4B-A01DBB0D4C02";
shapes = (
{
closed = 1;
nodes = (
(152,450,o),
(34,352,o),
(34,224,cs),
(34,92,o),
(144,-13,o),
(274,-13,cs),
(405,-13,o),
(515,85,o),
(515,220,cs),
(515,349,o),
(398,450,o),
(274,450,cs)
);
},
{
closed = 1;
nodes = (
(378,414,o),
(415,310,o),
(415,214,cs),
(415,125,o),
(378,23,o),
(279,23,cs),
(172,23,o),
(134,125,o),
(134,220,cs),
(134,307,o),
(171,414,o),
(270,414,cs)
);
},
{
closed = 1;
nodes = (
(220,555,o),
(242,579,o),
(242,608,cs),
(242,635,o),
(217,657,o),
(191,657,cs),
(164,657,o),
(140,636,o),
(140,608,cs),
(140,579,o),
(161,555,o),
(191,555,cs)
);
},
{
closed = 1;
nodes = (
(388,555,o),
(409,579,o),
(409,608,cs),
(409,635,o),
(385,657,o),
(358,657,cs),
(332,657,o),
(307,636,o),
(307,608,cs),
(307,579,o),
(329,555,o),
(358,555,cs)
);
}
);
width = 549;
}
);
unicode = 246;
},
{
glyphname = ograve;
lastChange = "2023-03-28 14:40:20 +0000";
layers = (
{
hints = (
{
horizontal = 1;
place = (-13, 36);
place = (-13, 36);
type = Stem;
},
{
horizontal = 1;
place = (414, 36);
place = (414, 36);
type = Stem;
},
{
horizontal = 1;
place = (737, -20);
target = down;
type = TopGhost;
},
{
place = (34, 100);
place = (34, 100);
type = Stem;
},
{
place = (415, 100);
place = (415, 100);
type = Stem;
}
);
layerId = "8832323D-7B51-42FA-AB4B-A01DBB0D4C02";
shapes = (
{
closed = 1;
nodes = (
(152,450,o),
(34,352,o),
(34,224,cs),
(34,92,o),
(144,-13,o),
(274,-13,cs),
(405,-13,o),
(515,85,o),
(515,220,cs),
(515,349,o),
(398,450,o),
(274,450,cs)
);
},
{
closed = 1;
nodes = (
(378,414,o),
(415,310,o),
(415,214,cs),
(415,125,o),
(378,23,o),
(279,23,cs),
(172,23,o),
(134,125,o),
(134,220,cs),
(134,307,o),
(171,414,o),
(270,414,cs)
);
},
{
closed = 1;
nodes = (
(382,535,o),
(386,534,o),
(389,534,cs),
(396,534,o),
(402,538,o),
(402,543,cs),
(402,545,o),
(401,547,o),
(398,550,cs),
(277,685,o),
(286,737,o),
(224,737,cs),
(204,737,o),
(189,724,o),
(189,705,cs),
(189,668,o),
(229,640,o),
(379,537,cs)
);
}
);
width = 549;
}
);
unicode = 242;
},
{
glyphname = oslash;
lastChange = "2023-03-28 14:40:20 +0000";
layers = (
{
hints = (
{
horizontal = 1;
place = (-78, 21);
target = up;
type = BottomGhost;
},
{
horizontal = 1;
place = (-13, 36);
place = (-13, 36);
type = Stem;
},
{
horizontal = 1;
place = (414, 36);
place = (414, 36);
type = Stem;
},
{
horizontal = 1;
place = (533, -20);
target = down;
type = TopGhost;
},
{
place = (34, 100);
place = (34, 100);
type = Stem;
},
{
place = (415, 100);
place = (415, 100);
type = Stem;
}
);
layerId = "8832323D-7B51-42FA-AB4B-A01DBB0D4C02";
shapes = (
{
closed = 1;
nodes = (
(152,450,o),
(34,352,o),
(34,224,cs),
(34,137,o),
(81,62,o),
(151,20,c),
(107,-61,l),
(119,-73,o),
(128,-78,o),
(137,-78,cs),
(148,-78,o),
(155,-70,o),
(163,-54,cs),
(192,1,l),
(218,-8,o),
(245,-13,o),
(274,-13,cs),
(405,-13,o),
(515,85,o),
(515,220,cs),
(515,298,o),
(472,365,o),
(410,407,c),
(469,516,l),
(469,516,o),
(455,533,o),
(439,533,cs),
(430,533,o),
(424,529,o),
(415,513,cs),
(370,429,l),
(340,442,o),
(307,450,o),
(274,450,cs)
);
},
{
closed = 1;
nodes = (
(302,414,o),
(328,404,o),
(348,389,c),
(177,70,l),
(146,108,o),
(134,165,o),
(134,220,cs),
(134,307,o),
(171,414,o),
(270,414,cs)
);
},
{
closed = 1;
nodes = (
(415,125,o),
(378,23,o),
(279,23,cs),
(253,23,o),
(231,29,o),
(213,39,c),
(381,352,l),
(405,314,o),
(415,263,o),
(415,214,cs)
);
}
);
width = 549;
}
);
unicode = 248;
},
{
glyphname = otilde;
lastChange = "2023-03-28 14:40:20 +0000";
layers = (
{
hints = (
{
horizontal = 1;
place = (-13, 36);
place = (-13, 36);
type = Stem;
},
{
horizontal = 1;
place = (414, 36);
place = (414, 36);
type = Stem;
},
{
horizontal = 1;
place = (590, 71);
place = (590, 71);
type = Stem;
},
{
horizontal = 1;
place = (603, 58);
place = (603, 58);
type = Stem;
},
{
horizontal = 1;
place = (603, 71);
place = (603, 71);
type = Stem;
},
{
horizontal = 1;
place = (739, -20);
target = down;
type = TopGhost;
},
{
place = (34, 100);
place = (34, 100);
type = Stem;
},
{
place = (415, 100);
place = (415, 100);
type = Stem;
}
);
layerId = "8832323D-7B51-42FA-AB4B-A01DBB0D4C02";
shapes = (
{
closed = 1;
nodes = (
(152,450,o),
(34,352,o),
(34,224,cs),
(34,92,o),
(144,-13,o),
(274,-13,cs),
(405,-13,o),
(515,85,o),
(515,220,cs),
(515,349,o),
(398,450,o),
(274,450,cs,{
name = .hr01;
})
);
},
{
closed = 1;
nodes = (
(378,414,o),
(415,310,o),
(415,214,cs),
(415,125,o),
(378,23,o),
(279,23,cs),
(172,23,o),
(134,125,o),
(134,220,cs),
(134,307,o),
(171,414,o),
(270,414,cs)
);
},
{
closed = 1;
nodes = (
(146,596,o),
(188,603,o),
(226,603,cs),
(267,603,o),
(296,590,o),
(336,590,cs,{
name = .hr02;
}),
(380,590,o),
(436,618,o),
(440,721,cs),
(441,733,o),
(433,739,o),
(425,739,cs),
(420,739,o),
(415,737,o),
(414,731,cs),
(402,664,o),
(363,661,o),
(320,661,cs),
(283,661,o),
(254,674,o),
(211,674,cs,{
name = .hr03;
}),
(171,674,o),
(111,644,o),
(107,545,c),
(107,533,o),
(116,526,o),
(124,526,cs),
(129,526,o),
(133,529,o),
(134,534,cs)
);
}
);
width = 549;
}
);
unicode = 245;
},
{
glyphname = oe;
lastChange = "2023-03-28 14:40:20 +0000";
layers = (
{
hints = (
{
horizontal = 1;
place = (-13, 23);
place = (-13, 23);
type = Stem;
},
{
horizontal = 1;
place = (-13, 32);
place = (-13, 32);
type = Stem;
},
{
horizontal = 1;
place = (268, 27);
place = (268, 27);
type = Stem;
},
{
horizontal = 1;
place = (417, 23);
place = (417, 23);
type = Stem;
},
{
place = (34, 100);
place = (34, 100);
type = Stem;
},
{
place = (415, 100);
place = (415, 100);
type = Stem;
},
{
place = (567, 100);
place = (567, 100);
type = Stem;
},
{
place = (890, 93);
place = (890, 93);
type = Stem;
}
);
layerId = "8832323D-7B51-42FA-AB4B-A01DBB0D4C02";
shapes = (
{
closed = 1;
nodes = (
(152,450,o),
(34,352,o),
(34,224,cs),
(34,92,o),
(144,-13,o),
(274,-13,cs),
(361,-13,o),
(445,32,o),
(483,109,c),
(486,109,l),
(514,38,o),
(586,-13,o),
(669,-13,cs),
(805,-13,o),
(850,95,o),
(850,112,cs),
(850,120,o),
(846,124,o),
(839,124,cs),
(821,124,o),
(805,72,o),
(695,72,cs),
(618,72,o),
(514,117,o),
(514,242,c),
(642,250,o),
(740,245,o),
(809,250,cs),
(836,252,o),
(843,259,o),
(843,280,cs),
(843,383,o),
(774,449,o),
(689,449,cs),
(614,449,o),
(529,403,o),
(490,319,c),
(487,319,l),
(456,391,o),
(368,450,o),
(274,450,cs)
);
},
{
closed = 1;
nodes = (
(378,414,o),
(415,310,o),
(415,214,cs),
(415,125,o),
(378,23,o),
(279,23,cs),
(172,23,o),
(134,125,o),
(134,220,cs),
(134,307,o),
(171,414,o),
(270,414,cs)
);
},
{
closed = 1;
nodes = (
(716,395,o),
(758,356,o),
(758,311,cs),
(758,299,o),
(749,295,o),
(725,292,cs),
(684,286,o),
(586,280,o),
(517,273,c),
(532,354,o),
(601,395,o),
(662,395,cs)
);
}
);
width = 888;
}
);
unicode = 339;
},
{
glyphname = p;
lastChange = "2023-03-28 14:40:20 +0000";
layers = (
{
hints = (
{
horizontal = 1;
place = (-269, 27);
place = (-269, 27);
type = Stem;
},
{
horizontal = 1;
place = (-272, 21);
target = up;
type = BottomGhost;
},
{
horizontal = 1;
place = (-13, 36);
place = (-13, 36);
type = Stem;
},
{
horizontal = 1;
place = (389, 61);
place = (389, 61);
type = Stem;
},
{
horizontal = 1;
place = (478, -20);
target = down;
type = TopGhost;
},
{
place = (98, 82);
place = (98, 82);
type = Stem;
},
{
place = (443, 100);
place = (443, 100);
type = Stem;
}
);
layerId = "8832323D-7B51-42FA-AB4B-A01DBB0D4C02";
shapes = (
{
closed = 1;
nodes = (
(177,370,l,{
name = .hr01;
}),
(177,403,o),
(180,429,o),
(180,466,cs),
(180,474,o),
(174,478,o),
(166,478,cs),
(154,478,o),
(109,407,o),
(48,407,cs),
(42,407,o),
(42,397,o),
(42,393,cs),
(42,386,o),
(46,377,o),
(50,377,cs),
(70,377,ls),
(84,377,o),
(98,366,o),
(98,280,cs),
(98,-225,ls),
(98,-238,o),
(94,-242,o),
(86,-242,cs),
(28,-242,ls),
(25,-242,o),
(23,-251,o),
(23,-257,cs),
(23,-263,o),
(26,-272,o),
(30,-272,cs,{
name = .hr02;
}),
(68,-272,o),
(89,-269,o),
(146,-269,cs,{
name = .hr03;
}),
(188,-269,o),
(201,-270,o),
(255,-270,cs),
(259,-270,o),
(261,-263,o),
(261,-257,cs),
(261,-250,o),
(258,-240,o),
(253,-240,cs),
(204,-240,ls),
(194,-240,o),
(183,-229,o),
(183,-152,cs),
(183,-70,ls),
(183,-33,o),
(183,14,o),
(182,31,c),
(204,14,o),
(237,-13,o),
(311,-13,cs),
(438,-13,o),
(543,98,o),
(543,233,cs),
(543,362,o),
(470,450,o),
(349,450,cs),
(267,450,o),
(212,412,o),
(179,370,c)
);
},
{
closed = 1;
nodes = (
(183,343,l),
(202,359,o),
(228,389,o),
(291,389,cs),
(388,389,o),
(443,306,o),
(443,217,cs),
(443,128,o),
(407,23,o),
(308,23,cs),
(240,23,o),
(192,58,o),
(183,164,c)
);
}
);
width = 582;
}
);
unicode = 112;
},
{
glyphname = thorn;
lastChange = "2023-03-28 14:40:20 +0000";
layers = (
{
hints = (
{
horizontal = 1;
place = (-269, 27);
place = (-269, 27);
type = Stem;
},
{
horizontal = 1;
place = (-272, 21);
target = up;
type = BottomGhost;
},
{
horizontal = 1;
place = (-13, 36);
place = (-13, 36);
type = Stem;
},
{
horizontal = 1;
place = (389, 61);
place = (389, 61);
type = Stem;
},
{
horizontal = 1;
place = (681, 30);
place = (681, 30);
type = Stem;
},
{
horizontal = 1;
place = (747, -20);
target = down;
type = TopGhost;
},
{
place = (118, 83);
place = (118, 83);
type = Stem;
},
{
place = (463, 100);
place = (463, 100);
type = Stem;
}
);
layerId = "8832323D-7B51-42FA-AB4B-A01DBB0D4C02";
shapes = (
{
closed = 1;
nodes = (
(201,375,l,{
name = .hr01;
}),
(201,523,o),
(204,698,o),
(204,735,cs),
(204,743,o),
(198,747,o),
(189,747,c),
(162,736,o),
(118,711,o),
(46,711,cs),
(40,711,o),
(40,701,o),
(40,697,cs),
(40,690,o),
(44,681,o),
(48,681,cs),
(93,681,ls),
(105,681,o),
(118,670,o),
(118,584,cs),
(118,-225,ls),
(118,-238,o),
(114,-242,o),
(106,-242,cs),
(48,-242,ls),
(45,-242,o),
(43,-251,o),
(43,-257,cs),
(43,-263,o),
(46,-272,o),
(50,-272,cs,{
name = .hr02;
}),
(88,-272,o),
(109,-269,o),
(166,-269,cs,{
name = .hr03;
}),
(208,-269,o),
(221,-270,o),
(275,-270,cs),
(279,-270,o),
(281,-263,o),
(281,-257,cs),
(281,-250,o),
(278,-240,o),
(273,-240,cs),
(224,-240,ls),
(214,-240,o),
(203,-229,o),
(203,-152,cs),
(203,-70,ls),
(203,-33,o),
(203,14,o),
(202,31,c),
(224,14,o),
(257,-13,o),
(331,-13,cs),
(458,-13,o),
(563,98,o),
(563,233,cs),
(563,362,o),
(490,450,o),
(369,450,cs),
(290,450,o),
(236,415,o),
(203,375,c)
);
},
{
closed = 1;
nodes = (
(203,343,l),
(222,359,o),
(248,389,o),
(311,389,cs),
(408,389,o),
(463,306,o),
(463,217,cs),
(463,128,o),
(427,23,o),
(328,23,cs),
(260,23,o),
(212,58,o),
(203,164,c)
);
}
);
width = 603;
}
);
unicode = 254;
},
{
glyphname = q;
lastChange = "2023-03-28 14:40:20 +0000";
layers = (
{
hints = (
{
horizontal = 1;
place = (-269, 27);
place = (-269, 27);
type = Stem;
},
{
horizontal = 1;
place = (-272, 21);
target = up;
type = BottomGhost;
},
{
horizontal = 1;
place = (-13, 61);
place = (-13, 61);
type = Stem;
},
{
horizontal = 1;
place = (414, 36);
place = (414, 36);
type = Stem;
},
{
horizontal = 1;
place = (484, -20);
target = down;
type = TopGhost;
},
{
place = (39, 100);
place = (39, 100);
type = Stem;
},
{
place = (399, 85);
place = (399, 85);
type = Stem;
}
);
layerId = "8832323D-7B51-42FA-AB4B-A01DBB0D4C02";
shapes = (
{
closed = 1;
nodes = (
(399,-225,ls,{
name = .hr01;
}),
(399,-238,o),
(395,-242,o),
(387,-242,cs),
(329,-242,ls),
(326,-242,o),
(324,-251,o),
(324,-257,cs),
(324,-263,o),
(327,-272,o),
(331,-272,cs,{
name = .hr02;
}),
(369,-272,o),
(390,-269,o),
(447,-269,cs,{
name = .hr03;
}),
(489,-269,o),
(502,-270,o),
(556,-270,cs),
(560,-270,o),
(562,-263,o),
(562,-257,cs),
(562,-250,o),
(559,-240,o),
(554,-240,cs),
(505,-240,ls),
(495,-240,o),
(484,-229,o),
(484,-152,cs),
(484,146,ls),
(484,440,o),
(499,448,o),
(499,472,cs),
(499,478,o),
(496,484,o),
(483,484,cs),
(468,484,o),
(452,393,o),
(427,393,cs),
(425,393,ls),
(398,393,o),
(377,450,o),
(271,450,cs),
(144,450,o),
(39,339,o),
(39,204,cs),
(39,75,o),
(112,-13,o),
(233,-13,cs),
(310,-13,o),
(364,20,o),
(397,61,c),
(399,61,l)
);
},
{
closed = 1;
nodes = (
(399,94,l),
(380,78,o),
(354,48,o),
(291,48,cs),
(194,48,o),
(139,131,o),
(139,220,cs),
(139,309,o),
(175,414,o),
(274,414,cs),
(342,414,o),
(390,379,o),
(399,273,c)
);
}
);
width = 568;
}
);
unicode = 113;
},
{
glyphname = r;
lastChange = "2023-03-28 14:40:20 +0000";
layers = (
{
hints = (
{
horizontal = 1;
place = (1, 27);
place = (1, 27);
type = Stem;
},
{
horizontal = 1;
place = (-2, 21);
target = up;
type = BottomGhost;
},
{
horizontal = 1;
place = (0, 21);
target = up;
type = BottomGhost;
},
{
horizontal = 1;
place = (381, 26);
place = (381, 26);
type = Stem;
},
{
horizontal = 1;
place = (381, 69);
place = (381, 69);
type = Stem;
},
{
horizontal = 1;
place = (478, -20);
target = down;
type = TopGhost;
},
{
place = (110, 84);
place = (110, 84);
type = Stem;
}
);
layerId = "8832323D-7B51-42FA-AB4B-A01DBB0D4C02";
shapes = (
{
closed = 1;
nodes = (
(192,376,l,{
name = .hr01;
}),
(192,409,o),
(194,429,o),
(194,466,cs),
(194,474,o),
(188,478,o),
(180,478,cs),
(168,478,o),
(121,407,o),
(60,407,cs),
(54,407,o),
(54,397,o),
(54,393,cs),
(54,386,o),
(58,377,o),
(62,377,cs),
(82,377,ls),
(96,377,o),
(110,366,o),
(110,280,cs),
(110,45,ls),
(110,32,o),
(106,28,o),
(98,28,cs),
(40,28,ls),
(37,28,o),
(35,19,o),
(35,13,cs),
(35,7,o),
(38,-2,o),
(42,-2,cs,{
name = .hr02;
}),
(80,-2,o),
(101,1,o),
(158,1,cs,{
name = .hr03;
}),
(200,1,o),
(213,0,o),
(267,0,cs,{
name = .hr04;
}),
(271,0,o),
(273,7,o),
(273,13,cs),
(273,20,o),
(270,30,o),
(265,30,cs),
(216,30,ls),
(206,30,o),
(195,41,o),
(195,118,cs),
(195,342,l),
(211,363,o),
(237,381,o),
(268,381,cs),
(292,381,o),
(317,368,o),
(340,348,c),
(369,361,o),
(385,387,o),
(385,408,cs),
(385,430,o),
(369,450,o),
(334,450,cs),
(278,450,o),
(217,401,o),
(194,376,c)
);
}
);
width = 391;
}
);
unicode = 114;
},
{
glyphname = s;
lastChange = "2023-03-28 14:40:20 +0000";
layers = (
{
hints = (
{
horizontal = 1;
place = (-13, 32);
place = (-13, 32);
type = Stem;
},
{
horizontal = 1;
place = (418, 32);
place = (418, 32);
type = Stem;
},
{
horizontal = 1;
place = (463, -20);
target = down;
type = TopGhost;
},
{
place = (69, 74);
place = (69, 74);
type = Stem;
},
{
place = (273, 76);
place = (273, 76);
type = Stem;
}
);
layerId = "8832323D-7B51-42FA-AB4B-A01DBB0D4C02";
shapes = (
{
closed = 1;
nodes = (
(269,446,o),
(246,450,o),
(222,450,cs),
(138,450,o),
(69,405,o),
(69,324,cs),
(69,190,o),
(273,200,o),
(273,89,cs),
(273,42,o),
(233,19,o),
(193,19,cs),
(127,19,o),
(91,72,o),
(73,132,cs),
(70,142,o),
(45,136,o),
(47,126,c),
(54,71,o),
(62,39,o),
(67,-7,cs),
(68,-16,o),
(74,-16,o),
(80,-15,cs),
(92,-13,o),
(92,-11,o),
(92,4,c),
(92,4,o),
(113,-13,o),
(182,-13,cs),
(264,-13,o),
(349,29,o),
(349,113,cs),
(349,265,o),
(143,251,o),
(143,351,cs),
(143,390,o),
(170,418,o),
(213,418,cs),
(258,418,o),
(290,386,o),
(308,338,cs),
(311,331,o),
(317,330,o),
(322,330,cs),
(330,330,o),
(336,334,o),
(335,339,cs),
(330,368,o),
(327,377,o),
(323,395,cs),
(319,411,o),
(318,427,o),
(312,448,cs),
(308,463,o),
(305,463,o),
(294,463,cs,{
name = .hr02;
}),
(286,463,o),
(280,462,o),
(287,440,c,{
name = .hr01;
})
);
}
);
width = 382;
}
);
unicode = 115;
},
{
glyphname = scaron;
lastChange = "2023-03-28 14:40:20 +0000";
layers = (
{
hints = (
{
horizontal = 1;
place = (-13, 23);
place = (-13, 23);
type = Stem;
},
{
horizontal = 1;
place = (-6, 21);
target = up;
type = BottomGhost;
},
{
horizontal = 1;
place = (417, 23);
place = (417, 23);
type = Stem;
},
{
horizontal = 1;
place = (530, 147);
place = (530, 147);
type = Stem;
},
{
place = (62, 279);
place = (62, 279);
type = Stem;
},
{
place = (63, 12);
place = (63, 12);
type = Stem;
},
{
place = (289, 68);
place = (289, 68);
type = Stem;
}
);
layerId = "8832323D-7B51-42FA-AB4B-A01DBB0D4C02";
shapes = (
{
closed = 1;
nodes = (
(269,446,o),
(246,450,o),
(222,450,cs),
(138,450,o),
(69,405,o),
(69,324,cs),
(69,190,o),
(273,200,o),
(273,89,cs),
(273,42,o),
(233,19,o),
(193,19,cs),
(127,19,o),
(91,72,o),
(73,132,cs),
(70,142,o),
(45,136,o),
(47,126,c),
(54,71,o),
(62,39,o),
(67,-7,cs),
(68,-16,o),
(74,-16,o),
(80,-15,cs),
(92,-13,o),
(92,-11,o),
(92,4,c),
(92,4,o),
(113,-13,o),
(182,-13,cs,{
name = .hr02;
}),
(264,-13,o),
(349,29,o),
(349,113,cs),
(349,265,o),
(143,251,o),
(143,351,cs),
(143,390,o),
(170,418,o),
(213,418,cs),
(258,418,o),
(290,386,o),
(308,338,cs),
(311,331,o),
(317,330,o),
(322,330,cs),
(330,330,o),
(336,334,o),
(335,339,cs),
(330,368,o),
(327,377,o),
(323,395,cs),
(319,411,o),
(318,427,o),
(312,448,cs),
(308,463,o),
(305,463,o),
(294,463,cs),
(286,463,o),
(280,462,o),
(287,440,c,{
name = .hr01;
})
);
},
{
closed = 1;
nodes = (
(93,677,ls),
(86,683,o),
(81,684,o),
(76,684,cs),
(67,684,o),
(62,677,o),
(62,677,c,{
name = .hr03;
}),
(172,530,l),
(181,521,o),
(191,516,o),
(201,516,cs),
(210,516,o),
(220,521,o),
(227,530,cs),
(341,677,l),
(339,682,o),
(336,685,o),
(330,685,cs),
(325,685,o),
(318,683,o),
(311,677,cs),
(200,587,l)
);
}
);
width = 382;
}
);
unicode = 353;
},
{
glyphname = germandbls;
lastChange = "2023-03-28 14:40:20 +0000";
layers = (
{
hints = (
{
horizontal = 1;
place = (-2, 35);
place = (-2, 35);
type = Stem;
},
{
horizontal = 1;
place = (-10, 21);
target = up;
type = BottomGhost;
},
{
horizontal = 1;
place = (0, 21);
target = up;
type = BottomGhost;
},
{
horizontal = 1;
place = (682, 43);
place = (682, 43);
type = Stem;
},
{
place = (33, 160);
place = (33, 160);
type = Stem;
},
{
place = (108, 85);
place = (108, 85);
type = Stem;
},
{
place = (262, 26);
place = (262, 26);
type = Stem;
},
{
place = (278, 44);
place = (278, 44);
type = Stem;
},
{
place = (350, 75);
place = (350, 75);
type = Stem;
},
{
place = (436, 76);
place = (436, 76);
type = Stem;
}
);
layerId = "8832323D-7B51-42FA-AB4B-A01DBB0D4C02";
shapes = (
{
closed = 1;
nodes = (
(108,45,ls,{
name = .hr01;
}),
(108,32,o),
(104,28,o),
(96,28,cs),
(38,28,ls),
(35,28,o),
(33,19,o),
(33,13,cs,{
name = .hr02;
}),
(33,7,o),
(36,-2,o),
(40,-2,cs),
(78,-2,o),
(95,1,o),
(128,1,cs),
(170,1,o),
(138,0,o),
(192,0,cs,{
name = .hr03;
}),
(196,0,o),
(197,7,o),
(197,13,cs),
(197,35,o),
(193,39,o),
(193,118,cs),
(193,466,ls),
(193,544,o),
(194,682,o),
(296,682,cs),
(337,682,o),
(350,650,o),
(350,613,cs),
(350,558,o),
(278,501,o),
(278,407,cs),
(278,238,o),
(436,244,o),
(436,111,cs),
(436,64,o),
(400,33,o),
(357,33,cs,{
name = .hr04;
}),
(311,33,o),
(288,52,o),
(288,89,cs),
(288,99,o),
(262,94,o),
(262,83,cs),
(262,21,o),
(301,-10,o),
(360,-10,cs,{
name = .hr05;
}),
(437,-10,o),
(512,51,o),
(512,135,cs),
(512,287,o),
(322,294,o),
(322,435,cs),
(322,512,o),
(425,553,o),
(425,633,cs),
(425,689,o),
(384,725,o),
(319,725,cs),
(143,725,o),
(135,547,o),
(106,453,cs),
(99,432,o),
(57,432,o),
(36,432,cs),
(30,432,o),
(27,424,o),
(27,416,cs),
(27,405,o),
(32,399,o),
(38,399,cs),
(108,399,l)
);
}
);
width = 545;
}
);
unicode = 223;
},
{
glyphname = t;
lastChange = "2023-03-28 14:40:20 +0000";
layers = (
{
hints = (
{
horizontal = 1;
place = (-16, 63);
place = (-16, 63);
type = Stem;
},
{
horizontal = 1;
place = (399, 38);
place = (399, 38);
type = Stem;
},
{
horizontal = 1;
place = (572, -20);
target = down;
type = TopGhost;
},
{
place = (90, 236);
place = (90, 236);
type = Stem;
}
);
layerId = "8832323D-7B51-42FA-AB4B-A01DBB0D4C02";
shapes = (
{
closed = 1;
nodes = (
(90,120,ls),
(90,30,o),
(134,-16,o),
(205,-16,cs),
(281,-16,o),
(326,48,o),
(326,77,cs),
(326,81,o),
(322,86,o),
(316,86,cs),
(305,86,o),
(293,47,o),
(249,47,cs),
(194,47,o),
(175,78,o),
(175,142,cs,{
name = .hr01;
}),
(175,399,l),
(301,399,ls),
(307,399,o),
(309,409,o),
(309,416,cs),
(309,425,o),
(305,437,o),
(299,437,cs),
(175,437,l),
(175,499,o),
(181,530,o),
(181,559,cs),
(181,566,o),
(178,572,o),
(171,572,cs),
(167,572,o),
(160,571,o),
(158,565,cs),
(135,500,o),
(103,442,o),
(37,429,cs),
(31,428,o),
(29,419,o),
(29,414,cs),
(29,408,o),
(33,399,o),
(39,399,cs),
(90,399,l)
);
}
);
width = 338;
}
);
unicode = 116;
},
{
glyphname = u;
lastChange = "2023-03-28 14:40:20 +0000";
layers = (
{
hints = (
{
horizontal = 1;
place = (-13, 55);
place = (-13, 55);
type = Stem;
},
{
horizontal = 1;
place = (407, 29);
place = (407, 29);
type = Stem;
},
{
horizontal = 1;
place = (439, -20);
target = down;
type = TopGhost;
},
{
place = (93, 85);
place = (93, 85);
type = Stem;
},
{
place = (391, 85);
place = (391, 85);
type = Stem;
}
);
layerId = "8832323D-7B51-42FA-AB4B-A01DBB0D4C02";
shapes = (
{
closed = 1;
nodes = (
(178,332,ls,{
name = .hr01;
}),
(178,420,o),
(186,420,o),
(186,431,cs),
(186,437,o),
(182,439,o),
(176,439,cs),
(143,439,o),
(138,436,o),
(92,436,cs,{
name = .hr02;
}),
(74,436,o),
(54,437,o),
(21,437,cs),
(17,437,o),
(15,430,o),
(15,424,cs),
(15,417,o),
(17,408,o),
(23,407,c),
(72,407,ls),
(82,407,o),
(93,396,o),
(93,319,cs),
(93,179,ls),
(93,39,o),
(156,-13,o),
(249,-13,cs),
(293,-13,o),
(354,9,o),
(392,60,c),
(394,60,l),
(394,18,o),
(400,-13,o),
(418,-13,cs),
(431,-13,o),
(460,19,o),
(547,33,cs),
(551,34,o),
(553,40,o),
(553,48,cs),
(553,55,o),
(549,63,o),
(545,63,cs),
(536,63,o),
(523,60,o),
(511,60,cs),
(503,60,o),
(495,62,o),
(490,66,cs),
(478,76,o),
(476,100,o),
(476,146,cs),
(476,332,ls),
(476,420,o),
(484,420,o),
(484,431,cs),
(484,437,o),
(480,439,o),
(474,439,cs,{
name = .hr03;
}),
(441,439,o),
(436,436,o),
(390,436,cs,{
name = .hr04;
}),
(372,436,o),
(352,437,o),
(319,437,cs),
(315,437,o),
(313,430,o),
(313,424,cs),
(313,417,o),
(315,408,o),
(321,407,c),
(370,407,ls),
(380,407,o),
(391,396,o),
(391,319,cs),
(391,103,l),
(371,66,o),
(334,42,o),
(294,42,cs),
(204,42,o),
(178,88,o),
(178,223,cs)
);
}
);
width = 565;
}
);
unicode = 117;
},
{
glyphname = uacute;
lastChange = "2023-03-28 14:40:20 +0000";
layers = (
{
hints = (
{
horizontal = 1;
place = (-13, 55);
place = (-13, 55);
type = Stem;
},
{
horizontal = 1;
place = (407, 29);
place = (407, 29);
type = Stem;
},
{
horizontal = 1;
place = (439, -20);
target = down;
type = TopGhost;
},
{
horizontal = 1;
place = (744, -20);
target = down;
type = TopGhost;
},
{
place = (93, 85);
place = (93, 85);
type = Stem;
},
{
place = (391, 85);
place = (391, 85);
type = Stem;
}
);
layerId = "8832323D-7B51-42FA-AB4B-A01DBB0D4C02";
shapes = (
{
closed = 1;
nodes = (
(178,332,ls,{
name = .hr01;
}),
(178,420,o),
(186,420,o),
(186,431,cs),
(186,437,o),
(182,439,o),
(176,439,cs),
(143,439,o),
(138,436,o),
(92,436,cs,{
name = .hr02;
}),
(74,436,o),
(54,437,o),
(21,437,cs),
(17,437,o),
(15,430,o),
(15,424,cs),
(15,417,o),
(17,408,o),
(23,407,c),
(72,407,ls),
(82,407,o),
(93,396,o),
(93,319,cs),
(93,179,ls),
(93,39,o),
(156,-13,o),
(249,-13,cs),
(293,-13,o),
(354,9,o),
(392,60,c),
(394,60,l),
(394,18,o),
(400,-13,o),
(418,-13,cs),
(431,-13,o),
(460,19,o),
(547,33,cs),
(551,34,o),
(553,40,o),
(553,48,cs),
(553,55,o),
(549,63,o),
(545,63,cs),
(536,63,o),
(523,60,o),
(511,60,cs),
(503,60,o),
(495,62,o),
(490,66,cs),
(478,76,o),
(476,100,o),
(476,146,cs),
(476,332,ls),
(476,420,o),
(484,420,o),
(484,431,cs),
(484,437,o),
(480,439,o),
(474,439,cs,{
name = .hr03;
}),
(441,439,o),
(436,436,o),
(390,436,cs,{
name = .hr04;
}),
(372,436,o),
(352,437,o),
(319,437,cs),
(315,437,o),
(313,430,o),
(313,424,cs),
(313,417,o),
(315,408,o),
(321,407,c),
(370,407,ls),
(380,407,o),
(391,396,o),
(391,319,cs),
(391,103,l),
(371,66,o),
(334,42,o),
(294,42,cs),
(204,42,o),
(178,88,o),
(178,223,cs)
);
},
{
closed = 1;
nodes = (
(370,640,o),
(430,675,o),
(430,712,cs),
(430,731,o),
(415,744,o),
(395,744,cs),
(333,744,o),
(326,685,o),
(199,550,cs),
(196,547,o),
(195,545,o),
(195,543,cs),
(195,538,o),
(201,534,o),
(208,534,cs),
(211,534,o),
(215,535,o),
(218,537,cs)
);
}
);
width = 565;
}
);
unicode = 250;
},
{
glyphname = ucircumflex;
lastChange = "2023-03-28 14:40:20 +0000";
layers = (
{
hints = (
{
horizontal = 1;
place = (-13, 55);
place = (-13, 55);
type = Stem;
},
{
horizontal = 1;
place = (407, 29);
place = (407, 29);
type = Stem;
},
{
horizontal = 1;
place = (439, -20);
target = down;
type = TopGhost;
},
{
horizontal = 1;
place = (691, -20);
target = down;
type = TopGhost;
},
{
place = (93, 85);
place = (93, 85);
type = Stem;
},
{
place = (391, 85);
place = (391, 85);
type = Stem;
}
);
layerId = "8832323D-7B51-42FA-AB4B-A01DBB0D4C02";
shapes = (
{
closed = 1;
nodes = (
(178,332,ls,{
name = .hr01;
}),
(178,420,o),
(186,420,o),
(186,431,cs),
(186,437,o),
(182,439,o),
(176,439,cs),
(143,439,o),
(138,436,o),
(92,436,cs,{
name = .hr02;
}),
(74,436,o),
(54,437,o),
(21,437,cs),
(17,437,o),
(15,430,o),
(15,424,cs),
(15,417,o),
(17,408,o),
(23,407,c),
(72,407,ls),
(82,407,o),
(93,396,o),
(93,319,cs),
(93,179,ls),
(93,39,o),
(156,-13,o),
(249,-13,cs),
(293,-13,o),
(354,9,o),
(392,60,c),
(394,60,l),
(394,18,o),
(400,-13,o),
(418,-13,cs),
(431,-13,o),
(460,19,o),
(547,33,cs),
(551,34,o),
(553,40,o),
(553,48,cs),
(553,55,o),
(549,63,o),
(545,63,cs),
(536,63,o),
(523,60,o),
(511,60,cs),
(503,60,o),
(495,62,o),
(490,66,cs),
(478,76,o),
(476,100,o),
(476,146,cs),
(476,332,ls),
(476,420,o),
(484,420,o),
(484,431,cs),
(484,437,o),
(480,439,o),
(474,439,cs,{
name = .hr03;
}),
(441,439,o),
(436,436,o),
(390,436,cs,{
name = .hr04;
}),
(372,436,o),
(352,437,o),
(319,437,cs),
(315,437,o),
(313,430,o),
(313,424,cs),
(313,417,o),
(315,408,o),
(321,407,c),
(370,407,ls),
(380,407,o),
(391,396,o),
(391,319,cs),
(391,103,l),
(371,66,o),
(334,42,o),
(294,42,cs),
(204,42,o),
(178,88,o),
(178,223,cs)
);
},
{
closed = 1;
nodes = (
(391,530,ls),
(398,524,o),
(403,523,o),
(408,523,cs),
(417,523,o),
(422,530,o),
(422,530,c),
(312,677,l),
(303,686,o),
(293,691,o),
(283,691,cs),
(274,691,o),
(264,686,o),
(257,677,cs),
(143,530,l),
(145,525,o),
(148,522,o),
(154,522,cs),
(159,522,o),
(166,524,o),
(173,530,cs),
(284,620,l)
);
}
);
width = 565;
}
);
unicode = 251;
},
{
glyphname = udieresis;
lastChange = "2023-03-28 14:40:20 +0000";
layers = (
{
hints = (
{
horizontal = 1;
place = (-13, 55);
place = (-13, 55);
type = Stem;
},
{
horizontal = 1;
place = (407, 29);
place = (407, 29);
type = Stem;
},
{
horizontal = 1;
place = (439, -20);
target = down;
type = TopGhost;
},
{
horizontal = 1;
place = (555, 102);
place = (555, 102);
type = Stem;
},
{
place = (93, 85);
place = (93, 85);
type = Stem;
},
{
place = (148, 102);
place = (148, 102);
type = Stem;
},
{
place = (315, 102);
place = (315, 102);
type = Stem;
},
{
place = (391, 85);
place = (391, 85);
type = Stem;
}
);
layerId = "8832323D-7B51-42FA-AB4B-A01DBB0D4C02";
shapes = (
{
closed = 1;
nodes = (
(178,332,ls,{
name = .hr01;
}),
(178,420,o),
(186,420,o),
(186,431,cs),
(186,437,o),
(182,439,o),
(176,439,cs),
(143,439,o),
(138,436,o),
(92,436,cs,{
name = .hr02;
}),
(74,436,o),
(54,437,o),
(21,437,cs),
(17,437,o),
(15,430,o),
(15,424,cs),
(15,417,o),
(17,408,o),
(23,407,c),
(72,407,ls),
(82,407,o),
(93,396,o),
(93,319,cs),
(93,179,ls),
(93,39,o),
(156,-13,o),
(249,-13,cs),
(293,-13,o),
(354,9,o),
(392,60,c),
(394,60,l),
(394,18,o),
(400,-13,o),
(418,-13,cs),
(431,-13,o),
(460,19,o),
(547,33,cs),
(551,34,o),
(553,40,o),
(553,48,cs),
(553,55,o),
(549,63,o),
(545,63,cs),
(536,63,o),
(523,60,o),
(511,60,cs),
(503,60,o),
(495,62,o),
(490,66,cs),
(478,76,o),
(476,100,o),
(476,146,cs),
(476,332,ls),
(476,420,o),
(484,420,o),
(484,431,cs),
(484,437,o),
(480,439,o),
(474,439,cs,{
name = .hr03;
}),
(441,439,o),
(436,436,o),
(390,436,cs,{
name = .hr04;
}),
(372,436,o),
(352,437,o),
(319,437,cs),
(315,437,o),
(313,430,o),
(313,424,cs),
(313,417,o),
(315,408,o),
(321,407,c),
(370,407,ls),
(380,407,o),
(391,396,o),
(391,319,cs),
(391,103,l),
(371,66,o),
(334,42,o),
(294,42,cs),
(204,42,o),
(178,88,o),
(178,223,cs)
);
},
{
closed = 1;
nodes = (
(228,555,o),
(250,579,o),
(250,608,cs,{
name = .hr05;
}),
(250,635,o),
(225,657,o),
(199,657,cs),
(172,657,o),
(148,636,o),
(148,608,cs),
(148,579,o),
(169,555,o),
(199,555,cs)
);
},
{
closed = 1;
nodes = (
(396,555,o),
(417,579,o),
(417,608,cs),
(417,635,o),
(393,657,o),
(366,657,cs),
(340,657,o),
(315,636,o),
(315,608,cs),
(315,579,o),
(337,555,o),
(366,555,cs)
);
}
);
width = 565;
}
);
unicode = 252;
},
{
glyphname = ugrave;
lastChange = "2023-03-28 14:40:20 +0000";
layers = (
{
hints = (
{
horizontal = 1;
place = (-13, 55);
place = (-13, 55);
type = Stem;
},
{
horizontal = 1;
place = (407, 29);
place = (407, 29);
type = Stem;
},
{
horizontal = 1;
place = (439, -20);
target = down;
type = TopGhost;
},
{
horizontal = 1;
place = (737, -20);
target = down;
type = TopGhost;
},
{
place = (93, 85);
place = (93, 85);
type = Stem;
},
{
place = (391, 85);
place = (391, 85);
type = Stem;
}
);
layerId = "8832323D-7B51-42FA-AB4B-A01DBB0D4C02";
shapes = (
{
closed = 1;
nodes = (
(178,332,ls,{
name = .hr01;
}),
(178,420,o),
(186,420,o),
(186,431,cs),
(186,437,o),
(182,439,o),
(176,439,cs),
(143,439,o),
(138,436,o),
(92,436,cs,{
name = .hr02;
}),
(74,436,o),
(54,437,o),
(21,437,cs),
(17,437,o),
(15,430,o),
(15,424,cs),
(15,417,o),
(17,408,o),
(23,407,c),
(72,407,ls),
(82,407,o),
(93,396,o),
(93,319,cs),
(93,179,ls),
(93,39,o),
(156,-13,o),
(249,-13,cs),
(293,-13,o),
(354,9,o),
(392,60,c),
(394,60,l),
(394,18,o),
(400,-13,o),
(418,-13,cs),
(431,-13,o),
(460,19,o),
(547,33,cs),
(551,34,o),
(553,40,o),
(553,48,cs),
(553,55,o),
(549,63,o),
(545,63,cs),
(536,63,o),
(523,60,o),
(511,60,cs),
(503,60,o),
(495,62,o),
(490,66,cs),
(478,76,o),
(476,100,o),
(476,146,cs),
(476,332,ls),
(476,420,o),
(484,420,o),
(484,431,cs),
(484,437,o),
(480,439,o),
(474,439,cs,{
name = .hr03;
}),
(441,439,o),
(436,436,o),
(390,436,cs,{
name = .hr04;
}),
(372,436,o),
(352,437,o),
(319,437,cs),
(315,437,o),
(313,430,o),
(313,424,cs),
(313,417,o),
(315,408,o),
(321,407,c),
(370,407,ls),
(380,407,o),
(391,396,o),
(391,319,cs),
(391,103,l),
(371,66,o),
(334,42,o),
(294,42,cs),
(204,42,o),
(178,88,o),
(178,223,cs)
);
},
{
closed = 1;
nodes = (
(362,535,o),
(366,534,o),
(369,534,cs),
(376,534,o),
(382,538,o),
(382,543,cs),
(382,545,o),
(381,547,o),
(378,550,cs),
(257,685,o),
(266,737,o),
(204,737,cs),
(184,737,o),
(169,724,o),
(169,705,cs),
(169,668,o),
(209,640,o),
(359,537,cs)
);
}
);
width = 565;
}
);
unicode = 249;
},
{
glyphname = v;
lastChange = "2023-03-28 14:40:20 +0000";
layers = (
{
hints = (
{
horizontal = 1;
place = (-23, 21);
target = up;
type = BottomGhost;
},
{
horizontal = 1;
place = (411, 27);
place = (411, 27);
type = Stem;
}
);
layerId = "8832323D-7B51-42FA-AB4B-A01DBB0D4C02";
shapes = (
{
closed = 1;
nodes = (
(459,412,ls),
(464,412,o),
(466,418,o),
(466,425,cs),
(466,431,o),
(464,438,o),
(459,438,cs),
(425,438,o),
(410,436,o),
(386,436,cs),
(356,436,o),
(344,438,o),
(294,438,cs),
(290,438,o),
(288,430,o),
(288,423,cs),
(288,417,o),
(292,411,o),
(296,411,cs),
(337,411,ls),
(343,411,o),
(349,407,o),
(349,391,cs),
(349,352,o),
(302,250,o),
(256,94,c),
(219,205,o),
(142,391,o),
(142,403,cs),
(142,409,o),
(147,412,o),
(153,412,cs),
(201,412,ls),
(205,412,o),
(207,418,o),
(207,425,cs),
(207,431,o),
(206,438,o),
(201,438,cs),
(155,438,o),
(118,436,o),
(93,436,cs),
(57,436,o),
(35,438,o),
(-2,438,cs),
(-6,438,o),
(-8,430,o),
(-8,423,cs),
(-8,416,o),
(-6,411,o),
(-2,411,cs),
(26,411,o),
(35,406,o),
(51,373,cs),
(102,266,o),
(196,59,o),
(214,-13,c),
(217,-20,o),
(225,-23,o),
(233,-23,cs),
(242,-23,o),
(251,-19,o),
(253,-14,cs),
(269,39,o),
(375,333,o),
(417,403,cs),
(420,408,o),
(426,412,o),
(433,412,cs)
);
}
);
width = 461;
}
);
unicode = 118;
},
{
glyphname = w;
lastChange = "2023-03-28 14:40:20 +0000";
layers = (
{
hints = (
{
horizontal = 1;
place = (-23, 21);
target = up;
type = BottomGhost;
},
{
horizontal = 1;
place = (411, 27);
place = (411, 27);
type = Stem;
}
);
layerId = "8832323D-7B51-42FA-AB4B-A01DBB0D4C02";
shapes = (
{
closed = 1;
nodes = (
(702,412,ls),
(707,412,o),
(709,418,o),
(709,425,cs),
(709,431,o),
(707,438,o),
(702,438,cs),
(668,438,o),
(653,436,o),
(629,436,cs),
(599,436,o),
(587,438,o),
(537,438,cs),
(534,438,o),
(532,429,o),
(532,422,cs),
(532,416,o),
(535,411,o),
(539,411,cs),
(580,411,ls),
(586,411,o),
(592,407,o),
(592,391,cs),
(592,352,o),
(545,250,o),
(499,94,c),
(462,205,o),
(395,391,o),
(395,403,cs),
(395,409,o),
(400,412,o),
(406,412,cs),
(454,412,ls),
(458,412,o),
(460,418,o),
(460,425,cs),
(460,431,o),
(459,438,o),
(454,438,cs),
(408,438,o),
(371,436,o),
(346,436,cs),
(310,436,o),
(288,438,o),
(251,438,cs),
(247,438,o),
(245,430,o),
(245,423,cs),
(245,416,o),
(247,411,o),
(251,411,cs),
(279,411,o),
(288,406,o),
(304,373,cs),
(312,356,o),
(321,336,o),
(330,315,c),
(312,263,o),
(284,188,o),
(256,94,c),
(219,205,o),
(142,391,o),
(142,403,cs),
(142,409,o),
(147,412,o),
(153,412,cs),
(186,412,ls),
(190,412,o),
(192,418,o),
(192,425,cs),
(192,431,o),
(191,438,o),
(186,438,cs),
(140,438,o),
(118,436,o),
(93,436,cs),
(57,436,o),
(35,438,o),
(-2,438,cs),
(-6,438,o),
(-8,430,o),
(-8,423,cs),
(-8,416,o),
(-6,411,o),
(-2,411,cs),
(26,411,o),
(35,406,o),
(51,373,cs),
(102,266,o),
(196,59,o),
(214,-13,c),
(217,-20,o),
(225,-23,o),
(233,-23,cs),
(242,-23,o),
(251,-19,o),
(253,-14,cs),
(263,20,o),
(310,151,o),
(354,261,c),
(398,157,o),
(444,38,o),
(457,-13,c),
(460,-20,o),
(468,-23,o),
(476,-23,cs),
(485,-23,o),
(494,-19,o),
(496,-14,cs),
(512,39,o),
(618,333,o),
(660,403,cs),
(663,408,o),
(669,412,o),
(676,412,cs)
);
}
);
width = 703;
}
);
unicode = 119;
},
{
glyphname = x;
lastChange = "2023-03-28 14:40:20 +0000";
layers = (
{
hints = (
{
horizontal = 1;
place = (-1, 29);
place = (-1, 29);
type = Stem;
},
{
horizontal = 1;
place = (0, 21);
target = up;
type = BottomGhost;
},
{
horizontal = 1;
place = (412, 26);
place = (412, 26);
type = Stem;
}
);
layerId = "8832323D-7B51-42FA-AB4B-A01DBB0D4C02";
shapes = (
{
closed = 1;
nodes = (
(367,302,o),
(427,370,o),
(460,405,cs),
(465,410,o),
(469,412,o),
(476,412,cs),
(516,412,ls),
(521,412,o),
(523,416,o),
(523,423,cs),
(523,430,o),
(521,438,o),
(516,438,cs),
(485,438,o),
(458,436,o),
(438,436,cs),
(401,436,o),
(378,438,o),
(343,438,cs),
(339,438,o),
(338,430,o),
(338,424,cs),
(338,418,o),
(339,411,o),
(343,411,cs),
(381,411,ls),
(384,411,o),
(386,409,o),
(386,404,cs),
(386,399,o),
(383,391,o),
(376,378,cs),
(364,358,o),
(352,343,o),
(290,272,c),
(242,332,o),
(192,397,o),
(192,405,cs),
(192,409,o),
(195,412,o),
(200,412,cs),
(260,412,ls),
(264,412,o),
(266,418,o),
(266,425,cs),
(266,431,o),
(264,438,o),
(260,438,cs),
(224,438,o),
(162,436,o),
(140,436,cs),
(102,436,o),
(71,438,o),
(32,438,cs),
(28,438,o),
(26,430,o),
(26,424,cs),
(26,418,o),
(28,411,o),
(32,411,cs),
(52,411,ls),
(65,411,o),
(83,400,o),
(96,385,cs),
(140,332,o),
(180,282,o),
(236,211,c),
(171,139,o),
(113,76,o),
(77,38,cs),
(70,31,o),
(64,28,o),
(52,28,cs),
(20,28,ls),
(15,28,o),
(14,22,o),
(14,16,cs),
(14,9,o),
(16,-1,o),
(20,-1,cs),
(49,-1,o),
(86,1,o),
(107,1,cs),
(130,1,o),
(155,0,o),
(198,0,cs,{
name = .hr02;
}),
(202,0,o),
(205,9,o),
(205,16,cs),
(205,23,o),
(203,30,o),
(198,30,cs),
(148,30,ls),
(144,30,o),
(150,51,o),
(180,87,cs),
(200,112,o),
(233,150,o),
(260,182,c),
(291,139,o),
(356,68,o),
(356,37,cs),
(356,31,o),
(352,28,o),
(344,28,cs,{
name = .hr03;
}),
(293,28,ls),
(289,28,o),
(287,21,o),
(287,15,cs),
(287,8,o),
(289,-1,o),
(293,-1,cs),
(326,-1,o),
(390,1,o),
(421,1,cs),
(444,1,o),
(474,0,o),
(528,0,cs,{
name = .hr04;
}),
(533,0,o),
(536,8,o),
(536,15,cs),
(536,22,o),
(533,30,o),
(528,30,cs),
(495,30,ls),
(484,30,o),
(469,47,o),
(429,97,cs),
(392,143,o),
(351,194,o),
(313,242,c,{
name = .hr01;
})
);
}
);
width = 550;
}
);
unicode = 120;
},
{
glyphname = y;
lastChange = "2023-03-28 14:40:20 +0000";
layers = (
{
hints = (
{
horizontal = 1;
place = (-311, 70);
place = (-311, 70);
type = Stem;
},
{
horizontal = 1;
place = (411, 27);
place = (411, 27);
type = Stem;
}
);
layerId = "8832323D-7B51-42FA-AB4B-A01DBB0D4C02";
shapes = (
{
closed = 1;
nodes = (
(466,412,ls),
(471,412,o),
(473,418,o),
(473,425,cs),
(473,431,o),
(471,438,o),
(466,438,cs),
(432,438,o),
(417,436,o),
(393,436,cs),
(363,436,o),
(347,438,o),
(297,438,cs),
(294,438,o),
(292,429,o),
(292,422,cs),
(292,416,o),
(293,411,o),
(297,411,cs),
(344,411,ls),
(349,411,o),
(357,408,o),
(357,394,cs),
(357,350,o),
(308,243,o),
(263,94,c),
(208,256,o),
(150,389,o),
(150,403,cs),
(150,409,o),
(155,412,o),
(163,412,cs),
(208,412,ls),
(212,412,o),
(214,418,o),
(214,425,cs),
(214,431,o),
(213,438,o),
(208,438,cs),
(162,438,o),
(125,436,o),
(100,436,cs),
(64,436,o),
(42,438,o),
(5,438,cs),
(1,438,o),
(-1,430,o),
(-1,423,cs),
(-1,416,o),
(1,411,o),
(5,411,cs),
(35,411,o),
(45,405,o),
(58,377,cs),
(107,269,o),
(208,70,o),
(208,-15,cs),
(208,-66,o),
(122,-241,o),
(39,-241,cs),
(4,-241,o),
(-25,-221,o),
(-25,-221,c),
(-74,-273,o),
(-40,-311,o),
(18,-311,cs),
(97,-311,o),
(171,-246,o),
(242,-63,cs),
(288,57,o),
(360,279,o),
(422,398,cs),
(426,406,o),
(432,412,o),
(441,412,cs)
);
}
);
width = 470;
}
);
unicode = 121;
},
{
glyphname = yacute;
lastChange = "2023-03-28 14:40:20 +0000";
layers = (
{
hints = (
{
horizontal = 1;
place = (-311, 70);
place = (-311, 70);
type = Stem;
},
{
horizontal = 1;
place = (411, 27);
place = (411, 27);
type = Stem;
},
{
horizontal = 1;
place = (744, -20);
target = down;
type = TopGhost;
}
);
layerId = "8832323D-7B51-42FA-AB4B-A01DBB0D4C02";
shapes = (
{
closed = 1;
nodes = (
(466,412,ls),
(471,412,o),
(473,418,o),
(473,425,cs),
(473,431,o),
(471,438,o),
(466,438,cs),
(432,438,o),
(417,436,o),
(393,436,cs),
(363,436,o),
(347,438,o),
(297,438,cs),
(294,438,o),
(292,429,o),
(292,422,cs),
(292,416,o),
(293,411,o),
(297,411,cs),
(344,411,ls),
(349,411,o),
(357,408,o),
(357,394,cs),
(357,350,o),
(308,243,o),
(263,94,c),
(208,256,o),
(150,389,o),
(150,403,cs),
(150,409,o),
(155,412,o),
(163,412,cs),
(208,412,ls),
(212,412,o),
(214,418,o),
(214,425,cs),
(214,431,o),
(213,438,o),
(208,438,cs),
(162,438,o),
(125,436,o),
(100,436,cs),
(64,436,o),
(42,438,o),
(5,438,cs),
(1,438,o),
(-1,430,o),
(-1,423,cs),
(-1,416,o),
(1,411,o),
(5,411,cs),
(35,411,o),
(45,405,o),
(58,377,cs),
(107,269,o),
(208,70,o),
(208,-15,cs),
(208,-66,o),
(122,-241,o),
(39,-241,cs),
(4,-241,o),
(-25,-221,o),
(-25,-221,c),
(-74,-273,o),
(-40,-311,o),
(18,-311,cs),
(97,-311,o),
(171,-246,o),
(242,-63,cs),
(288,57,o),
(360,279,o),
(422,398,cs),
(426,406,o),
(432,412,o),
(441,412,cs)
);
},
{
closed = 1;
nodes = (
(322,640,o),
(382,675,o),
(382,712,cs),
(382,731,o),
(367,744,o),
(347,744,cs),
(285,744,o),
(278,685,o),
(151,550,cs),
(148,547,o),
(147,545,o),
(147,543,cs),
(147,538,o),
(153,534,o),
(160,534,cs),
(163,534,o),
(167,535,o),
(170,537,cs)
);
}
);
width = 470;
}
);
unicode = 253;
},
{
glyphname = ydieresis;
lastChange = "2023-03-28 14:40:20 +0000";
layers = (
{
hints = (
{
horizontal = 1;
place = (-311, 70);
place = (-311, 70);
type = Stem;
},
{
horizontal = 1;
place = (411, 27);
place = (411, 27);
type = Stem;
},
{
horizontal = 1;
place = (555, 102);
place = (555, 102);
type = Stem;
},
{
place = (120, 102);
place = (120, 102);
type = Stem;
},
{
place = (287, 102);
place = (287, 102);
type = Stem;
}
);
layerId = "8832323D-7B51-42FA-AB4B-A01DBB0D4C02";
shapes = (
{
closed = 1;
nodes = (
(466,412,ls),
(471,412,o),
(473,418,o),
(473,425,cs),
(473,431,o),
(471,438,o),
(466,438,cs),
(432,438,o),
(417,436,o),
(393,436,cs),
(363,436,o),
(347,438,o),
(297,438,cs),
(294,438,o),
(292,429,o),
(292,422,cs),
(292,416,o),
(293,411,o),
(297,411,cs),
(344,411,ls),
(349,411,o),
(357,408,o),
(357,394,cs),
(357,350,o),
(308,243,o),
(263,94,c),
(208,256,o),
(150,389,o),
(150,403,cs),
(150,409,o),
(155,412,o),
(163,412,cs),
(208,412,ls),
(212,412,o),
(214,418,o),
(214,425,cs),
(214,431,o),
(213,438,o),
(208,438,cs),
(162,438,o),
(125,436,o),
(100,436,cs),
(64,436,o),
(42,438,o),
(5,438,cs),
(1,438,o),
(-1,430,o),
(-1,423,cs),
(-1,416,o),
(1,411,o),
(5,411,cs),
(35,411,o),
(45,405,o),
(58,377,cs),
(107,269,o),
(208,70,o),
(208,-15,cs),
(208,-66,o),
(122,-241,o),
(39,-241,cs),
(4,-241,o),
(-25,-221,o),
(-25,-221,c),
(-74,-273,o),
(-40,-311,o),
(18,-311,cs),
(97,-311,o),
(171,-246,o),
(242,-63,cs),
(288,57,o),
(360,279,o),
(422,398,cs),
(426,406,o),
(432,412,o),
(441,412,cs)
);
},
{
closed = 1;
nodes = (
(200,555,o),
(222,579,o),
(222,608,cs),
(222,635,o),
(197,657,o),
(171,657,cs),
(144,657,o),
(120,636,o),
(120,608,cs),
(120,579,o),
(141,555,o),
(171,555,cs)
);
},
{
closed = 1;
nodes = (
(368,555,o),
(389,579,o),
(389,608,cs),
(389,635,o),
(365,657,o),
(338,657,cs),
(312,657,o),
(287,636,o),
(287,608,cs),
(287,579,o),
(309,555,o),
(338,555,cs)
);
}
);
width = 470;
}
);
unicode = 255;
},
{
glyphname = z;
lastChange = "2023-03-28 14:40:20 +0000";
layers = (
{
hints = (
{
horizontal = 1;
place = (0, 31);
place = (0, 31);
type = Stem;
},
{
horizontal = 1;
place = (-20, 21);
target = up;
type = BottomGhost;
},
{
horizontal = 1;
place = (407, 30);
place = (407, 30);
type = Stem;
},
{
horizontal = 1;
place = (456, -20);
target = down;
type = TopGhost;
}
);
layerId = "8832323D-7B51-42FA-AB4B-A01DBB0D4C02";
shapes = (
{
closed = 1;
nodes = (
(421,123,o),
(412,126,o),
(406,126,cs),
(401,126,o),
(392,125,o),
(391,119,cs),
(377,32,o),
(341,31,o),
(321,31,cs),
(150,31,l),
(185,74,o),
(385,406,o),
(401,414,cs),
(404,415,o),
(407,421,o),
(407,427,cs),
(407,433,o),
(404,437,o),
(400,437,cs),
(116,437,l),
(110,438,o),
(112,442,o),
(112,447,cs),
(112,454,o),
(104,456,o),
(95,456,cs,{
name = .hr02;
}),
(89,456,o),
(83,455,o),
(81,449,cs),
(74,428,o),
(55,361,o),
(51,329,c),
(51,326,o),
(60,324,o),
(66,324,cs),
(72,324,o),
(79,326,o),
(80,329,cs),
(104,398,o),
(130,407,o),
(149,407,cs,{
name = .hr03;
}),
(291,407,l),
(291,407,o),
(66,34,o),
(41,23,c),
(37,20,o),
(35,17,o),
(35,12,cs),
(35,6,o),
(36,0,o),
(41,0,cs),
(353,0,o),
(374,-2,o),
(374,-14,cs),
(374,-18,o),
(379,-20,o),
(387,-20,cs,{
name = .hr04;
}),
(397,-20,o),
(401,-18,o),
(401,-13,cs),
(401,16,o),
(412,93,o),
(421,119,c,{
name = .hr01;
})
);
}
);
width = 454;
}
);
unicode = 122;
},
{
glyphname = zcaron;
lastChange = "2023-03-28 14:40:20 +0000";
layers = (
{
hints = (
{
horizontal = 1;
place = (0, 31);
place = (0, 31);
type = Stem;
},
{
horizontal = 1;
place = (-20, 21);
target = up;
type = BottomGhost;
},
{
horizontal = 1;
place = (407, 30);
place = (407, 30);
type = Stem;
},
{
horizontal = 1;
place = (684, -20);
target = down;
type = TopGhost;
},
{
horizontal = 1;
place = (685, -20);
target = down;
type = TopGhost;
}
);
layerId = "8832323D-7B51-42FA-AB4B-A01DBB0D4C02";
shapes = (
{
closed = 1;
nodes = (
(421,123,o),
(412,126,o),
(406,126,cs),
(401,126,o),
(392,125,o),
(391,119,cs),
(377,32,o),
(341,31,o),
(321,31,cs),
(150,31,l),
(185,74,o),
(385,406,o),
(401,414,cs),
(404,415,o),
(407,421,o),
(407,427,cs),
(407,433,o),
(404,437,o),
(400,437,cs),
(116,437,l),
(110,438,o),
(112,442,o),
(112,447,cs),
(112,454,o),
(104,456,o),
(95,456,cs),
(89,456,o),
(83,455,o),
(81,449,cs),
(74,428,o),
(55,361,o),
(51,329,c),
(51,326,o),
(60,324,o),
(66,324,cs),
(72,324,o),
(79,326,o),
(80,329,cs),
(104,398,o),
(130,407,o),
(149,407,cs),
(291,407,l),
(291,407,o),
(66,34,o),
(41,23,c),
(37,20,o),
(35,17,o),
(35,12,cs),
(35,6,o),
(36,0,o),
(41,0,cs),
(353,0,o),
(374,-2,o),
(374,-14,cs),
(374,-18,o),
(379,-20,o),
(387,-20,cs,{
name = .hr02;
}),
(397,-20,o),
(401,-18,o),
(401,-13,cs),
(401,16,o),
(412,93,o),
(421,119,c,{
name = .hr01;
})
);
},
{
closed = 1;
nodes = (
(103,677,ls),
(96,683,o),
(91,684,o),
(86,684,cs),
(77,684,o),
(72,677,o),
(72,677,c),
(182,530,l),
(191,521,o),
(201,516,o),
(211,516,cs),
(220,516,o),
(230,521,o),
(237,530,cs),
(351,677,l),
(349,682,o),
(346,685,o),
(340,685,cs,{
name = .hr03;
}),
(335,685,o),
(328,683,o),
(321,677,cs),
(210,587,l)
);
}
);
width = 454;
}
);
unicode = 382;
},
{
glyphname = fi;
lastChange = "2023-03-28 14:40:20 +0000";
layers = (
{
hints = (
{
horizontal = 1;
place = (0, 28);
place = (0, 28);
type = Stem;
},
{
horizontal = 1;
place = (-2, 21);
target = up;
type = BottomGhost;
},
{
horizontal = 1;
place = (399, 38);
place = (399, 38);
type = Stem;
},
{
horizontal = 1;
place = (585, 147);
place = (585, 147);
type = Stem;
},
{
horizontal = 1;
place = (692, 40);
place = (692, 40);
type = Stem;
},
{
place = (27, 166);
place = (27, 166);
type = Stem;
},
{
place = (108, 85);
place = (108, 85);
type = Stem;
},
{
place = (451, 85);
place = (451, 85);
type = Stem;
}
);
layerId = "8832323D-7B51-42FA-AB4B-A01DBB0D4C02";
shapes = (
{
closed = 1;
nodes = (
(193,437,l,{
name = .hr01;
}),
(193,466,ls),
(193,544,o),
(203,692,o),
(341,692,cs),
(402,692,o),
(431,649,o),
(453,588,c),
(462,586,o),
(469,585,o),
(477,585,cs,{
name = .hr02;
}),
(513,585,o),
(536,605,o),
(536,636,cs),
(536,691,o),
(463,732,o),
(381,732,cs),
(143,732,o),
(135,547,o),
(106,453,cs),
(99,432,o),
(57,432,o),
(36,432,cs),
(30,432,o),
(27,424,o),
(27,416,cs),
(27,405,o),
(32,399,o),
(38,399,cs),
(108,399,l,{
name = .hr03;
}),
(108,74,ls),
(108,39,o),
(101,28,o),
(67,28,cs),
(42,28,ls),
(38,28,o),
(36,19,o),
(36,14,cs),
(36,7,o),
(40,-2,o),
(47,-2,c,{
name = .hr04;
}),
(156,1,l),
(182,1,o),
(237,0,o),
(263,0,cs,{
name = .hr05;
}),
(267,0,o),
(269,7,o),
(269,14,cs),
(269,21,o),
(266,27,o),
(262,30,c),
(193,30,l),
(193,399,l),
(308,399,ls),
(314,399,o),
(317,409,o),
(317,416,cs),
(317,425,o),
(313,437,o),
(306,437,cs)
);
},
{
closed = 1;
nodes = (
(540,474,o),
(534,478,o),
(525,478,c),
(486,444,o),
(445,407,o),
(401,402,cs),
(397,401,o),
(396,396,o),
(396,392,cs),
(396,385,o),
(399,377,o),
(403,377,cs),
(418,377,o),
(430,371,o),
(438,363,cs),
(449,352,o),
(451,327,o),
(451,281,cs),
(451,74,ls),
(451,39,o),
(444,28,o),
(410,28,cs),
(381,28,ls),
(378,28,o),
(376,19,o),
(376,13,cs),
(376,7,o),
(379,-2,o),
(383,-2,cs,{
name = .hr06;
}),
(421,-2,o),
(442,1,o),
(499,1,cs),
(541,1,o),
(554,0,o),
(608,0,cs,{
name = .hr07;
}),
(612,0,o),
(614,7,o),
(614,13,cs),
(614,20,o),
(611,30,o),
(606,30,cs),
(536,30,l),
(536,355,ls),
(536,401,o),
(540,434,o),
(540,466,cs)
);
}
);
width = 643;
}
);
unicode = 64257;
},
{
glyphname = fl;
lastChange = "2023-03-28 14:40:20 +0000";
layers = (
{
hints = (
{
horizontal = 1;
place = (0, 28);
place = (0, 28);
type = Stem;
},
{
horizontal = 1;
place = (-2, 21);
target = up;
type = BottomGhost;
},
{
horizontal = 1;
place = (399, 38);
place = (399, 38);
type = Stem;
},
{
horizontal = 1;
place = (692, 21);
place = (692, 21);
type = Stem;
},
{
horizontal = 1;
place = (692, 40);
place = (692, 40);
type = Stem;
},
{
horizontal = 1;
place = (737, -20);
target = down;
type = TopGhost;
},
{
place = (27, 166);
place = (27, 166);
type = Stem;
},
{
place = (108, 85);
place = (108, 85);
type = Stem;
},
{
place = (454, 85);
place = (454, 85);
type = Stem;
}
);
layerId = "8832323D-7B51-42FA-AB4B-A01DBB0D4C02";
shapes = (
{
closed = 1;
nodes = (
(539,353,ls,{
name = .hr01;
}),
(539,502,o),
(540,688,o),
(540,725,cs),
(540,733,o),
(534,737,o),
(525,737,c),
(503,728,o),
(472,713,o),
(454,713,cs),
(436,713,o),
(414,732,o),
(353,732,cs,{
name = .hr02;
}),
(142,732,o),
(135,547,o),
(106,453,cs),
(99,432,o),
(57,432,o),
(36,432,cs),
(30,432,o),
(27,424,o),
(27,416,cs),
(27,405,o),
(32,399,o),
(38,399,cs),
(108,399,l,{
name = .hr03;
}),
(108,74,ls),
(108,39,o),
(101,28,o),
(67,28,cs),
(42,28,ls),
(38,28,o),
(36,19,o),
(36,14,cs),
(36,7,o),
(40,-2,o),
(47,-2,c,{
name = .hr04;
}),
(156,1,l),
(182,1,o),
(237,0,o),
(263,0,cs,{
name = .hr05;
}),
(267,0,o),
(269,7,o),
(269,14,cs),
(269,21,o),
(266,27,o),
(262,30,c),
(193,30,l),
(193,399,l),
(308,399,ls),
(314,399,o),
(317,409,o),
(317,416,cs),
(317,425,o),
(313,437,o),
(306,437,cs),
(193,437,l),
(193,466,ls),
(193,544,o),
(200,692,o),
(326,692,cs),
(417,692,o),
(454,627,o),
(454,576,cs),
(454,74,ls),
(454,39,o),
(447,28,o),
(413,28,cs),
(384,28,ls),
(381,28,o),
(379,19,o),
(379,13,cs),
(379,7,o),
(382,-2,o),
(386,-2,cs,{
name = .hr06;
}),
(424,-2,o),
(445,1,o),
(502,1,cs),
(544,1,o),
(557,0,o),
(611,0,cs,{
name = .hr07;
}),
(615,0,o),
(617,7,o),
(617,13,cs),
(617,20,o),
(614,30,o),
(609,30,cs),
(539,30,l)
);
}
);
width = 644;
}
);
unicode = 64258;
},
{
glyphname = ordfeminine;
lastChange = "2023-03-28 14:40:20 +0000";
layers = (
{
hints = (
{
horizontal = 1;
place = (345, 42);
place = (345, 42);
type = Stem;
},
{
horizontal = 1;
place = (340, 21);
target = up;
type = BottomGhost;
},
{
horizontal = 1;
place = (429, 37);
place = (429, 37);
type = Stem;
},
{
horizontal = 1;
place = (658, 24);
place = (658, 24);
type = Stem;
},
{
place = (64, 49);
place = (64, 49);
type = Stem;
},
{
place = (197, 46);
place = (197, 46);
type = Stem;
},
{
place = (197, 100);
place = (197, 100);
type = Stem;
}
);
layerId = "8832323D-7B51-42FA-AB4B-A01DBB0D4C02";
shapes = (
{
closed = 1;
nodes = (
(247,663,o),
(210,682,o),
(160,682,cs),
(118,682,o),
(64,649,o),
(64,610,cs),
(64,591,o),
(76,583,o),
(91,583,cs),
(99,583,o),
(107,586,o),
(113,593,c),
(113,633,o),
(125,658,o),
(154,658,cs),
(197,658,o),
(197,619,o),
(197,575,c),
(116,551,o),
(65,514,o),
(65,471,cs),
(65,444,o),
(85,429,o),
(116,429,cs),
(155,429,o),
(190,455,o),
(203,490,c),
(208,490,l),
(207,443,o),
(218,430,o),
(242,430,cs),
(273,430,o),
(291,458,o),
(291,476,cs),
(291,480,o),
(290,483,o),
(285,483,cs),
(280,483,o),
(276,466,o),
(263,466,cs),
(250,466,o),
(243,474,o),
(243,503,cs),
(243,530,o),
(247,580,o),
(247,612,cs,{
name = .hr01;
})
);
},
{
closed = 1;
nodes = (
(125,467,o),
(118,476,o),
(118,488,cs),
(118,513,o),
(147,545,o),
(197,555,c),
(197,500,o),
(167,467,o),
(140,467,cs)
);
},
{
closed = 1;
nodes = (
(271,391,o),
(239,387,o),
(216,387,cs),
(182,387,o),
(145,391,o),
(115,391,cs),
(79,391,o),
(53,385,o),
(53,360,cs),
(53,354,o),
(56,347,o),
(60,340,c,{
name = .hr02;
}),
(71,344,o),
(86,345,o),
(108,345,cs,{
name = .hr03;
}),
(152,345,o),
(184,340,o),
(216,340,cs,{
name = .hr04;
}),
(246,340,o),
(297,348,o),
(297,382,cs),
(297,387,o),
(296,393,o),
(293,397,c)
);
}
);
width = 356;
}
);
unicode = 170;
},
{
glyphname = ordmasculine;
lastChange = "2023-03-28 14:40:20 +0000";
layers = (
{
hints = (
{
horizontal = 1;
place = (345, 42);
place = (345, 42);
type = Stem;
},
{
horizontal = 1;
place = (340, 21);
target = up;
type = BottomGhost;
},
{
horizontal = 1;
place = (429, 23);
place = (429, 23);
type = Stem;
},
{
horizontal = 1;
place = (651, 31);
place = (651, 31);
type = Stem;
},
{
place = (52, 49);
place = (52, 49);
type = Stem;
},
{
place = (255, 49);
place = (255, 49);
type = Stem;
}
);
layerId = "8832323D-7B51-42FA-AB4B-A01DBB0D4C02";
shapes = (
{
closed = 1;
nodes = (
(108,682,o),
(52,625,o),
(52,555,cs),
(52,486,o),
(108,429,o),
(178,429,cs),
(247,429,o),
(304,486,o),
(304,555,cs),
(304,625,o),
(247,682,o),
(178,682,cs,{
name = .hr01;
})
);
},
{
closed = 1;
nodes = (
(221,651,o),
(255,607,o),
(255,550,cs),
(255,493,o),
(226,452,o),
(180,452,cs),
(136,452,o),
(101,495,o),
(101,551,cs),
(101,608,o),
(130,651,o),
(175,651,cs)
);
},
{
closed = 1;
nodes = (
(281,391,o),
(249,387,o),
(226,387,cs),
(192,387,o),
(155,391,o),
(125,391,cs),
(89,391,o),
(63,385,o),
(63,360,cs),
(63,354,o),
(66,347,o),
(70,340,c,{
name = .hr02;
}),
(81,344,o),
(96,345,o),
(118,345,cs,{
name = .hr03;
}),
(162,345,o),
(194,340,o),
(226,340,cs,{
name = .hr04;
}),
(256,340,o),
(307,348,o),
(307,382,cs),
(307,387,o),
(306,393,o),
(303,397,c)
);
}
);
width = 360;
}
);
unicode = 186;
},
{
glyphname = zero;
lastChange = "2023-03-28 14:40:20 +0000";
layers = (
{
hints = (
{
horizontal = 1;
place = (-13, 85);
place = (-13, 85);
type = Stem;
},
{
horizontal = 1;
place = (370, 85);
place = (370, 85);
type = Stem;
},
{
place = (50, 41);
place = (50, 41);
type = Stem;
},
{
place = (448, 41);
place = (448, 41);
type = Stem;
}
);
layerId = "8832323D-7B51-42FA-AB4B-A01DBB0D4C02";
shapes = (
{
closed = 1;
nodes = (
(489,344,o),
(403,455,o),
(275,455,cs),
(143,455,o),
(50,352,o),
(50,222,cs),
(50,91,o),
(136,-13,o),
(271,-13,cs),
(400,-13,o),
(489,98,o),
(489,222,cs)
);
},
{
closed = 1;
nodes = (
(448,118,o),
(359,72,o),
(265,72,cs),
(178,72,o),
(91,118,o),
(91,217,cs),
(91,324,o),
(178,370,o),
(271,370,cs),
(356,370,o),
(448,325,o),
(448,226,cs)
);
}
);
width = 556;
}
);
unicode = 48;
},
{
glyphname = one;
lastChange = "2023-03-28 14:40:20 +0000";
layers = (
{
hints = (
{
horizontal = 1;
place = (1, 27);
place = (1, 27);
type = Stem;
},
{
horizontal = 1;
place = (-2, 21);
target = up;
type = BottomGhost;
},
{
horizontal = 1;
place = (0, 21);
target = up;
type = BottomGhost;
},
{
horizontal = 1;
place = (415, 27);
place = (415, 27);
type = Stem;
},
{
horizontal = 1;
place = (443, -20);
target = down;
type = TopGhost;
},
{
horizontal = 1;
place = (445, -20);
target = down;
type = TopGhost;
},
{
place = (159, 85);
place = (159, 85);
type = Stem;
}
);
layerId = "8832323D-7B51-42FA-AB4B-A01DBB0D4C02";
shapes = (
{
closed = 1;
nodes = (
(244,398,ls,{
name = .hr01;
}),
(244,411,o),
(248,415,o),
(256,415,cs),
(326,415,ls),
(329,415,o),
(331,424,o),
(331,430,cs),
(331,436,o),
(328,445,o),
(324,445,cs,{
name = .hr02;
}),
(286,445,o),
(253,442,o),
(196,442,cs,{
name = .hr03;
}),
(154,442,o),
(129,443,o),
(75,443,cs,{
name = .hr04;
}),
(71,443,o),
(69,436,o),
(69,430,cs),
(69,423,o),
(72,413,o),
(77,413,cs),
(138,413,ls),
(148,413,o),
(159,402,o),
(159,325,cs),
(159,45,ls),
(159,32,o),
(155,28,o),
(147,28,cs),
(77,28,ls),
(74,28,o),
(72,19,o),
(72,13,cs),
(72,7,o),
(75,-2,o),
(79,-2,cs,{
name = .hr05;
}),
(117,-2,o),
(150,1,o),
(207,1,cs,{
name = .hr06;
}),
(249,1,o),
(274,0,o),
(328,0,cs,{
name = .hr07;
}),
(332,0,o),
(334,7,o),
(334,13,cs),
(334,20,o),
(331,30,o),
(326,30,cs),
(265,30,ls),
(255,30,o),
(244,41,o),
(244,118,cs)
);
}
);
width = 404;
}
);
unicode = 49;
},
{
glyphname = two;
lastChange = "2023-03-28 14:40:20 +0000";
layers = (
{
hints = (
{
horizontal = 1;
place = (-29, 21);
target = up;
type = BottomGhost;
},
{
horizontal = 1;
place = (0, 60);
place = (0, 60);
type = Stem;
},
{
horizontal = 1;
place = (256, 199);
place = (256, 199);
type = Stem;
},
{
horizontal = 1;
place = (416, 39);
place = (416, 39);
type = Stem;
},
{
place = (58, 85);
place = (58, 85);
type = Stem;
},
{
place = (309, 97);
place = (309, 97);
type = Stem;
}
);
layerId = "8832323D-7B51-42FA-AB4B-A01DBB0D4C02";
shapes = (
{
closed = 1;
nodes = (
(40,18,o),
(38,13,o),
(38,9,cs),
(38,4,o),
(41,0,o),
(46,0,cs),
(398,0,l),
(398,-22,ls),
(398,-27,o),
(406,-29,o),
(414,-29,cs),
(422,-29,o),
(429,-27,o),
(429,-22,cs),
(429,29,o),
(431,85,o),
(441,135,cs),
(442,141,o),
(435,143,o),
(427,143,cs),
(418,143,o),
(409,140,o),
(408,135,cs),
(403,97,l),
(364,70,o),
(295,60,o),
(205,60,cs),
(179,60,o),
(161,59,o),
(161,59,c),
(159,62,l),
(243,112,o),
(406,215,o),
(406,328,cs),
(406,410,o),
(325,455,o),
(233,455,cs),
(152,455,o),
(58,391,o),
(58,310,cs),
(58,277,o),
(81,256,o),
(107,256,cs),
(131,256,o),
(150,265,o),
(158,278,c),
(152,285,o),
(143,311,o),
(143,335,cs),
(143,381,o),
(179,416,o),
(229,416,cs,{
name = .hr02;
}),
(274,416,o),
(309,382,o),
(309,338,cs),
(309,243,o),
(186,106,o),
(46,22,cs,{
name = .hr01;
})
);
}
);
width = 483;
}
);
unicode = 50;
},
{
glyphname = three;
lastChange = "2023-03-28 14:40:20 +0000";
layers = (
{
hints = (
{
horizontal = 1;
place = (-237, 43);
place = (-237, 43);
type = Stem;
},
{
horizontal = 1;
place = (247, 208);
place = (247, 208);
type = Stem;
},
{
horizontal = 1;
place = (410, 45);
place = (410, 45);
type = Stem;
},
{
place = (56, 91);
place = (56, 91);
type = Stem;
},
{
place = (339, 99);
place = (339, 99);
type = Stem;
},
{
place = (399, 96);
place = (399, 96);
type = Stem;
}
);
layerId = "8832323D-7B51-42FA-AB4B-A01DBB0D4C02";
shapes = (
{
closed = 1;
nodes = (
(363,-237,o),
(495,-162,o),
(495,-35,cs),
(495,46,o),
(437,129,o),
(315,163,c),
(315,165,l),
(387,204,o),
(438,254,o),
(438,325,cs,{
name = .hr02;
}),
(438,408,o),
(347,455,o),
(270,455,cs),
(185,455,o),
(56,395,o),
(56,303,cs),
(56,266,o),
(81,247,o),
(107,247,cs),
(127,247,o),
(149,258,o),
(160,281,c),
(151,298,o),
(147,312,o),
(147,327,cs),
(147,370,o),
(192,410,o),
(244,410,cs,{
name = .hr03;
}),
(308,410,o),
(339,368,o),
(339,310,cs),
(339,157,o),
(150,159,o),
(150,77,cs),
(150,56,o),
(168,47,o),
(188,53,c),
(188,53,o),
(183,102,o),
(273,139,c),
(353,121,o),
(399,39,o),
(399,-39,cs,{
name = .hr04;
}),
(399,-143,o),
(329,-194,o),
(259,-194,cs),
(183,-194,o),
(133,-143,o),
(113,-55,c),
(113,-55,o),
(42,-47,o),
(42,-120,cs),
(42,-203,o),
(152,-237,o),
(230,-237,cs,{
name = .hr01;
})
);
}
);
width = 551;
}
);
unicode = 51;
},
{
glyphname = four;
lastChange = "2023-03-28 14:40:20 +0000";
layers = (
{
hints = (
{
horizontal = 1;
place = (-223, 28);
place = (-223, 28);
type = Stem;
},
{
horizontal = 1;
place = (-226, 21);
target = up;
type = BottomGhost;
},
{
horizontal = 1;
place = (5, 46);
place = (5, 46);
type = Stem;
},
{
horizontal = 1;
place = (472, -20);
target = down;
type = TopGhost;
},
{
place = (308, 90);
place = (308, 90);
type = Stem;
},
{
place = (308, 201);
place = (308, 201);
type = Stem;
}
);
layerId = "8832323D-7B51-42FA-AB4B-A01DBB0D4C02";
shapes = (
{
closed = 1;
nodes = (
(308,-89,l,{
name = .hr01;
}),
(308,-171,ls),
(308,-186,o),
(308,-195,o),
(293,-195,cs),
(198,-195,ls),
(195,-195,o),
(193,-205,o),
(193,-211,cs),
(193,-217,o),
(196,-226,o),
(200,-226,cs,{
name = .hr02;
}),
(238,-226,o),
(307,-223,o),
(364,-223,cs,{
name = .hr03;
}),
(406,-223,o),
(448,-224,o),
(502,-224,cs),
(506,-224,o),
(508,-217,o),
(508,-211,cs),
(508,-204,o),
(505,-192,o),
(500,-192,cs),
(419,-193,ls),
(410,-193,o),
(398,-182,o),
(398,-105,cs),
(398,5,l),
(496,5,ls),
(504,5,o),
(509,15,o),
(509,29,cs,{
name = .hr04;
}),
(509,42,o),
(504,53,o),
(496,53,cs),
(398,53,l,{
name = .hr05;
}),
(398,190,ls),
(398,365,o),
(408,430,o),
(408,451,cs),
(408,464,o),
(393,472,o),
(371,472,c),
(49,51,ls),
(41,41,o),
(37,30,o),
(37,21,cs),
(37,12,o),
(41,5,o),
(48,5,cs),
(308,5,l)
);
},
{
closed = 1;
nodes = (
(307,327,l),
(310,327,l),
(310,327,o),
(308,291,o),
(308,257,cs),
(308,51,l),
(103,51,l)
);
}
);
width = 556;
}
);
unicode = 52;
},
